<svg width="64" height="64" viewBox="0 0 64 64" fill="none" xmlns="http://www.w3.org/2000/svg">
<path d="M32 62C48.5685 62 62 48.5685 62 32C62 15.4315 48.5685 2 32 2C15.4315 2 2 15.4315 2 32C2 48.5685 15.4315 62 32 62Z" fill="#FFF215" stroke="white" stroke-width="2"/>
<path d="M30.445 21.6292H33.1164C33.1164 21.0522 33.1164 20.4912 33.1164 19.9263C33.1278 18.7773 33.8194 18.003 34.8188 18.013C35.7888 18.023 36.4784 18.8144 36.487 19.9163C36.487 20.4642 36.487 21.0182 36.487 21.6002H40.6522C40.6522 21.0372 40.6522 20.4762 40.6522 19.9153C40.66 18.7843 41.3218 18.019 42.3088 18.012C43.296 18.005 44.019 18.7934 44.0228 19.9253C44.0296 21.6582 44.0228 23.3922 44.0228 25.1252V25.6842C45.6278 26.0216 47.073 26.6548 48.2962 27.7366C51.4096 30.4914 52.6348 34.0144 51.687 38.1544C50.7304 42.3376 48.0906 44.978 44.0496 45.7994C40.5988 46.5006 37.6156 45.3416 35.1976 42.658C34.4574 41.8356 34.4716 40.7368 35.1976 40.0276C35.9236 39.3184 36.9088 39.3986 37.6844 40.246C39.4174 42.1312 41.517 42.8564 43.9358 42.1722C46.3546 41.488 47.8516 39.7762 48.4446 37.2378C49.1954 34.0324 47.4708 30.6816 44.5174 29.5326C44.371 29.4756 44.2198 29.4326 44.0218 29.3644V30.3912C44.0218 32.024 44.0218 33.6578 44.0218 35.2906C44.0218 36.4756 43.337 37.285 42.3394 37.294C41.406 37.305 40.6178 36.4796 40.635 35.3156C40.6752 32.1832 40.6484 29.0498 40.6484 25.9166V25.2844H36.4888V25.8194C36.4888 27.6524 36.4984 29.4866 36.4812 31.3188C36.4748 31.7394 36.3262 32.144 36.0614 32.4606C35.7968 32.777 35.4334 32.9848 35.036 33.0466C34.63 33.1052 34.2174 33.0066 33.876 32.7692C33.5346 32.5318 33.2876 32.172 33.1814 31.7574C33.1308 31.5138 33.11 31.2644 33.1192 31.0152C33.1144 29.2992 33.1192 27.5824 33.1192 25.8664V25.2844H23.328V25.8854C23.328 29.0688 23.328 32.2514 23.328 35.4348C23.328 36.6568 22.4394 37.4562 21.3376 37.2598C20.5342 37.1166 19.9642 36.3724 19.9603 35.4208C19.9517 33.6046 19.9603 31.7886 19.9603 29.9714V29.3634C18.6146 29.764 17.529 30.5124 16.7227 31.6452C15.1924 33.79 14.916 36.143 15.9805 38.5672C17.0326 40.9632 18.9082 42.2464 21.4218 42.4076C24.6526 42.614 27.6264 39.8402 27.899 36.4596C28.0424 34.6864 27.6292 33.1018 26.621 31.6734C26.007 30.8028 26.1506 29.706 26.9262 29.1C27.7018 28.494 28.6994 28.6832 29.347 29.5778C33.7066 35.597 30.4948 44.375 23.4074 45.8244C18.1622 46.8974 12.8864 42.9196 12.1126 37.3942C11.3035 31.6514 14.9562 26.6998 19.8159 25.7262C19.8636 25.707 19.9097 25.6836 19.9536 25.656V25.1462C19.9536 23.3632 19.9441 21.5802 19.9594 19.7971C19.967 18.8955 20.5926 18.1503 21.3692 18.0371C22.23 17.9119 22.9732 18.3746 23.2352 19.2231C23.2974 19.463 23.327 19.7108 23.3232 19.9594C23.3356 20.5042 23.3232 21.0492 23.3232 21.6212H27.039C27.039 21.0202 27.0238 20.4372 27.039 19.8592C27.085 18.4337 28.3676 17.5793 29.5076 18.2114C30.1686 18.578 30.425 19.196 30.4354 19.9463C30.4508 20.4892 30.445 21.0382 30.445 21.6292Z" fill="#454545"/>
</svg>
