<svg width="64" height="64" viewBox="0 0 64 64" fill="none" xmlns="http://www.w3.org/2000/svg">
<path d="M32 62C48.5685 62 62 48.5685 62 32C62 15.4315 48.5685 2 32 2C15.4315 2 2 15.4315 2 32C2 48.5685 15.4315 62 32 62Z" fill="#33D085" stroke="white" stroke-width="2"/>
<path d="M25.2766 35.5821C25.4016 35.7065 25.5508 35.8052 25.7154 35.8722C25.8798 35.9394 26.0562 35.9733 26.2344 35.9725C26.4128 35.9765 26.5902 35.9437 26.7552 35.8765C26.9202 35.8093 27.069 35.7091 27.1922 35.5821C27.32 35.4597 27.4216 35.3136 27.491 35.152C27.5604 34.9904 27.5962 34.8168 27.5962 34.6416C27.5962 34.4662 27.5604 34.2926 27.491 34.131C27.4216 33.9694 27.32 33.8232 27.1922 33.7008C26.3528 32.8744 25.3556 32.2188 24.2578 31.7714C23.16 31.324 21.9832 31.0938 20.7946 31.0938C19.606 31.0938 18.4291 31.324 17.3313 31.7714C16.2335 32.2188 15.2364 32.8744 14.397 33.7008C14.1576 33.9532 14.0272 34.287 14.0334 34.6318C14.0396 34.9766 14.1819 35.3055 14.4302 35.5495C14.6785 35.7933 15.0136 35.9332 15.3647 35.9392C15.7159 35.9452 16.0557 35.8171 16.3126 35.5821C17.502 34.4159 19.1139 33.761 20.7946 33.761C22.4752 33.761 24.0872 34.4159 25.2766 35.5821Z" fill="white"/>
<path d="M44.7232 35.3328L40.1148 15.0999C40.049 14.804 39.8824 14.539 39.6426 14.3486C39.4028 14.1582 39.104 14.0538 38.7956 14.0527H33.7354C33.4462 14.1279 33.1906 14.2949 33.0082 14.5276C32.8258 14.7604 32.727 15.0458 32.727 15.3395C32.727 15.6332 32.8258 15.9186 33.0082 16.1513C33.1906 16.3841 33.4462 16.551 33.7354 16.6262H37.7112L42.0848 35.8298C42.0848 35.8298 42.0848 35.8298 42.0848 35.954C41.251 36.4196 40.5634 37.1012 40.0968 37.924H25.2594C24.6214 36.9336 23.6686 36.1776 22.5488 35.7732C21.4288 35.3688 20.2042 35.3384 19.0649 35.687C17.9257 36.0356 16.9353 36.7436 16.2474 37.7012C15.5595 38.6588 15.2125 39.8124 15.2602 40.9834C15.3079 42.1542 15.7476 43.277 16.5112 44.1776C17.2748 45.0782 18.3195 45.7062 19.4835 45.9642C20.6476 46.2224 21.8656 46.0962 22.9492 45.6052C24.0326 45.114 24.921 44.2858 25.4762 43.2486H40.0968C40.5708 44.0368 41.2468 44.6892 42.0576 45.1406C42.8684 45.5922 43.7856 45.827 44.7178 45.8218C45.6498 45.8166 46.5642 45.5714 47.3698 45.111C48.1752 44.6504 48.8438 43.9904 49.3086 43.197C49.7734 42.4036 50.0182 41.5042 50.0188 40.5888C50.0192 39.6736 49.7752 38.774 49.3114 37.98C48.8474 37.1862 48.1796 36.5256 47.3746 36.0642C46.5696 35.6028 45.6554 35.3568 44.7232 35.3506V35.3328ZM20.7956 43.3372C20.278 43.3338 19.7732 43.1798 19.3447 42.895C18.9161 42.61 18.5831 42.207 18.3875 41.7364C18.1919 41.2658 18.1426 40.749 18.2457 40.251C18.3489 39.7528 18.5999 39.296 18.9671 38.9378C19.3343 38.5798 19.8012 38.3364 20.309 38.2386C20.8168 38.1406 21.3428 38.1926 21.8206 38.388C22.2984 38.5832 22.7066 38.913 22.9938 39.3358C23.2808 39.7586 23.4342 40.2556 23.4342 40.7638C23.4342 41.1032 23.3658 41.4394 23.233 41.7528C23.1002 42.0662 22.9054 42.3506 22.6602 42.5898C22.415 42.829 22.124 43.0182 21.804 43.1464C21.484 43.2748 21.1412 43.3396 20.7956 43.3372ZM44.669 43.142C44.1508 43.142 43.6442 42.991 43.2132 42.7084C42.7822 42.4256 42.4464 42.0236 42.248 41.5534C42.0498 41.0832 41.9978 40.5656 42.099 40.0664C42.2 39.5672 42.4496 39.1088 42.8162 38.7488C43.1826 38.389 43.6496 38.1438 44.1578 38.0446C44.6662 37.9452 45.193 37.9962 45.6718 38.191C46.1508 38.3858 46.56 38.7156 46.848 39.1388C47.1358 39.562 47.2896 40.0596 47.2896 40.5686C47.2896 41.251 47.0134 41.9056 46.522 42.3882C46.0306 42.8708 45.364 43.142 44.669 43.142Z" fill="white"/>
</svg>
