<svg width="120" height="120" viewBox="0 0 120 120" fill="none" xmlns="http://www.w3.org/2000/svg">
<path d="M55.1299 40.0203L63.2255 49.0554C64.2803 50.2322 65.3893 50.802 66.3966 50.802C67.8177 50.802 69.0352 49.6659 69.5949 47.5089L80.6344 5.07031H75.581L65.4063 44.1648L58.769 36.7576C57.3174 35.1364 56.4288 31.4837 56.9783 29.381L63.3002 5.07031H58.2467L52.2437 28.1329C51.2873 31.8399 52.5828 37.1917 55.1299 40.0203Z" fill="#49BBDA"/>
<path d="M64.8735 79.9256L56.7779 70.8939C55.7232 69.717 54.6141 69.1472 53.6068 69.1472C52.1823 69.1472 50.9682 70.28 50.4086 72.4404L39.3555 114.859H44.4089L54.5835 75.7608L61.2242 83.1713C62.6758 84.7891 63.561 88.4452 63.015 90.548L56.6931 114.859H61.7465L67.7496 91.7791C68.7162 88.0924 67.4172 82.7508 64.8735 79.9256Z" fill="#FFCA60"/>
<path d="M11.8441 71.2565C13.3792 71.2546 14.8706 70.745 16.0859 69.807C17.3012 68.8691 18.172 67.5554 18.5627 66.0708L34.4284 5.07031H30.1992C29.9279 5.07031 29.6532 5.07029 29.3819 5.09064L13.8417 64.8397C13.722 65.2759 13.4631 65.661 13.1043 65.9365C12.7455 66.212 12.3066 66.3628 11.8542 66.3659C11.6848 66.3662 11.5161 66.3445 11.3523 66.3014L5.11865 64.6803V69.7507L10.1212 71.053C10.6847 71.1929 11.2635 71.2612 11.8441 71.2565Z" fill="#80D19D"/>
<path d="M108.161 48.672C106.625 48.6744 105.133 49.1847 103.917 50.1232C102.701 51.0617 101.83 52.3759 101.438 53.8611L85.5728 114.858H89.8122C90.0869 114.858 90.3616 114.858 90.6329 114.838L106.173 55.0888C106.293 54.6526 106.552 54.2675 106.91 53.992C107.269 53.7165 107.708 53.5657 108.161 53.5626C108.33 53.5623 108.499 53.584 108.662 53.6271L114.896 55.2482V50.1914L109.894 48.8925C109.327 48.7463 108.745 48.6722 108.161 48.672Z" fill="#B961A7"/>
<path d="M80.8822 83.205C81.1038 83.2617 81.3317 83.2902 81.5605 83.2898C82.1468 83.2896 82.7165 83.0946 83.18 82.7355C83.6435 82.3764 83.9745 81.8734 84.1211 81.3057L95.3133 38.2601C94.5693 38.2178 93.8311 38.1042 93.1088 37.9209C92.1035 37.6587 91.1375 37.2641 90.2361 36.7474L78.9897 79.9864C78.8172 80.664 78.9192 81.3824 79.2736 81.9851C79.628 82.5879 80.2062 83.0263 80.8822 83.205Z" fill="#FF5D52"/>
<path d="M95.3169 38.2601C95.5577 38.2601 95.7985 38.2839 96.0359 38.2839C98.6089 38.2811 101.108 37.4259 103.144 35.852C105.179 34.278 106.636 32.074 107.286 29.5845C108.059 26.6015 107.616 23.4337 106.056 20.7764C104.495 18.1192 101.944 16.1896 98.9628 15.4112C97.485 15.0221 95.9448 14.9299 94.4311 15.1401C92.9175 15.3502 91.4606 15.8586 90.1448 16.6356C88.8257 17.4055 87.6723 18.4292 86.7514 19.6477C85.8304 20.8661 85.1601 22.255 84.7793 23.7341C84.3903 25.212 84.2985 26.7525 84.5093 28.2662C84.72 29.7799 85.2291 31.2367 86.0071 32.5521C87.0241 34.2935 88.48 35.7378 90.2295 36.7407C91.1309 37.2574 92.0969 37.652 93.1022 37.9142C93.8276 38.1004 94.5692 38.2163 95.3169 38.2601ZM89.9209 25.067C90.127 24.2624 90.4909 23.5069 90.9916 22.8443C91.4924 22.1817 92.1199 21.6252 92.8376 21.2074C93.8038 20.6349 94.9061 20.3327 96.0291 20.3324C96.5694 20.3325 97.1074 20.402 97.6299 20.5393C99.2519 20.9635 100.639 22.0137 101.488 23.4594C102.337 24.9052 102.578 26.6286 102.158 28.2517C101.734 29.8734 100.685 31.2608 99.2394 32.1096C97.7942 32.9585 96.0712 33.1993 94.4486 32.7794C93.6437 32.5721 92.8878 32.2073 92.2247 31.7061C91.5617 31.2049 91.0046 30.5772 90.5857 29.8593C90.1619 29.1448 89.8843 28.3532 89.769 27.5305C89.6537 26.7078 89.7031 25.8704 89.9141 25.067H89.9209Z" fill="#FF5D52"/>
<path d="M29.7681 83.2014L41.0179 39.9591C41.1942 39.2786 41.0933 38.556 40.7372 37.95C40.381 37.3439 39.7989 36.904 39.1186 36.7269C38.4382 36.5515 37.716 36.6529 37.1102 37.0089C36.5044 37.3649 36.0643 37.9464 35.8865 38.6262L24.6943 81.6684C25.4383 81.7111 26.1765 81.8247 26.8988 82.0076C27.9049 82.2738 28.8701 82.6755 29.7681 83.2014Z" fill="#FF5D52"/>
<path d="M35.2177 96.2051C35.8558 93.7409 35.6682 91.1354 34.6838 88.788C33.6994 86.4405 31.9724 84.4806 29.7675 83.2087C28.8675 82.6883 27.9012 82.2924 26.8948 82.0318C26.1725 81.8488 25.4343 81.7353 24.6903 81.6926C22.3805 81.5448 20.0796 82.0955 18.087 83.2731C16.7679 84.043 15.6145 85.0667 14.6935 86.2852C13.7726 87.5036 13.1023 88.8925 12.7215 90.3716C12.3315 91.8495 12.2392 93.3901 12.45 94.904C12.6608 96.4178 13.1705 97.8746 13.9493 99.1897C14.7178 100.509 15.7407 101.663 16.9586 102.584C18.1766 103.505 19.5654 104.175 21.0444 104.555C21.9989 104.804 22.9813 104.931 23.9679 104.932C26.5444 104.927 29.0468 104.068 31.0826 102.489C33.1185 100.91 34.5728 98.6996 35.2177 96.2051ZM30.0897 94.8722C29.6645 96.4889 28.617 97.8718 27.1759 98.7188C25.7347 99.5658 24.0169 99.8082 22.3976 99.3931C21.5927 99.1859 20.8368 98.8211 20.1737 98.3199C19.5107 97.8186 18.9536 97.1909 18.5347 96.473C18.1098 95.759 17.831 94.9677 17.7145 94.145C17.5981 93.3223 17.6463 92.4846 17.8564 91.6807C18.0624 90.8762 18.4263 90.1206 18.9271 89.458C19.4278 88.7954 20.0553 88.239 20.7731 87.8212C21.7392 87.2487 22.8415 86.9465 23.9646 86.9461C24.5048 86.9462 25.0428 87.0158 25.5654 87.1531C27.1867 87.578 28.5734 88.6285 29.4214 90.0742C30.2695 91.5199 30.5098 93.2429 30.0897 94.8655V94.8722Z" fill="#FF5D52"/>
<path d="M49.9884 52.5964C50.218 52.8577 50.5008 53.067 50.8178 53.2103C51.1348 53.3536 51.4787 53.4276 51.8265 53.4273C52.4209 53.4265 52.9947 53.2095 53.4409 52.8169C53.6822 52.6047 53.8794 52.3471 54.021 52.0587C54.1627 51.7704 54.2462 51.4569 54.2666 51.1363C54.2871 50.8156 54.2442 50.4941 54.1404 50.19C54.0365 49.886 53.8737 49.6054 53.6614 49.3643L50.4665 45.7285C50.2544 45.4872 49.9968 45.2901 49.7084 45.1484C49.42 45.0067 49.1065 44.9233 48.7859 44.9028C48.4653 44.8823 48.1437 44.9253 47.8396 45.0291C47.5356 45.133 47.2551 45.2957 47.014 45.5081C46.7724 45.7197 46.575 45.9769 46.4331 46.265C46.2912 46.5531 46.2076 46.8664 46.1871 47.1869C46.1666 47.5074 46.2096 47.8287 46.3137 48.1326C46.4178 48.4364 46.5808 48.7166 46.7935 48.9573L49.9884 52.5964Z" fill="#C4C4C4"/>
<path d="M59.4883 63.3984C59.7179 63.6597 60.0007 63.869 60.3177 64.0123C60.6347 64.1555 60.9786 64.2295 61.3265 64.2293C61.9205 64.2297 62.4943 64.014 62.9408 63.6223C63.1821 63.4101 63.3793 63.1525 63.521 62.8641C63.6626 62.5757 63.7461 62.2623 63.7665 61.9416C63.787 61.621 63.7441 61.2995 63.6403 60.9954C63.5364 60.6914 63.3736 60.4107 63.1613 60.1696L59.9664 56.5339C59.7545 56.2924 59.4971 56.0949 59.2088 55.953C58.9206 55.811 58.6072 55.7272 58.2866 55.7064C57.9659 55.6856 57.6443 55.7282 57.3401 55.8318C57.036 55.9354 56.7552 56.0979 56.5139 56.31C56.0269 56.7385 55.7297 57.3427 55.6878 57.99C55.6458 58.6374 55.8624 59.2749 56.29 59.7627L59.4883 63.3984Z" fill="#C4C4C4"/>
<path d="M68.9884 74.2039C69.218 74.4652 69.5008 74.6745 69.8178 74.8177C70.1348 74.961 70.4787 75.035 70.8266 75.0348C71.4209 75.034 71.9947 74.817 72.4409 74.4244C72.6822 74.2122 72.8794 73.9546 73.021 73.6662C73.1627 73.3778 73.2462 73.0644 73.2666 72.7437C73.2871 72.4231 73.2442 72.1016 73.1404 71.7975C73.0365 71.4935 72.8737 71.2128 72.6614 70.9717L69.4631 67.336C69.2513 67.0948 68.9939 66.8978 68.7058 66.7561C68.4178 66.6145 68.1046 66.5311 67.7843 66.5106C67.4639 66.4901 67.1426 66.533 66.8388 66.6368C66.5351 66.7406 66.2548 66.9033 66.014 67.1155C65.7725 67.3272 65.5752 67.5843 65.4333 67.8723C65.2913 68.1602 65.2076 68.4733 65.1868 68.7937C65.166 69.1141 65.2085 69.4354 65.312 69.7393C65.4156 70.0432 65.578 70.3237 65.7901 70.5648L68.9884 74.2039Z" fill="#C4C4C4"/>
</svg>
