<svg width="32" height="32" viewBox="0 0 32 32" fill="none" xmlns="http://www.w3.org/2000/svg">
<circle cx="16" cy="16" r="15" fill="#FFD1CD" stroke="white" stroke-width="2"/>
<g clip-path="url(#clip0_3520_2531)">
<path d="M22.0146 8.0017H9.92961C9.68307 8.0017 9.44661 8.10096 9.27228 8.27766C9.09794 8.45435 9 8.694 9 8.94388V21.6351C9 21.885 9.09794 22.1246 9.27228 22.3013C9.44661 22.478 9.68307 22.5773 9.92961 22.5773H10.915V23.0578C10.915 23.3077 11.0129 23.5473 11.1873 23.724C11.3616 23.9007 11.5981 24 11.8446 24H12.7742C13.0208 24 13.2572 23.9007 13.4316 23.724C13.6059 23.5473 13.7039 23.3077 13.7039 23.0578V22.5773H18.3519V23.0578C18.3519 23.3077 18.4499 23.5473 18.6242 23.724C18.7985 23.9007 19.035 24 19.2815 24H20.2112C20.4577 24 20.6942 23.9007 20.8685 23.724C21.0428 23.5473 21.1408 23.3077 21.1408 23.0578V22.5773H22.0704C22.3169 22.5773 22.5534 22.478 22.7277 22.3013C22.9021 22.1246 23 21.885 23 21.6351V8.94388C23.0002 8.81525 22.9745 8.68793 22.9243 8.56977C22.8741 8.45162 22.8006 8.34512 22.7083 8.25685C22.616 8.16858 22.5068 8.1004 22.3875 8.05652C22.2682 8.01263 22.1413 7.99398 22.0146 8.0017ZM13.5923 20.5516C13.5379 20.678 13.4481 20.7855 13.3342 20.8608C13.2202 20.9362 13.0869 20.9761 12.9509 20.9756C12.862 20.9944 12.7702 20.9944 12.6813 20.9756L10.7477 20.137C10.6613 20.1011 10.5829 20.048 10.5171 19.9807C10.4514 19.9135 10.3997 19.8336 10.365 19.7457C10.3303 19.6578 10.3134 19.5638 10.3152 19.4692C10.3171 19.3745 10.3377 19.2813 10.3758 19.1949C10.4123 19.1081 10.4653 19.0295 10.5318 18.9636C10.5983 18.8977 10.677 18.8457 10.7634 18.8107C10.8498 18.7757 10.9421 18.7583 11.0351 18.7596C11.1282 18.7608 11.22 18.7807 11.3054 18.818L13.1833 19.6188C13.271 19.6522 13.3513 19.703 13.4195 19.7681C13.4877 19.8333 13.5425 19.9116 13.5805 19.9984C13.6186 20.0852 13.6393 20.1788 13.6413 20.2738C13.6433 20.3688 13.6266 20.4632 13.5923 20.5516ZM21.1872 20.0899L19.2537 20.9285C19.0873 20.9782 18.9088 20.9642 18.752 20.8891C18.5952 20.8141 18.4712 20.6832 18.4034 20.5214C18.3357 20.3597 18.329 20.1783 18.3846 20.0119C18.4403 19.8454 18.5544 19.7055 18.7052 19.6188L20.6202 18.7897C20.7054 18.7511 20.7975 18.7302 20.8908 18.7283C20.9842 18.7264 21.077 18.7436 21.1637 18.7787C21.2504 18.8139 21.3293 18.8663 21.3956 18.9329C21.4619 18.9996 21.5144 19.079 21.5498 19.1666C21.5866 19.2512 21.6063 19.3425 21.608 19.4349C21.6096 19.5274 21.5931 19.6193 21.5593 19.7052C21.5256 19.7911 21.4753 19.8694 21.4114 19.9355C21.3475 20.0015 21.2713 20.054 21.1872 20.0899ZM21.6242 16.6698C21.6142 16.8596 21.5524 17.043 21.4458 17.1993C21.3391 17.3557 21.1917 17.479 21.0199 17.5555L18.2961 18.5542C17.8877 18.6909 17.4618 18.7671 17.0319 18.7803H15.0425C14.6126 18.7663 14.1869 18.6902 13.7782 18.5542L10.9894 17.546C10.8195 17.4707 10.6737 17.3487 10.5686 17.1939C10.4635 17.0391 10.4031 16.8575 10.3944 16.6698V10.0745C10.3944 9.89958 10.463 9.73183 10.585 9.60815C10.7071 9.48446 10.8726 9.41497 11.0452 9.41497H20.9734C21.0589 9.41497 21.1435 9.43203 21.2225 9.46518C21.3014 9.49832 21.3731 9.5469 21.4336 9.60815C21.494 9.66939 21.5419 9.7421 21.5746 9.82211C21.6073 9.90213 21.6242 9.98789 21.6242 10.0745V16.6698Z" fill="white"/>
</g>
<defs>
<clipPath id="clip0_3520_2531">
<rect width="14" height="16" fill="white" transform="translate(9 8)"/>
</clipPath>
</defs>
</svg>
