<svg width="66" height="66" viewBox="0 0 66 66" fill="none" xmlns="http://www.w3.org/2000/svg">
<path d="M33 65C50.6731 65 65 50.6731 65 33C65 15.3269 50.6731 1 33 1C15.3269 1 1 15.3269 1 33C1 50.6731 15.3269 65 33 65Z" fill="#FF5D52" stroke="white" stroke-width="2"/>
<path d="M45.8319 15.9362H20.0505C19.5247 15.9362 19.0201 16.148 18.6483 16.525C18.2762 16.9019 18.0674 17.4131 18.0674 17.9462V45.0208C18.0674 45.5539 18.2762 46.0651 18.6483 46.4421C19.0201 46.819 19.5247 47.0308 20.0505 47.0308H22.1527V48.0559C22.1527 48.589 22.3616 49.1002 22.7336 49.4771C23.1055 49.8541 23.61 50.0659 24.1359 50.0659H26.119C26.6451 50.0659 27.1494 49.8541 27.5215 49.4771C27.8933 49.1002 28.1024 48.589 28.1024 48.0559V47.0308H38.0181V48.0559C38.0181 48.589 38.2272 49.1002 38.599 49.4771C38.9708 49.8541 39.4754 50.0659 40.0013 50.0659H41.9846C42.5105 50.0659 43.015 49.8541 43.3869 49.4771C43.7587 49.1002 43.9678 48.589 43.9678 48.0559V47.0308H45.9509C46.4768 47.0308 46.9813 46.819 47.3531 46.4421C47.7252 46.0651 47.9341 45.5539 47.9341 45.0208V17.9462C47.9345 17.6718 47.8797 17.4002 47.7726 17.1481C47.6655 16.8961 47.5087 16.6689 47.3118 16.4806C47.1149 16.2923 46.8819 16.1468 46.6274 16.0532C46.3729 15.9596 46.1022 15.9198 45.8319 15.9362ZM27.8643 42.7094C27.7482 42.979 27.5567 43.2083 27.3137 43.369C27.0705 43.5298 26.7861 43.615 26.496 43.6139C26.3063 43.654 26.1105 43.654 25.9208 43.6139L21.7958 41.8249C21.6115 41.7483 21.4442 41.635 21.3039 41.4914C21.1637 41.3481 21.0534 41.1776 20.9794 40.9901C20.9054 40.8026 20.8693 40.6021 20.8731 40.4002C20.8772 40.1982 20.9211 39.9994 21.0024 39.8151C21.0803 39.6299 21.1934 39.4622 21.3352 39.3216C21.4771 39.181 21.645 39.0701 21.8293 38.9954C22.0136 38.9208 22.2105 38.8837 22.4089 38.8864C22.6075 38.889 22.8034 38.9314 22.9856 39.011L26.9918 40.7194C27.1789 40.7906 27.3502 40.899 27.4957 41.0379C27.6411 41.177 27.758 41.344 27.8391 41.5292C27.9204 41.7144 27.9646 41.9141 27.9688 42.1167C27.9731 42.3194 27.9375 42.5208 27.8643 42.7094ZM44.0667 41.7244L39.9419 43.5134C39.587 43.6194 39.2062 43.5896 38.8716 43.4294C38.5371 43.2694 38.2726 42.9901 38.128 42.6449C37.9835 42.3 37.9693 41.913 38.0879 41.558C38.2067 41.2028 38.4501 40.9043 38.7718 40.7194L42.8571 38.9506C43.0389 38.8683 43.2354 38.8237 43.4344 38.8197C43.6337 38.8156 43.8317 38.8523 44.0166 38.9272C44.2016 39.0023 44.3699 39.114 44.5113 39.2561C44.6528 39.3984 44.7648 39.5678 44.8403 39.7547C44.9188 39.9352 44.9608 40.1299 44.9645 40.3271C44.9679 40.5244 44.9327 40.7205 44.8606 40.9037C44.7887 41.087 44.6814 41.254 44.545 41.395C44.4087 41.5358 44.2462 41.6478 44.0667 41.7244ZM44.999 34.4282C44.9777 34.8331 44.8458 35.2243 44.6184 35.5578C44.3908 35.8914 44.0763 36.1545 43.7098 36.3177L37.8991 38.4482C37.0278 38.7399 36.1192 38.9024 35.2021 38.9306H30.958C30.0409 38.9007 29.1328 38.7384 28.2609 38.4482L22.3114 36.2974C21.949 36.1368 21.6379 35.8765 21.4137 35.5463C21.1895 35.216 21.0607 34.8286 21.0421 34.4282V20.3582C21.0421 19.9851 21.1884 19.6272 21.4487 19.3633C21.7092 19.0995 22.0623 18.9512 22.4305 18.9512H43.6106C43.793 18.9512 43.9735 18.9876 44.142 19.0583C44.3104 19.129 44.4633 19.2327 44.5924 19.3633C44.7213 19.494 44.8234 19.6491 44.8932 19.8198C44.963 19.9905 44.999 20.1734 44.999 20.3582V34.4282Z" fill="white"/>
</svg>
