<svg width="64" height="64" viewBox="0 0 64 64" fill="none" xmlns="http://www.w3.org/2000/svg">
<path d="M32 62C48.5685 62 62 48.5685 62 32C62 15.4315 48.5685 2 32 2C15.4315 2 2 15.4315 2 32C2 48.5685 15.4315 62 32 62Z" fill="#F21C0A" stroke="white" stroke-width="2"/>
<path d="M16 45.9994C17.1973 41.836 18.3807 37.7168 19.5658 33.5958L24.0768 31.9948L27.731 33.5964C26.8482 36.6482 25.9682 39.6888 25.0908 42.7182C25.1256 42.789 25.1804 42.78 25.2272 42.78C27.298 42.7766 29.3644 42.789 31.432 42.7612C32.315 42.7494 33.158 42.5344 33.8742 42.0186C34.577 41.508 34.999 40.8154 35.3072 40.0552C35.6726 39.1548 35.8864 38.2132 36.1512 37.2862C37.0222 34.2386 37.8844 31.1888 38.7378 28.1366C39.0704 26.9532 39.4522 25.7818 39.7122 24.5812C39.8408 23.9878 39.9242 23.39 39.7896 22.7852C39.6068 21.9626 39.0046 21.4634 38.0234 21.2978C37.7444 21.2492 37.4612 21.2242 37.1774 21.2228H31.5172C31.4356 21.2136 31.3528 21.2256 31.2778 21.2574C30.413 24.2918 29.5438 27.343 28.67 30.411L24.977 28.8118L20.5062 30.411C21.6852 26.2572 22.852 22.1476 24.0178 18.0436C24.117 17.9784 24.2218 18.0056 24.3222 18.0056C29.8984 18.0056 35.4748 18.0068 41.0514 18.009C42.25 18.009 43.4346 18.1509 44.5692 18.5412C46.7148 19.2787 47.8804 20.7804 47.9906 22.905C48.0516 24.0962 47.808 25.2474 47.4796 26.3888C46.2612 30.6262 45.0444 34.865 43.8292 39.1056C43.4272 40.5034 42.8054 41.8036 41.8042 42.9264C40.6386 44.2312 39.1312 45.0356 37.3948 45.4916C36.3382 45.7692 35.2578 45.9042 34.1628 45.9626C33.6574 45.9898 33.1512 46 32.6452 46H16V45.9994Z" fill="white"/>
</svg>
