<svg width="64" height="64" viewBox="0 0 64 64" fill="none" xmlns="http://www.w3.org/2000/svg">
<path d="M32 62C48.5685 62 62 48.5685 62 32C62 15.4315 48.5685 2 32 2C15.4315 2 2 15.4315 2 32C2 48.5685 15.4315 62 32 62Z" fill="#ED3C8D" stroke="white" stroke-width="2"/>
<path d="M50.5524 36.4482L48.963 37.855C48.05 40.7716 45.323 42.8932 42.1104 42.8932C37.2908 42.8932 34.0368 36.9642 33.8568 36.6298L33.4904 35.8564L34.0488 34.6812C34.1312 34.522 35.3304 32.2466 37.3884 30.5352C39.0632 32.0828 40.545 33.9568 41.8338 36.1576C41.8836 36.2426 41.95 36.3172 42.0292 36.377C42.1082 36.4368 42.1984 36.4808 42.2948 36.5062C42.391 36.5316 42.4916 36.5382 42.5904 36.5254C42.6892 36.5126 42.7846 36.4808 42.871 36.4316C42.9572 36.3824 43.033 36.3172 43.0938 36.2392C43.1544 36.1612 43.199 36.0724 43.2248 35.9774C43.2506 35.8826 43.2572 35.7836 43.2442 35.6862C43.2312 35.5888 43.1988 35.4948 43.149 35.4098C41.9264 33.289 40.4036 31.3506 38.6266 29.6528C39.6446 29.048 40.8124 28.64 42.1092 28.64C43.986 28.6424 45.7874 29.368 47.1284 30.6618C48.4694 31.9556 49.2434 33.715 49.285 35.5636L50.5514 34.4462L52 35.7282V35.7174C51.9968 33.134 50.9538 30.6572 49.0996 28.8306C47.2452 27.0038 44.7314 25.9764 42.1092 25.9736C39.8908 25.9736 38.002 26.7758 36.471 27.857C35.9288 27.4564 35.3868 27.0984 34.851 26.779L39.392 18.1366H40.9924C41.28 18.1366 41.5558 18.024 41.7592 17.8237C41.9624 17.6233 42.0768 17.3516 42.0768 17.0683C42.0768 16.785 41.9624 16.5132 41.7592 16.3129C41.5558 16.1125 41.28 16 40.9924 16H36.1924C35.9048 16 35.629 16.1125 35.4256 16.3129C35.2224 16.5132 35.108 16.785 35.108 17.0683C35.108 17.3516 35.2224 17.6233 35.4256 17.8237C35.629 18.024 35.9048 18.1366 36.1924 18.1366H37.6788L35.9506 21.4258H26.0836L27.3468 16.0844H22.176L22.0924 16.0897C21.404 16.1645 20.1006 16.767 20.1006 18.5062C20.1006 20.161 21.5546 20.802 22.5316 20.8286C22.6314 20.8318 22.731 20.8154 22.8244 20.7806C22.9178 20.7458 23.0034 20.6932 23.076 20.6256C23.1488 20.5582 23.2074 20.4772 23.2482 20.3874C23.2892 20.2976 23.3116 20.2006 23.3144 20.1022C23.32 19.9046 23.2458 19.7128 23.1082 19.5689C22.9708 19.425 22.781 19.3406 22.5804 19.3341C22.2908 19.3202 21.6186 19.2134 21.6186 18.5062C21.6186 17.799 22.0262 17.6227 22.2388 17.58H25.431L23.4152 26.106C22.9072 26.0182 22.3924 25.9742 21.8766 25.9746C19.5252 25.9776 17.2516 26.8048 15.4622 28.3078C13.6729 29.8108 12.4845 31.892 12.1095 34.1792L13.4312 35.3456L14.9004 34.0488C15.2803 32.5066 16.1747 31.1346 17.4402 30.153C18.7058 29.1712 20.2692 28.6366 21.88 28.6346C22.1884 28.6344 22.4966 28.6576 22.8016 28.7042L21.1578 35.6544C21.1352 35.75 21.1318 35.8492 21.148 35.9462C21.1642 36.0432 21.1996 36.136 21.2524 36.2194C21.305 36.3028 21.3738 36.3752 21.455 36.4324C21.536 36.4896 21.6278 36.5306 21.7248 36.5528C21.7818 36.5656 21.84 36.572 21.8984 36.572C22.0696 36.572 22.2356 36.5148 22.3696 36.4098C22.5038 36.3048 22.5978 36.1584 22.6368 35.9942L24.2632 29.1048C27.7426 30.4934 29.8396 34.4824 29.9394 34.6758L30.4978 35.851L30.1312 36.6234C29.9426 36.9738 26.692 42.8878 21.8778 42.8878C18.0828 42.8878 14.9752 39.934 14.7215 36.2078L13.4367 37.3412L12 36.0742C12.0898 38.5422 13.1177 40.8868 14.8798 42.6432C15.7893 43.566 16.8775 44.2994 18.0799 44.8004C19.2822 45.3014 20.5744 45.5596 21.88 45.5596C27.1354 45.5596 30.6842 40.8592 31.9972 38.7814C33.3092 40.8602 36.858 45.5596 42.1136 45.5596C43.4194 45.56 44.7118 45.3022 45.9146 44.8014C47.1174 44.3006 48.206 43.567 49.1158 42.6442C50.5096 41.2542 51.453 39.4878 51.8266 37.5688L50.5524 36.4482ZM25.7226 22.9118H35.1558L33.5142 26.0356C32.7708 25.6574 32.0042 25.3252 31.2188 25.041C29.3808 24.3644 27.4464 23.9766 25.4862 23.8914L25.7226 22.9118ZM31.9896 32.818C31.0974 31.314 28.674 27.7972 24.8812 26.4756L25.1392 25.3818C26.0066 25.3892 28.1612 25.5164 30.772 26.4704C32.364 27.0524 33.8712 27.8386 35.2544 28.8088C33.9726 29.9794 32.8736 31.3306 31.993 32.818H31.9896Z" fill="white"/>
</svg>
