<svg width="23" height="22" viewBox="0 0 23 22" fill="none" xmlns="http://www.w3.org/2000/svg">
<path d="M21.5508 9.96199L13.6482 2.417C13.3584 2.14913 12.9777 2.00027 12.5825 2.00027C12.1872 2.00027 11.8066 2.14913 11.5168 2.417C11.3768 2.54968 11.265 2.70906 11.1881 2.88566C11.1112 3.06226 11.0707 3.25248 11.0691 3.44499C11.0705 3.63896 11.1109 3.83068 11.1877 4.00889C11.2646 4.18709 11.3765 4.34818 11.5168 4.48266L16.8209 9.54498H1.99854V12.4544H16.8209L11.5168 17.5167C11.3753 17.6482 11.2625 17.8074 11.1854 17.9842C11.1083 18.1611 11.0685 18.3518 11.0685 18.5446C11.0685 18.7375 11.1083 18.9282 11.1854 19.1051C11.2625 19.2819 11.3753 19.441 11.5168 19.5726C11.8032 19.847 12.1851 20.0003 12.5825 20.0003C12.9798 20.0003 13.3617 19.847 13.6482 19.5726L21.5508 12.0373C21.692 11.9035 21.8045 11.7426 21.8814 11.5642C21.9584 11.3859 21.9982 11.1938 21.9985 10.9997C22.0006 10.8052 21.9618 10.6124 21.8847 10.4337C21.8076 10.255 21.6939 10.0943 21.5508 9.96199Z" fill="#000000"/>
</svg>
