<svg width="16" height="17" viewBox="0 0 16 17" fill="none" xmlns="http://www.w3.org/2000/svg">
<path d="M11.1298 3.65546V12.4175H4.8774V3.65546H11.1298ZM11.5205 2.56836H4.48662C4.27935 2.56836 4.08056 2.64472 3.93399 2.78063C3.78742 2.91654 3.70508 3.10088 3.70508 3.2931V12.7799C3.70508 12.9721 3.78742 13.1564 3.93399 13.2924C4.08056 13.4283 4.27935 13.5046 4.48662 13.5046H11.5205C11.7278 13.5046 11.9266 13.4283 12.0732 13.2924C12.2198 13.1564 12.3021 12.9721 12.3021 12.7799V3.2931C12.3021 3.10088 12.2198 2.91654 12.0732 2.78063C11.9266 2.64472 11.7278 2.56836 11.5205 2.56836Z" fill="#454545"/>
<path d="M10.2857 7.53997L7.65188 11.0767C7.61966 11.12 7.5764 11.1552 7.52595 11.1792C7.47549 11.2032 7.41942 11.2153 7.36271 11.2144C7.31572 11.2185 7.26834 11.2124 7.22431 11.1967C7.18028 11.1809 7.14079 11.1559 7.10897 11.1236C7.07715 11.0912 7.05385 11.0525 7.04092 11.0104C7.02799 10.9683 7.02578 10.924 7.03446 10.881L7.68314 8.76478H6.01063C5.96597 8.77265 5.91996 8.7709 5.87614 8.75968C5.83232 8.74846 5.79186 8.72806 5.75788 8.70005C5.72391 8.67205 5.69732 8.63718 5.68016 8.59814C5.66301 8.5591 5.65574 8.51693 5.65894 8.47488L6.3467 5.33677C6.3648 5.26787 6.40829 5.20698 6.46965 5.16464C6.53101 5.1223 6.60638 5.10115 6.68276 5.10486H8.58974C8.63712 5.09912 8.68529 5.10407 8.73017 5.11928C8.77505 5.13449 8.81531 5.15952 8.84753 5.19225C8.87974 5.22497 8.90297 5.26442 8.91524 5.30724C8.92751 5.35007 8.92845 5.395 8.91799 5.43824L8.34746 7.14862H9.97307C10.2544 7.13412 10.4186 7.35879 10.2857 7.53997Z" fill="#454545"/>
<path d="M9.72329 1.22754H6.27666C5.84503 1.22754 5.49512 1.55201 5.49512 1.95228V2.61903C5.49512 3.01929 5.84503 3.34377 6.27666 3.34377H9.72329C10.1549 3.34377 10.5048 3.01929 10.5048 2.61903V1.95228C10.5048 1.55201 10.1549 1.22754 9.72329 1.22754Z" fill="#454545"/>
</svg>
