<svg width="33" height="32" viewBox="0 0 33 32" fill="none" xmlns="http://www.w3.org/2000/svg">
<path d="M31.1806 5.71459H28.437C28.263 4.67896 27.7313 3.73841 26.9354 3.05881C26.1396 2.37922 25.1309 2.00424 24.0871 2C23.0434 2.00424 22.0347 2.37922 21.2388 3.05881C20.443 3.73841 19.9112 4.67896 19.7373 5.71459H2.80679C2.60834 5.71459 2.41802 5.79392 2.2777 5.93513C2.13737 6.07634 2.05854 6.26785 2.05854 6.46755C2.0572 6.5668 2.07564 6.66532 2.11276 6.75729C2.14989 6.84925 2.20496 6.93279 2.27471 7.00298C2.34446 7.07317 2.42748 7.12858 2.51887 7.16594C2.61026 7.20331 2.70816 7.22186 2.80679 7.22051H19.7672C19.9412 8.25614 20.4729 9.19669 21.2688 9.87629C22.0646 10.5559 23.0733 10.9309 24.1171 10.9351C25.1608 10.9309 26.1696 10.5559 26.9654 9.87629C27.7612 9.19669 28.293 8.25614 28.4669 7.22051H31.2105C31.3092 7.22186 31.4071 7.20331 31.4984 7.16594C31.5898 7.12858 31.6729 7.07317 31.7426 7.00298C31.8124 6.93279 31.8674 6.84925 31.9045 6.75729C31.9417 6.66532 31.9601 6.5668 31.9588 6.46755C31.9589 6.36608 31.9386 6.26565 31.8991 6.17227C31.8596 6.0789 31.8018 5.99452 31.7291 5.92419C31.6565 5.85386 31.5704 5.79904 31.4761 5.76303C31.3819 5.72701 31.2813 5.71053 31.1806 5.71459ZM24.0871 9.42919C23.3038 9.41342 22.5578 9.08915 22.0093 8.52602C21.4609 7.96289 21.1538 7.20581 21.154 6.41735C21.1667 5.63762 21.4796 4.89326 22.0266 4.34089C22.5737 3.78852 23.3123 3.47121 24.0871 3.45572C24.862 3.47121 25.6006 3.78852 26.1477 4.34089C26.6947 4.89326 27.0075 5.63762 27.0203 6.41735C27.0205 7.20581 26.7133 7.96289 26.1649 8.52602C25.6165 9.08915 24.8705 9.41342 24.0871 9.42919Z" fill="#000000"/>
<path d="M30.2429 14.2381H15.2778C14.9377 13.4347 14.3707 12.7496 13.647 12.2677C12.9234 11.7858 12.075 11.5284 11.2073 11.5274C10.3406 11.5278 9.49332 11.785 8.77115 12.2671C8.04898 12.7492 7.48398 13.4347 7.14674 14.2381H3.74468C3.28684 14.246 2.85041 14.4346 2.52943 14.7632C2.20845 15.0918 2.02862 15.5342 2.02869 15.995C2.02869 16.4609 2.21263 16.9078 2.54006 17.2373C2.86748 17.5668 3.31156 17.7519 3.77461 17.7519H7.15672C7.49396 18.5552 8.05896 19.2408 8.78113 19.7229C9.50329 20.2049 10.3506 20.4622 11.2172 20.4625C12.085 20.4616 12.9333 20.2042 13.657 19.7223C14.3806 19.2404 14.9477 18.5552 15.2877 17.7519H30.2528C30.7089 17.7414 31.1428 17.5517 31.4617 17.2233C31.7805 16.895 31.959 16.4541 31.9589 15.995C31.9589 15.5342 31.7791 15.0918 31.4581 14.7632C31.1371 14.4346 30.7007 14.246 30.2429 14.2381ZM11.2172 18.9566C10.8321 18.9553 10.4509 18.8777 10.0955 18.7281C9.74017 18.5786 9.41755 18.36 9.14611 18.085C8.87467 17.81 8.65971 17.4839 8.51352 17.1253C8.36732 16.7667 8.29276 16.3826 8.29407 15.995C8.29276 15.6074 8.36732 15.2233 8.51352 14.8647C8.65971 14.5061 8.87467 14.18 9.14611 13.9049C9.41755 13.6299 9.74017 13.4114 10.0955 13.2619C10.4509 13.1123 10.8321 13.0347 11.2172 13.0334C11.9921 13.0488 12.7307 13.3662 13.2778 13.9185C13.8248 14.4709 14.1376 15.2152 14.1504 15.995C14.1376 16.7747 13.8248 17.5191 13.2778 18.0715C12.7307 18.6238 11.9921 18.9411 11.2172 18.9566Z" fill="#000000"/>
<path d="M31.1806 24.7293H24.566C24.3858 23.6992 23.8513 22.7657 23.0561 22.0921C22.2609 21.4185 21.2556 21.0478 20.2162 21.0448C19.1768 21.0478 18.1715 21.4185 17.3763 22.0921C16.5811 22.7657 16.0466 23.6992 15.8663 24.7293H2.80679C2.70816 24.728 2.61026 24.7465 2.51887 24.7839C2.42748 24.8212 2.34446 24.8766 2.27471 24.9468C2.20496 25.017 2.14989 25.1006 2.11276 25.1925C2.07564 25.2845 2.0572 25.383 2.05854 25.4823C2.05854 25.682 2.13737 25.8735 2.2777 26.0147C2.41802 26.1559 2.60834 26.2352 2.80679 26.2352H15.8663C16.032 27.2772 16.5605 28.226 17.3574 28.912C18.1542 29.598 19.1675 29.9765 20.2162 29.9799C21.2648 29.9765 22.2781 29.598 23.075 28.912C23.8718 28.226 24.4003 27.2772 24.566 26.2352H31.1806C31.379 26.2352 31.5694 26.1559 31.7097 26.0147C31.85 25.8735 31.9288 25.682 31.9288 25.4823C31.9302 25.383 31.9117 25.2845 31.8746 25.1925C31.8375 25.1006 31.7824 25.017 31.7127 24.9468C31.6429 24.8766 31.5599 24.8212 31.4685 24.7839C31.3771 24.7465 31.2792 24.728 31.1806 24.7293ZM20.2062 28.474C19.4314 28.4585 18.6927 28.1412 18.1457 27.5888C17.5986 27.0365 17.2858 26.2921 17.273 25.5124C17.2729 24.7239 17.58 23.9668 18.1284 23.4037C18.6768 22.8406 19.4228 22.5163 20.2062 22.5005C20.9896 22.5163 21.7356 22.8406 22.284 23.4037C22.8324 23.9668 23.1395 24.7239 23.1394 25.5124C23.1318 26.2939 22.8226 27.0419 22.2772 27.5983C21.7317 28.1547 20.9927 28.4759 20.2162 28.4941L20.2062 28.474Z" fill="#000000"/>
</svg>
