<svg width="21" height="20" viewBox="0 0 21 20" fill="none" xmlns="http://www.w3.org/2000/svg">
<path d="M10.9418 15.9406C10.7204 15.9403 10.5018 15.892 10.3012 15.7989C10.1006 15.7057 9.92272 15.5701 9.78003 15.4015L2.30895 6.41581C2.0564 6.10841 1.93486 5.71452 1.97044 5.31876C2.00602 4.92299 2.19587 4.55693 2.49923 4.29919C2.80615 4.04665 3.20105 3.92584 3.59723 3.96327C3.99341 4.00071 4.35851 4.19334 4.61237 4.49887L10.9418 12.0968L17.2611 4.53881C17.3835 4.37641 17.5378 4.24053 17.7145 4.13944C17.8912 4.03835 18.0867 3.97415 18.2891 3.95076C18.4915 3.92737 18.6966 3.94527 18.8918 4.00337C19.0871 4.06147 19.2684 4.15856 19.4248 4.28873C19.5812 4.4189 19.7094 4.57944 19.8017 4.76057C19.8939 4.94169 19.9482 5.13963 19.9613 5.34234C19.9743 5.54505 19.9459 5.74829 19.8777 5.9397C19.8095 6.13111 19.7029 6.30669 19.5645 6.45575L12.0935 15.4414C11.9482 15.6015 11.7703 15.7289 11.5716 15.8149C11.373 15.901 11.1583 15.9439 10.9418 15.9406Z" fill="#000000"/>
</svg>
