<svg width="21" height="20" viewBox="0 0 21 20" fill="none" xmlns="http://www.w3.org/2000/svg">
<path d="M4.99871 9.9774C4.99898 9.75608 5.04736 9.53749 5.14048 9.33686C5.23359 9.13622 5.3692 8.95836 5.53785 8.81567L14.5235 1.34459C14.8309 1.09204 15.2248 0.970502 15.6206 1.00608C16.0163 1.04166 16.3824 1.23152 16.6401 1.53488C16.8927 1.8418 17.0135 2.23669 16.9761 2.63287C16.9386 3.02906 16.746 3.39415 16.4405 3.64801L8.84258 9.9774L16.4005 16.2968C16.5629 16.4192 16.6988 16.5734 16.7999 16.7501C16.901 16.9269 16.9652 17.1224 16.9886 17.3248C17.012 17.5272 16.9941 17.7322 16.936 17.9275C16.8779 18.1227 16.7808 18.304 16.6506 18.4605C16.5204 18.6169 16.3599 18.7451 16.1788 18.8373C15.9976 18.9295 15.7997 18.9838 15.597 18.9969C15.3943 19.01 15.191 18.9815 14.9996 18.9133C14.8082 18.8451 14.6326 18.7386 14.4836 18.6002L5.49791 11.1291C5.33782 10.9838 5.21047 10.8059 5.12439 10.6073C5.0383 10.4087 4.99545 10.1939 4.99871 9.9774Z" fill="#000000"/>
</svg>
