<svg width="21" height="20" viewBox="0 0 21 20" fill="none" xmlns="http://www.w3.org/2000/svg">
<g clip-path="url(#clip0_3413_1896)">
<path d="M16.939 10.0568C16.9388 10.2781 16.8904 10.4967 16.7973 10.6973C16.7042 10.898 16.5685 11.0758 16.3999 11.2185L7.41423 18.6896C7.10682 18.9421 6.71293 19.0637 6.31717 19.0281C5.92141 18.9925 5.55534 18.8027 5.2976 18.4993C5.04506 18.1924 4.92425 17.7975 4.96169 17.4013C4.99912 17.0051 5.19175 16.64 5.49729 16.3862L13.0952 10.0568L5.53722 3.73741C5.37482 3.61502 5.23895 3.46077 5.13785 3.28404C5.03676 3.10732 4.97257 2.91181 4.94917 2.70941C4.92578 2.50702 4.94368 2.30196 5.00178 2.10672C5.05988 1.91148 5.15697 1.73013 5.28714 1.57372C5.41731 1.4173 5.57785 1.28909 5.75898 1.19686C5.94011 1.10464 6.13805 1.05034 6.34075 1.03728C6.54346 1.02421 6.7467 1.05264 6.93811 1.12084C7.12952 1.18904 7.3051 1.29559 7.45416 1.434L16.4398 8.90508C16.5999 9.05038 16.7273 9.22828 16.8134 9.42689C16.8994 9.62549 16.9423 9.84024 16.939 10.0568Z" fill="#000000"/>
</g>
<defs>
<clipPath id="clip0_3413_1896">
<rect width="20" height="20" fill="white" transform="translate(0.998535 20) rotate(-90)"/>
</clipPath>
</defs>
</svg>
