<svg width="18" height="31" viewBox="0 0 18 31" fill="none" xmlns="http://www.w3.org/2000/svg">
<path d="M18.0009 15.0083C18.0035 15.2243 17.9603 15.4385 17.8742 15.6367C17.788 15.8348 17.6609 16.0125 17.5011 16.1579L2.32923 29.6537C2.18923 29.7806 2.02432 29.8769 1.84502 29.9365C1.66572 29.9961 1.47597 30.0176 1.28788 29.9998C1.09978 29.9819 0.917482 29.925 0.752606 29.8327C0.58773 29.7404 0.443903 29.6148 0.3303 29.4637C0.0888251 29.1524 -0.0267244 28.7616 0.00660526 28.369C0.0399349 27.9763 0.219705 27.6106 0.510204 27.3444L14.3928 15.0083L0.520196 2.67214C0.229697 2.40597 0.0499268 2.04024 0.0165971 1.6476C-0.0167326 1.25496 0.0988169 0.864153 0.340292 0.552803C0.452936 0.400505 0.596376 0.273632 0.761278 0.180441C0.926181 0.0872478 1.10885 0.0298271 1.29741 0.0119094C1.48596 -0.00600631 1.67617 0.0159835 1.85567 0.0764503C2.03517 0.136915 2.19992 0.234503 2.33922 0.362863L17.5011 13.8486C17.6607 13.9964 17.7875 14.1759 17.8736 14.3756C17.9597 14.5753 18.003 14.7908 18.0009 15.0083Z" fill="#C4C4C4"/>
</svg>
