<svg width="21" height="20" viewBox="0 0 21 20" fill="none" xmlns="http://www.w3.org/2000/svg">
<g clip-path="url(#clip0_3413_1933)">
<path d="M11.0553 4.0595C11.2766 4.05977 11.4952 4.10815 11.6959 4.20127C11.8965 4.29438 12.0744 4.42999 12.217 4.59864L19.6881 13.5843C19.9407 13.8917 20.0622 14.2856 20.0266 14.6814C19.9911 15.0771 19.8012 15.4432 19.4978 15.7009C19.1909 15.9535 18.796 16.0743 18.3998 16.0368C18.0037 15.9994 17.6386 15.8068 17.3847 15.5012L11.0553 7.90337L4.73595 15.4613C4.61356 15.6237 4.45931 15.7596 4.28258 15.8607C4.10585 15.9618 3.91034 16.026 3.70795 16.0494C3.50555 16.0728 3.30049 16.0549 3.10525 15.9968C2.91001 15.9387 2.72867 15.8416 2.57225 15.7114C2.41584 15.5812 2.28762 15.4207 2.1954 15.2396C2.10318 15.0584 2.04888 14.8605 2.03581 14.6578C2.02274 14.4551 2.05117 14.2518 2.11937 14.0604C2.18757 13.869 2.29412 13.6934 2.43253 13.5444L9.90361 4.5587C10.0489 4.39861 10.2268 4.27126 10.4254 4.18518C10.624 4.09909 10.8388 4.05625 11.0553 4.0595Z" fill="#000000"/>
</g>
<defs>
<clipPath id="clip0_3413_1933">
<rect width="20" height="20" fill="white" transform="translate(20.9985 20) rotate(-180)"/>
</clipPath>
</defs>
</svg>
