<svg width="33" height="32" viewBox="0 0 33 32" fill="none" xmlns="http://www.w3.org/2000/svg">
<path d="M16.9987 1C14.0319 1 11.1318 1.87973 8.66511 3.52795C6.19837 5.17618 4.27579 7.51884 3.14047 10.2597C2.00516 13.0006 1.70811 16.0166 2.28688 18.9264C2.86566 21.8361 4.29427 24.5088 6.39206 26.6066C8.48985 28.7044 11.1626 30.133 14.0723 30.7118C16.982 31.2906 19.998 30.9935 22.7389 29.8582C25.4798 28.7229 27.8225 26.8003 29.4707 24.3336C31.1189 21.8668 31.9987 18.9667 31.9987 16C31.9987 14.0302 31.6107 12.0796 30.8569 10.2597C30.103 8.43985 28.9981 6.78628 27.6053 5.3934C26.2124 4.00052 24.5588 2.89564 22.7389 2.14182C20.919 1.38799 18.9685 1 16.9987 1ZM16.9987 29.5C14.3286 29.5 11.7185 28.7082 9.49847 27.2248C7.2784 25.7414 5.54807 23.633 4.52629 21.1662C3.50451 18.6994 3.23716 15.985 3.75806 13.3663C4.27896 10.7475 5.56471 8.34208 7.45272 6.45407C9.34073 4.56606 11.7462 3.2803 14.3649 2.7594C16.9837 2.2385 19.6981 2.50584 22.1649 3.52762C24.6317 4.5494 26.7401 6.27972 28.2235 8.49979C29.7069 10.7199 30.4987 13.33 30.4987 16C30.4934 19.5788 29.0694 23.0095 26.5388 25.5401C24.0082 28.0707 20.5775 29.4947 16.9987 29.5Z" fill="#000000"/>
<path d="M17.7487 16.62V9.06C17.7487 8.86109 17.6696 8.67032 17.529 8.52966C17.3883 8.38901 17.1976 8.31 16.9987 8.31C16.7997 8.31 16.609 8.38901 16.4683 8.52966C16.3277 8.67032 16.2487 8.86109 16.2487 9.06V16.87C16.255 17.0126 16.3 17.1509 16.3787 17.27C16.4182 17.3697 16.4758 17.4613 16.5487 17.54L21.0487 22.04C21.1917 22.1758 21.3814 22.2514 21.5787 22.2514C21.7759 22.2514 21.9656 22.1758 22.1087 22.04C22.2474 21.8964 22.3249 21.7046 22.3249 21.505C22.3249 21.3054 22.2474 21.1136 22.1087 20.97L17.7487 16.62Z" fill="#000000"/>
</svg>
