<svg width="22" height="23" viewBox="0 0 22 23" fill="none" xmlns="http://www.w3.org/2000/svg">
  <path
    d="M12.0655 10.9988L20.7755 2.29878C20.8458 2.22787 20.9014 2.14381 20.9392 2.05141C20.9769 1.95901 20.9961 1.86007 20.9957 1.76025C20.9952 1.66042 20.9751 1.56167 20.9365 1.46962C20.8978 1.37757 20.8415 1.29404 20.7705 1.22378C20.6996 1.15352 20.6156 1.09792 20.5232 1.06015C20.4308 1.02238 20.3318 1.00318 20.232 1.00364C20.1322 1.00411 20.0334 1.02423 19.9414 1.06286C19.8493 1.10149 19.7658 1.15787 19.6955 1.22878L10.9955 9.92878L2.29555 1.22878C2.22488 1.15743 2.14077 1.10079 2.04809 1.06213C1.9554 1.02347 1.85597 1.00357 1.75555 1.00357C1.65512 1.00357 1.55569 1.02347 1.46301 1.06213C1.37032 1.10079 1.28621 1.15743 1.21555 1.22878C1.07685 1.37235 0.999329 1.56416 0.999329 1.76378C0.999329 1.9634 1.07685 2.15522 1.21555 2.29878L9.92555 10.9988L1.21555 19.7088C1.07685 19.8523 0.999329 20.0442 0.999329 20.2438C0.999329 20.4434 1.07685 20.6352 1.21555 20.7788C1.28631 20.8496 1.37055 20.9056 1.46329 20.9434C1.55604 20.9812 1.65541 21 1.75555 20.9988C1.85561 20.9995 1.95482 20.9804 2.04748 20.9426C2.14015 20.9049 2.22445 20.8492 2.29555 20.7788L10.9955 12.1088L19.6955 20.8088C19.7666 20.8792 19.8509 20.9349 19.9436 20.9726C20.0363 21.0104 20.1355 21.0295 20.2355 21.0288C20.3357 21.03 20.4351 21.0112 20.5278 20.9734C20.6205 20.9356 20.7048 20.8796 20.7755 20.8088C20.9142 20.6652 20.9918 20.4734 20.9918 20.2738C20.9918 20.0742 20.9142 19.8823 20.7755 19.7388L12.0655 10.9988Z"
    fill="#000000" />
</svg>