<svg width="33" height="32" viewBox="0 0 33 32" fill="none" xmlns="http://www.w3.org/2000/svg">
<g clip-path="url(#clip0_3382_1913)">
<path d="M16.9987 12.4219C16.0876 12.4246 15.2145 12.7877 14.5702 13.432C13.926 14.0762 13.5628 14.9493 13.5602 15.8605C13.5602 16.312 13.6491 16.7592 13.8219 17.1763C13.9947 17.5935 14.248 17.9726 14.5673 18.2919C14.8866 18.6112 15.2657 18.8645 15.6829 19.0373C16.1 19.2101 16.5472 19.299 16.9987 19.299C17.4507 19.3003 17.8984 19.2123 18.3162 19.0399C18.734 18.8676 19.1135 18.6144 19.4331 18.2948C19.7526 17.9753 20.0059 17.5957 20.1782 17.1779C20.3505 16.7601 20.4386 16.3124 20.4373 15.8605C20.4373 14.9485 20.075 14.0739 19.4301 13.4291C18.7853 12.7842 17.9107 12.4219 16.9987 12.4219Z" fill="#000000"/>
<path d="M31.2511 15.2625H27.7428C27.5929 12.6517 26.4994 10.1843 24.6659 8.31968C22.8325 6.45503 20.3839 5.32013 17.776 5.12625V1.74751C17.776 1.54926 17.6973 1.35912 17.5571 1.21894C17.4169 1.07875 17.2267 1 17.0285 1C16.831 1.00258 16.6424 1.08217 16.5028 1.22179C16.3632 1.36142 16.2836 1.55006 16.281 1.74751V5.12625C13.6724 5.31806 11.2226 6.4523 9.38874 8.31737C7.55484 10.1824 6.46203 12.651 6.31421 15.2625H2.79597C2.59772 15.2625 2.40758 15.3412 2.2674 15.4814C2.12721 15.6216 2.04846 15.8117 2.04846 16.01C2.05104 16.2074 2.13063 16.396 2.27026 16.5357C2.40989 16.6753 2.59852 16.7549 2.79597 16.7575H6.32419C6.5409 19.3158 7.66411 21.7126 9.49143 23.5162C11.3187 25.3197 13.73 26.4115 16.291 26.5947V30.2625C16.2935 30.4599 16.3731 30.6485 16.5128 30.7882C16.6524 30.9278 16.841 31.0074 17.0385 31.01C17.2367 31.01 17.4269 30.9312 17.567 30.791C17.7072 30.6508 17.786 30.4607 17.786 30.2625V26.5947C20.3469 26.4115 22.7583 25.3197 24.5856 23.5162C26.4129 21.7126 27.536 19.3158 27.7528 16.7575H31.281C31.4793 16.7575 31.6694 16.6787 31.8096 16.5385C31.9498 16.3983 32.0285 16.2082 32.0285 16.01C32.0301 15.9088 32.0107 15.8085 31.9718 15.7151C31.9329 15.6217 31.8752 15.5374 31.8022 15.4673C31.7293 15.3972 31.6428 15.3428 31.548 15.3076C31.4532 15.2723 31.3521 15.257 31.2511 15.2625ZM16.9986 25.1296C14.5402 25.1243 12.1841 24.1447 10.4467 22.4054C8.70924 20.6661 7.73217 18.3089 7.72954 15.8505C7.73218 13.393 8.70956 11.0369 10.4473 9.29916C12.185 7.56144 14.5411 6.58403 16.9986 6.58139C19.4571 6.58403 21.8142 7.56112 23.5535 9.29856C25.2928 11.036 26.2724 13.3921 26.2777 15.8505C26.2724 18.3098 25.2931 20.667 23.5541 22.406C21.8151 24.145 19.458 25.1243 16.9986 25.1296Z" fill="#000000"/>
</g>
<defs>
<clipPath id="clip0_3382_1913">
<rect width="32" height="32" fill="white" transform="translate(0.998657)"/>
</clipPath>
</defs>
</svg>
