<svg width="32" height="32" viewBox="0 0 32 32" fill="none" xmlns="http://www.w3.org/2000/svg">
<path d="M23.0006 3.53C23.8373 3.52871 24.665 3.70243 25.4306 4.04C26.236 4.39752 26.9606 4.9146 27.5606 5.56C27.9909 5.98296 28.355 6.46842 28.6406 7C28.9252 7.53016 29.1403 8.09482 29.2806 8.68C29.4403 9.31053 29.5143 9.95971 29.5006 10.61C29.5112 11.82 29.208 13.0121 28.6206 14.07C28.3397 14.6028 27.9863 15.0942 27.5706 15.53L16.0006 27.84L4.42058 15.55C4.00953 15.1116 3.65356 14.6247 3.36058 14.1C3.08128 13.5628 2.86324 12.9959 2.71058 12.41C2.56942 11.8205 2.49892 11.2162 2.50058 10.61C2.48967 9.96314 2.56363 9.31763 2.72058 8.69C2.99677 7.50526 3.58753 6.41701 4.43058 5.54C5.02027 4.89108 5.73442 4.36737 6.53058 4C7.31209 3.67266 8.15347 3.51256 9.00058 3.53C9.82436 3.52024 10.6413 3.68023 11.4006 4C12.1424 4.32283 12.8199 4.77676 13.4006 5.34V5.4C13.4278 5.43577 13.4579 5.46922 13.4906 5.5L14.9106 7C15.0508 7.14829 15.2198 7.26641 15.4072 7.34715C15.5946 7.42788 15.7965 7.46951 16.0006 7.46951C16.2046 7.46951 16.4066 7.42788 16.594 7.34715C16.7814 7.26641 16.9504 7.14829 17.0906 7L18.4806 5.52C18.5159 5.49185 18.5463 5.45806 18.5706 5.42L18.6206 5.36C19.2037 4.79975 19.8806 4.3462 20.6206 4.02C21.3731 3.69897 22.1824 3.53234 23.0006 3.53ZM23.0006 2C21.9671 2.0035 20.9455 2.22143 20.0006 2.64C19.077 3.05562 18.234 3.63113 17.5106 4.34L17.4006 4.48L16.0006 6L14.6106 4.52L14.5006 4.38C13.775 3.66659 12.9285 3.08761 12.0006 2.67C11.0427 2.24796 10.0074 2.03 8.96058 2.03C7.91381 2.03 6.8785 2.24796 5.92058 2.67C4.94292 3.10401 4.06222 3.72968 3.33058 4.51C2.30488 5.57842 1.58931 6.90586 1.26058 8.35C1.0793 9.09621 0.991962 9.86214 1.00058 10.63C1.00196 11.3511 1.08924 12.0695 1.26058 12.77C1.44235 13.4631 1.7006 14.1339 2.03058 14.77C2.38789 15.4239 2.8282 16.0289 3.34058 16.57L16.0006 30L28.6606 16.59C29.193 16.0588 29.6445 15.4524 30.0006 14.79C30.6803 13.5102 31.0243 12.0789 31.0006 10.63C31.0092 9.86214 30.9219 9.09621 30.7406 8.35C30.5651 7.6519 30.2995 6.97959 29.9506 6.35C29.6188 5.68535 29.1834 5.07775 28.6606 4.55C27.9289 3.76968 27.0482 3.14401 26.0706 2.71C25.109 2.2589 24.0626 2.0169 23.0006 2Z" fill="#000000"/>
<path d="M24.5504 13.1C24.4044 13.0974 24.2623 13.0529 24.141 12.9717C24.0197 12.8905 23.9243 12.7761 23.8663 12.6421C23.8083 12.5082 23.7901 12.3604 23.8139 12.2163C23.8377 12.0723 23.9024 11.9382 24.0004 11.83C24.3004 11.5004 24.4667 11.0707 24.4667 10.625C24.4667 10.1793 24.3004 9.74958 24.0004 9.41998C23.8613 9.2751 23.6944 9.15982 23.5097 9.08107C23.325 9.00231 23.1262 8.96172 22.9254 8.96172C22.7246 8.96172 22.5258 9.00231 22.3411 9.08107C22.1563 9.15982 21.9894 9.2751 21.8504 9.41998C21.7098 9.56043 21.5191 9.63932 21.3204 9.63932C21.1216 9.63932 20.931 9.56043 20.7904 9.41998C20.6499 9.27936 20.571 9.08873 20.571 8.88998C20.571 8.69123 20.6499 8.50061 20.7904 8.35999C21.0704 8.06809 21.4065 7.83583 21.7786 7.67716C22.1506 7.5185 22.5509 7.43671 22.9554 7.43671C23.3599 7.43671 23.7602 7.5185 24.1322 7.67716C24.5043 7.83583 24.8404 8.06809 25.1204 8.35999C25.679 8.97026 25.9889 9.76762 25.9889 10.595C25.9889 11.4223 25.679 12.2197 25.1204 12.83C25.0507 12.9137 24.9636 12.9812 24.8651 13.0278C24.7667 13.0744 24.6593 13.0991 24.5504 13.1Z" fill="#000000"/>
</svg>
