<svg width="16" height="17" viewBox="0 0 16 17" fill="none" xmlns="http://www.w3.org/2000/svg">
<path d="M7.33301 4.50033H5.99967V3.16699H7.33301V4.50033ZM9.99967 3.16699H8.66634V4.50033H9.99967V3.16699ZM5.99967 9.83366H7.33301V8.50033H5.99967V9.83366ZM12.6663 7.16699V5.83366H11.333V7.16699H12.6663ZM12.6663 9.83366V8.50033H11.333V9.83366H12.6663ZM8.66634 9.83366H9.99967V8.50033H8.66634V9.83366ZM12.6663 3.16699H11.333V4.50033H12.6663V3.16699ZM8.66634 5.83366V4.50033H7.33301V5.83366H8.66634ZM4.66634 7.16699V5.83366H5.99967V4.50033H4.66634V3.16699H3.33301V13.8337H4.66634V8.50033H5.99967V7.16699H4.66634ZM9.99967 8.50033H11.333V7.16699H9.99967V8.50033ZM7.33301 7.16699V8.50033H8.66634V7.16699H7.33301ZM5.99967 5.83366V7.16699H7.33301V5.83366H5.99967ZM8.66634 7.16699H9.99967V5.83366H8.66634V7.16699ZM9.99967 4.50033V5.83366H11.333V4.50033H9.99967Z" fill="#454545"/>
</svg>
