<svg width="24" height="28" viewBox="0 0 24 28" fill="none" xmlns="http://www.w3.org/2000/svg">
<path fill-rule="evenodd" clip-rule="evenodd" d="M23.2145 8.11983C23.28 8.05171 23.3319 7.97079 23.3673 7.8817C23.4028 7.79261 23.421 7.6971 23.421 7.60065C23.421 7.50419 23.4028 7.40869 23.3673 7.3196C23.3319 7.23051 23.28 7.14959 23.2145 7.08147L17.5908 1.21505C17.4588 1.07736 17.2798 1 17.0931 1C16.9064 1 16.7274 1.07736 16.5954 1.21505C16.4634 1.35275 16.3893 1.5395 16.3893 1.73423C16.3893 1.92896 16.4634 2.11571 16.5954 2.25341L21.0199 6.86735H7.25163C6.31944 6.86735 5.42544 7.25364 4.76628 7.94124C4.10713 8.62885 3.73682 9.56144 3.73682 10.5339V22.2667C3.73682 22.4612 3.81088 22.6477 3.94271 22.7852C4.07454 22.9227 4.25334 23 4.43978 23C4.62622 23 4.80502 22.9227 4.93685 22.7852C5.06868 22.6477 5.14274 22.4612 5.14274 22.2667V10.5339C5.14274 9.95041 5.36493 9.39085 5.76042 8.97829C6.15591 8.56573 6.69232 8.33395 7.25163 8.33395H21.0199L16.5954 12.9479C16.4634 13.0856 16.3893 13.2723 16.3893 13.4671C16.3893 13.6618 16.4634 13.8486 16.5954 13.9862C16.7274 14.1239 16.9064 14.2013 17.0931 14.2013C17.2798 14.2013 17.4588 14.1239 17.5908 13.9862L23.2145 8.11983Z" fill="#000000" stroke="#000000"/>
<circle cx="4.5" cy="22.921" r="3.5" fill="white" stroke="#000000" stroke-width="2"/>
</svg>
