<svg width="16" height="17" viewBox="0 0 16 17" fill="none" xmlns="http://www.w3.org/2000/svg">
<path d="M14.6407 7.98033C14.3807 5.17366 11.8407 3.16699 9.04065 3.16699C8.91398 3.16699 8.78732 3.17366 8.66065 3.18033C1.33398 3.66033 1.33398 11.967 1.33398 11.967V12.5003C1.33398 13.2337 1.93398 13.8337 2.66732 13.8337H9.33398C12.4473 13.8337 14.9407 11.1603 14.6407 7.98033ZM3.50732 8.20699C3.88732 7.34699 4.36065 6.64033 4.93398 6.08033L7.34732 7.10033C7.74732 7.26699 8.00065 7.65366 8.00065 8.08699C8.00065 8.68033 7.52065 9.16033 6.92732 9.16033H3.14732C3.24732 8.85366 3.36065 8.53366 3.50732 8.20699ZM12.294 11.1937C11.534 12.027 10.454 12.5003 9.33398 12.5003H2.66732V11.967C2.66732 11.9537 2.67398 11.3537 2.82732 10.5003H6.92732C8.25398 10.5003 9.33398 9.42033 9.33398 8.09366C9.33398 7.12699 8.75398 6.25366 7.86732 5.88033L6.20065 5.17366C6.93398 4.79366 7.78065 4.57366 8.74732 4.51366C8.84732 4.50033 8.94732 4.50033 9.04065 4.50033C11.2473 4.50033 13.1273 6.08033 13.314 8.10699C13.4207 9.25366 13.0607 10.347 12.294 11.1937Z" fill="#454545"/>
</svg>
