<svg width="33" height="32" viewBox="0 0 33 32" fill="none" xmlns="http://www.w3.org/2000/svg">
<path d="M19.0396 3C15.6997 3.03158 12.501 4.35502 10.1107 6.69424C7.72035 9.03347 6.32299 12.2078 6.21009 15.5552H2.56161C2.00337 15.5552 1.83391 15.905 2.17284 16.3449L3.62824 18.2241L4.86434 19.8135L6.31974 21.7028C6.38864 21.8018 6.48036 21.8826 6.58709 21.9384C6.69383 21.9943 6.81243 22.0234 6.93281 22.0234C7.05318 22.0234 7.17178 21.9943 7.27852 21.9384C7.38525 21.8826 7.47697 21.8018 7.54587 21.7028L9.00127 19.8135L10.2374 18.2241L11.6928 16.3449C12.0317 15.905 11.8523 15.5552 11.304 15.5552H7.70537C7.81076 13.3285 8.56567 11.1818 9.87648 9.38142C11.1873 7.581 12.9963 6.20605 15.0792 5.42709C17.1621 4.64814 19.4272 4.49945 21.5935 4.99946C23.7599 5.49947 25.7322 6.62619 27.2659 8.23988C28.7996 9.85357 29.8272 11.8832 30.2212 14.0771C30.6151 16.271 30.3582 18.5326 29.4822 20.5814C28.6063 22.6302 27.1498 24.3761 25.2935 25.6025C23.4371 26.829 21.2626 27.482 19.0396 27.4806C17.4374 27.4864 15.8529 27.1454 14.3942 26.481C14.3034 26.4397 14.2053 26.417 14.1057 26.4144C14.006 26.4117 13.9068 26.429 13.8139 26.4653C13.721 26.5016 13.6363 26.5562 13.5648 26.6259C13.4933 26.6955 13.4364 26.7788 13.3974 26.8708C13.319 27.0542 13.3148 27.2609 13.3854 27.4474C13.4561 27.6338 13.5962 27.7855 13.7762 27.8704C15.4308 28.6174 17.225 29.0024 19.0396 29C22.4765 29 25.7727 27.6309 28.203 25.1938C30.6333 22.7568 31.9987 19.4515 31.9987 16.005C31.9987 12.5585 30.6333 9.25318 28.203 6.81614C25.7727 4.37911 22.4765 3.00999 19.0396 3.00999V3Z" fill="#000000"/>
<path d="M17.5243 16.6947L22.08 21.293C22.1479 21.3645 22.23 21.421 22.321 21.4588C22.412 21.4967 22.5098 21.5151 22.6083 21.5129C22.7065 21.5133 22.8039 21.4941 22.8946 21.4564C22.9853 21.4186 23.0676 21.3631 23.1366 21.293C23.2749 21.1495 23.3522 20.9577 23.3522 20.7582C23.3522 20.5586 23.2749 20.3669 23.1366 20.2234L18.8003 15.8451V8.70781C18.8003 8.50897 18.7215 8.31828 18.5813 8.17768C18.4411 8.03709 18.251 7.9581 18.0527 7.9581C17.8544 7.9581 17.6642 8.03709 17.524 8.17768C17.3838 8.31828 17.305 8.50897 17.305 8.70781V15.975C17.3004 16.0048 17.3004 16.0352 17.305 16.065C17.2906 16.1798 17.3029 16.2964 17.341 16.4057C17.379 16.5149 17.4418 16.6139 17.5243 16.6947Z" fill="#000000"/>
</svg>
