<svg width="33" height="32" viewBox="0 0 33 32" fill="none" xmlns="http://www.w3.org/2000/svg">
<path d="M11.9787 29.68H2.74866C2.54974 29.68 2.35898 29.601 2.21833 29.4603C2.07767 29.3197 1.99866 29.1289 1.99866 28.93C1.99866 28.7311 2.07767 28.5403 2.21833 28.3997C2.35898 28.259 2.54974 28.18 2.74866 28.18H11.9787C12.1776 28.18 12.3683 28.259 12.509 28.3997C12.6496 28.5403 12.7287 28.7311 12.7287 28.93C12.7287 29.1289 12.6496 29.3197 12.509 29.4603C12.3683 29.601 12.1776 29.68 11.9787 29.68Z" fill="#000000"/>
<path d="M31.2086 29.68H21.9786C21.7797 29.68 21.589 29.601 21.4483 29.4603C21.3077 29.3197 21.2286 29.1289 21.2286 28.93C21.2286 28.7311 21.3077 28.5403 21.4483 28.3997C21.589 28.259 21.7797 28.18 21.9786 28.18H31.2186C31.4176 28.18 31.6083 28.259 31.749 28.3997C31.8896 28.5403 31.9686 28.7311 31.9686 28.93C31.9686 29.1289 31.8896 29.3197 31.749 29.4603C31.6083 29.601 31.4176 29.68 31.2186 29.68H31.2086Z" fill="#000000"/>
<path d="M16.9485 31C18.2354 31 19.2785 29.9792 19.2785 28.72C19.2785 27.4608 18.2354 26.44 16.9485 26.44C15.6617 26.44 14.6185 27.4608 14.6185 28.72C14.6185 29.9792 15.6617 31 16.9485 31Z" fill="#000000"/>
<path d="M16.9786 1C12.2686 1 8.48865 4.56 8.48865 8.89C8.48865 11.4 10.0286 14.48 11.9186 17.27C13.4755 19.4457 15.1654 21.523 16.9786 23.49C18.7919 21.523 20.4818 19.4457 22.0386 17.27C23.9186 14.48 25.4686 11.4 25.4686 8.89C25.5086 4.56 21.7286 1 16.9786 1ZM16.9786 15.92C16.071 15.955 15.1657 15.8064 14.3169 15.4832C13.468 15.1599 12.6932 14.6687 12.0387 14.0389C11.3842 13.4092 10.8635 12.6538 10.5078 11.818C10.1522 10.9822 9.96889 10.0833 9.96889 9.175C9.96889 8.26671 10.1522 7.36776 10.5078 6.532C10.8635 5.69623 11.3842 4.94084 12.0387 4.31106C12.6932 3.68128 13.468 3.19007 14.3169 2.86685C15.1657 2.54363 16.071 2.39505 16.9786 2.43C17.8863 2.39505 18.7916 2.54363 19.6404 2.86685C20.4893 3.19007 21.2641 3.68128 21.9186 4.31106C22.5731 4.94084 23.0938 5.69623 23.4494 6.532C23.8051 7.36776 23.9884 8.26671 23.9884 9.175C23.9884 10.0833 23.8051 10.9822 23.4494 11.818C23.0938 12.6538 22.5731 13.4092 21.9186 14.0389C21.2641 14.6687 20.4893 15.1599 19.6404 15.4832C18.7916 15.8064 17.8863 15.955 16.9786 15.92Z" fill="#000000"/>
<path d="M17.0187 11.56C18.3608 11.56 19.4487 10.4944 19.4487 9.17999C19.4487 7.86555 18.3608 6.79999 17.0187 6.79999C15.6767 6.79999 14.5887 7.86555 14.5887 9.17999C14.5887 10.4944 15.6767 11.56 17.0187 11.56Z" fill="#000000"/>
</svg>
