<svg width="32" height="32" viewBox="0 0 32 32" fill="none" xmlns="http://www.w3.org/2000/svg">
    <path
        d="M28.3301 12.5005L27.1701 11.3305V2.44051C27.1701 2.17529 27.0647 1.92094 26.8772 1.73341C26.6897 1.54587 26.4353 1.44051 26.1701 1.44051H22.7901C22.5249 1.44051 22.2705 1.54587 22.083 1.73341C21.8954 1.92094 21.7901 2.17529 21.7901 2.44051V5.93051L17.5801 1.66051C17.3736 1.45129 17.1276 1.28516 16.8563 1.17177C16.5851 1.05839 16.2941 1 16.0001 1C15.7061 1 15.4151 1.05839 15.1438 1.17177C14.8726 1.28516 14.6266 1.45129 14.4201 1.66051L3.67009 12.5005C3.23954 12.9376 2.99878 13.527 3.00009 14.1405V28.7305C2.99475 29.3335 3.2285 29.914 3.65018 30.3451C4.07186 30.7761 4.64713 31.0226 5.25009 31.0305H11.4701L15.0901 28.9205H16.8201L20.2101 31.0305H26.7501C27.353 31.0226 27.9283 30.7761 28.35 30.3451C28.7717 29.914 29.0054 29.3335 29.0001 28.7305V14.1405C29.0014 13.527 28.7606 12.9376 28.3301 12.5005ZM27.5201 28.7305C27.5214 28.8329 27.5025 28.9346 27.4646 29.0298C27.4266 29.1249 27.3702 29.2116 27.2987 29.285C27.2272 29.3584 27.142 29.4169 27.0478 29.4573C26.9537 29.4977 26.8525 29.5192 26.7501 29.5205H20.6201L19.5301 28.8405V19.2605C19.5301 18.9953 19.4247 18.7409 19.2372 18.5534C19.0497 18.3659 18.7953 18.2605 18.5301 18.2605H13.4601C13.1949 18.2605 12.9405 18.3659 12.753 18.5534C12.5654 18.7409 12.4601 18.9953 12.4601 19.2605V28.7105L11.0701 29.5205H5.25009C5.14766 29.5192 5.04648 29.4977 4.95235 29.4573C4.85821 29.4169 4.77296 29.3584 4.70146 29.285C4.62995 29.2116 4.5736 29.1249 4.53562 29.0298C4.49764 28.9346 4.47877 28.8329 4.48009 28.7305V14.1405C4.4786 14.0365 4.49821 13.9332 4.53775 13.837C4.57728 13.7407 4.6359 13.6535 4.71009 13.5805L15.4501 2.76051C15.5216 2.68885 15.6066 2.632 15.7001 2.59321C15.7936 2.55442 15.8938 2.53445 15.9951 2.53445C16.0963 2.53445 16.1966 2.55442 16.2901 2.59321C16.3836 2.632 16.4686 2.68885 16.5401 2.76051L27.2901 13.5805C27.3643 13.6535 27.4229 13.7407 27.4624 13.837C27.502 13.9332 27.5216 14.0365 27.5201 14.1405V28.7305Z" />
    <path
        d="M18.3302 14.5105H13.6702C13.4849 14.5319 13.3139 14.6206 13.1899 14.7598C13.0658 14.899 12.9972 15.079 12.9972 15.2655C12.9972 15.452 13.0658 15.632 13.1899 15.7712C13.3139 15.9104 13.4849 15.9991 13.6702 16.0205H18.3302C18.5154 15.9991 18.6864 15.9104 18.8105 15.7712C18.9346 15.632 19.0031 15.452 19.0031 15.2655C19.0031 15.079 18.9346 14.899 18.8105 14.7598C18.6864 14.6206 18.5154 14.5319 18.3302 14.5105Z" />
</svg>