<svg width="33" height="32" viewBox="0 0 33 32" fill="none" xmlns="http://www.w3.org/2000/svg">
<path d="M16.9987 2.5C19.6687 2.5 22.2788 3.29176 24.4989 4.77516C26.7189 6.25856 28.4493 8.36697 29.471 10.8338C30.4928 13.3006 30.7602 16.015 30.2393 18.6337C29.7184 21.2525 28.4326 23.6579 26.5446 25.5459C24.6566 27.434 22.2511 28.7197 19.6324 29.2406C17.0136 29.7615 14.2992 29.4942 11.8324 28.4724C9.36563 27.4506 7.25722 25.7203 5.77382 23.5002C4.29043 21.2801 3.49866 18.67 3.49866 16C3.50395 12.4212 4.92797 8.9905 7.45857 6.4599C9.98916 3.92931 13.4199 2.50529 16.9987 2.5ZM16.9987 1C14.0319 1 11.1318 1.87973 8.66511 3.52796C6.19837 5.17618 4.27579 7.51886 3.14047 10.2597C2.00516 13.0006 1.70811 16.0166 2.28688 18.9264C2.86566 21.8361 4.29427 24.5088 6.39206 26.6066C8.48985 28.7044 11.1626 30.133 14.0723 30.7118C16.982 31.2906 19.998 30.9935 22.7389 29.8582C25.4798 28.7229 27.8225 26.8003 29.4707 24.3336C31.1189 21.8668 31.9987 18.9667 31.9987 16C31.9987 12.0218 30.4183 8.20644 27.6053 5.3934C24.7922 2.58035 20.9769 1 16.9987 1V1Z" fill="#000000"/>
<path d="M16.9987 25C16.6008 25 16.2193 24.842 15.938 24.5607C15.6567 24.2794 15.4987 23.8978 15.4987 23.5V15.07C15.4987 14.6722 15.6567 14.2907 15.938 14.0093C16.2193 13.728 16.6008 13.57 16.9987 13.57C17.3965 13.57 17.778 13.728 18.0593 14.0093C18.3406 14.2907 18.4987 14.6722 18.4987 15.07V23.45C18.5054 23.6512 18.4715 23.8516 18.3992 24.0394C18.3268 24.2272 18.2174 24.3985 18.0774 24.5431C17.9374 24.6878 17.7698 24.8027 17.5845 24.8812C17.3991 24.9597 17.1999 25.0001 16.9987 25Z" fill="#000000"/>
<path d="M16.9987 11.05C18.1032 11.05 18.9987 10.1546 18.9987 9.04999C18.9987 7.94542 18.1032 7.04999 16.9987 7.04999C15.8941 7.04999 14.9987 7.94542 14.9987 9.04999C14.9987 10.1546 15.8941 11.05 16.9987 11.05Z" fill="#000000"/>
</svg>
