<svg width="11" height="10" viewBox="0 0 11 10" fill="none" xmlns="http://www.w3.org/2000/svg">
<path d="M6.56854 5.6C7.0136 5.15495 7.54218 4.80217 8.12393 4.56192C8.70567 4.32167 9.32915 4.19868 9.95855 4.2V5.81C9.53826 5.80852 9.12188 5.89089 8.73382 6.05229C8.34576 6.2137 7.99381 6.4509 7.69854 6.75C7.09809 7.349 6.75999 8.16186 6.75854 9.01H5.15853C5.16063 8.3784 5.28632 7.75332 5.52853 7.17C5.76789 6.583 6.1214 6.04936 6.56854 5.6ZM1.95855 9C1.95463 7.94776 2.16041 6.90529 2.5639 5.93349C2.96739 4.96168 3.56047 4.08001 4.30853 3.34C5.04886 2.59585 5.92942 2.00588 6.89923 1.60423C7.86903 1.20257 8.90886 0.997201 9.95855 0.999998V2.6C9.11884 2.59684 8.28685 2.76051 7.51092 3.08153C6.73499 3.40254 6.03056 3.8745 5.43853 4.47C4.84318 5.06421 4.37143 5.77046 4.05047 6.54797C3.72951 7.32547 3.56571 8.15885 3.56854 9H1.95855Z" fill="#000000"/>
</svg>
