<svg width="33" height="32" viewBox="0 0 33 32" fill="none" xmlns="http://www.w3.org/2000/svg">
<path d="M11.7687 11.38C11.7161 11.2196 11.6103 11.082 11.4687 10.99C11.3386 10.8933 11.1809 10.8407 11.0187 10.84C10.8502 10.8296 10.6826 10.8715 10.5387 10.96C10.3874 11.0619 10.272 11.2089 10.2087 11.38L6.86873 19.38C6.85512 19.4628 6.85512 19.5472 6.86873 19.63C6.859 19.8123 6.91988 19.9914 7.03873 20.13C7.10941 20.1997 7.1941 20.2536 7.28721 20.2881C7.38031 20.3226 7.47968 20.3369 7.57873 20.33C7.72984 20.3279 7.87659 20.279 7.99872 20.19C8.13517 20.0906 8.23669 19.9506 8.28873 19.79L8.98873 18.16H12.9887L13.6787 19.78C13.7417 19.9402 13.8493 20.0791 13.9887 20.18C14.1106 20.2779 14.2624 20.3309 14.4187 20.33C14.6123 20.3278 14.798 20.2529 14.9387 20.12C15.0164 20.0455 15.0772 19.9551 15.1169 19.855C15.1566 19.755 15.1743 19.6475 15.1687 19.54C15.1663 19.4308 15.1461 19.3227 15.1087 19.22L11.7687 11.38ZM9.59873 16.65L10.9387 13.5L12.2887 16.65H9.59873Z" fill="#000000"/>
<path d="M25.5785 10.72H21.6285V9.06C21.6285 8.79478 21.5232 8.54043 21.3356 8.35289C21.1481 8.16535 20.8938 8.06 20.6285 8.06C20.3633 8.06 20.109 8.16535 19.9214 8.35289C19.7339 8.54043 19.6285 8.79478 19.6285 9.06V10.72H15.6285C15.3633 10.72 15.109 10.8254 14.9214 11.0129C14.7339 11.2004 14.6285 11.4548 14.6285 11.72C14.6285 11.9852 14.7339 12.2396 14.9214 12.4271C15.109 12.6146 15.3633 12.72 15.6285 12.72H22.3985C22.0497 14.4969 21.3714 16.1927 20.3985 17.72C19.8274 17.0516 19.3681 16.2951 19.0385 15.48C18.9999 15.3524 18.9361 15.2337 18.8509 15.1311C18.7658 15.0285 18.6609 14.9439 18.5426 14.8825C18.4243 14.821 18.2948 14.7837 18.1619 14.773C18.0289 14.7623 17.8952 14.7783 17.7685 14.82C17.6429 14.8598 17.5264 14.924 17.4257 15.0089C17.325 15.0938 17.2421 15.1978 17.1817 15.3149C17.1213 15.432 17.0846 15.5598 17.0737 15.6911C17.0629 15.8224 17.0781 15.9546 17.1185 16.08C17.6014 17.3295 18.3212 18.4738 19.2385 19.45C18.485 20.5077 17.6773 21.5258 16.8185 22.5C16.7305 22.5988 16.6629 22.7141 16.6197 22.8392C16.5765 22.9643 16.5585 23.0967 16.5669 23.2288C16.5753 23.3609 16.6098 23.49 16.6684 23.6086C16.7271 23.7273 16.8087 23.8331 16.9085 23.92C17.0908 24.0808 17.3255 24.1696 17.5685 24.17C17.7105 24.1698 17.8508 24.1394 17.9802 24.0808C18.1095 24.0222 18.2248 23.9367 18.3185 23.83C19.2485 22.77 20.0185 21.78 20.6885 20.83C21.2551 21.3049 21.8568 21.7361 22.4885 22.12C22.6448 22.2168 22.8247 22.2687 23.0085 22.27C23.1811 22.271 23.351 22.2273 23.5017 22.1432C23.6524 22.0591 23.7788 21.9374 23.8685 21.79C24.0055 21.5643 24.0477 21.2936 23.9859 21.037C23.924 20.7803 23.7632 20.5586 23.5385 20.42C22.9342 20.0477 22.3592 19.6298 21.8185 19.17C23.1544 17.2361 24.0551 15.0355 24.4585 12.72H25.5785C25.8438 12.72 26.0981 12.6146 26.2856 12.4271C26.4732 12.2396 26.5785 11.9852 26.5785 11.72C26.5785 11.4548 26.4732 11.2004 26.2856 11.0129C26.0981 10.8254 25.8438 10.72 25.5785 10.72Z" fill="#000000"/>
<path d="M16.9986 1C13.0204 1 9.2051 2.58035 6.39205 5.3934C3.57901 8.20644 1.99866 12.0218 1.99866 16C1.99866 19.9782 3.57901 23.7936 6.39205 26.6066C9.2051 29.4196 13.0204 31 16.9986 31C20.9769 31 24.7922 29.4196 27.6053 26.6066C30.4183 23.7936 31.9986 19.9782 31.9986 16C31.9986 12.0218 30.4183 8.20644 27.6053 5.3934C24.7922 2.58035 20.9769 1 16.9986 1ZM16.9986 29.5C13.4199 29.4947 9.98914 28.0707 7.45855 25.5401C4.92795 23.0095 3.50394 19.5788 3.49865 16C3.5013 12.4204 4.92447 8.98815 7.45564 6.45699C9.9868 3.92582 13.419 2.50265 16.9986 2.5C20.5783 2.50265 24.0105 3.92582 26.5417 6.45699C29.0728 8.98815 30.496 12.4204 30.4986 16C30.4934 19.5788 29.0693 23.0095 26.5387 25.5401C24.0082 28.0707 20.5774 29.4947 16.9986 29.5Z" fill="#000000"/>
</svg>
