<svg width="32" height="32" viewBox="0 0 32 32" fill="none" xmlns="http://www.w3.org/2000/svg">
<path d="M21.6428 8.39396C19.981 7.26603 18.0116 6.6622 15.9949 6.6622C13.9781 6.6622 12.0088 7.26603 10.3469 8.39396C8.71096 9.51035 7.47785 11.1123 6.82651 12.9673C6.20952 14.795 6.20952 16.7708 6.82651 18.5984C7.42779 20.3693 8.55928 21.9184 10.0714 23.0408C10.4701 23.432 10.7736 23.9073 10.9592 24.431C11.1521 24.9807 11.2047 25.5689 11.1122 26.1435C11.1069 26.2206 11.1069 26.298 11.1122 26.3752C11.1145 26.9878 11.2422 27.5936 11.4877 28.1562C11.7332 28.7188 12.0914 29.2266 12.5408 29.6491C13.4741 30.5168 14.7077 31 15.9898 31C17.2718 31 18.5055 30.5168 19.4388 29.6491C19.8863 29.2252 20.2433 28.7171 20.4887 28.1549C20.734 27.5925 20.8628 26.9874 20.8673 26.3752C20.8728 26.298 20.8728 26.2206 20.8673 26.1435C20.776 25.5835 20.8209 25.0101 20.9983 24.4706C21.1757 23.9311 21.4806 23.4411 21.8877 23.0408C23.4455 21.9109 24.6082 20.33 25.2143 18.5178C25.8018 16.7103 25.7839 14.764 25.1632 12.9673C24.5151 11.1106 23.2813 9.50777 21.6428 8.39396ZM23.7653 18.0948C23.2584 19.6072 22.2887 20.9271 20.9898 21.8723L20.9081 21.9328V21.8522H11.0918V21.9328L11.0102 21.8723C9.7054 20.9328 8.73413 19.6109 8.23468 18.0948C7.71449 16.579 7.71449 14.9364 8.23468 13.4206C8.78311 11.8827 9.81217 10.5564 11.1735 9.633C12.5812 8.681 14.2477 8.17155 15.9541 8.17155C17.6604 8.17155 19.3269 8.681 20.7347 9.633C22.102 10.5501 23.1327 11.8786 23.6735 13.4206C24.2235 14.9264 24.2558 16.5691 23.7653 18.0948Z" fill="#000000"/>
<path d="M16.0408 4.00191C16.243 3.9993 16.4361 3.91886 16.579 3.77774C16.722 3.63661 16.8035 3.44596 16.8061 3.24639V1.75551C16.8061 1.55514 16.7255 1.36297 16.582 1.22128C16.4384 1.0796 16.2438 1 16.0408 1C15.8378 1 15.6432 1.0796 15.4997 1.22128C15.3561 1.36297 15.2755 1.55514 15.2755 1.75551V3.24639C15.2755 3.44677 15.3561 3.63894 15.4997 3.78062C15.6432 3.92231 15.8378 4.00191 16.0408 4.00191Z" fill="#000000"/>
<path d="M7.01025 7.65859C7.21315 7.65842 7.40768 7.5787 7.55107 7.43698C7.62327 7.36752 7.68065 7.2845 7.71983 7.19281C7.75901 7.10111 7.7792 7.0026 7.7792 6.90308C7.7792 6.80356 7.75901 6.70505 7.71983 6.61335C7.68065 6.52166 7.62327 6.43864 7.55107 6.36918L6.53066 5.36183C6.46059 5.2876 6.3761 5.22807 6.28223 5.18677C6.18835 5.14548 6.08701 5.12328 5.98425 5.12149C5.88149 5.1197 5.77942 5.13836 5.68413 5.17636C5.58883 5.21435 5.50227 5.27091 5.4296 5.34265C5.35693 5.4144 5.29964 5.49985 5.26115 5.59393C5.22265 5.688 5.20375 5.78877 5.20556 5.89021C5.20738 5.99165 5.22987 6.0917 5.2717 6.18437C5.31353 6.27705 5.37384 6.36046 5.44903 6.42962L6.46944 7.43698C6.6152 7.57516 6.80821 7.65425 7.01025 7.65859Z" fill="#000000"/>
<path d="M3.26531 14.982H1.76531C1.56233 14.982 1.36768 15.0616 1.22415 15.2033C1.08063 15.345 1 15.5372 1 15.7375C1 15.9379 1.08063 16.1301 1.22415 16.2718C1.36768 16.4135 1.56233 16.4931 1.76531 16.4931H3.26531C3.46828 16.4931 3.66293 16.4135 3.80646 16.2718C3.94998 16.1301 4.03061 15.9379 4.03061 15.7375C4.03061 15.5372 3.94998 15.345 3.80646 15.2033C3.66293 15.0616 3.46828 14.982 3.26531 14.982Z" fill="#000000"/>
<path d="M30.2347 15.0928H28.7245C28.5216 15.0928 28.3269 15.1724 28.1834 15.3141C28.0399 15.4558 27.9592 15.648 27.9592 15.8483C27.9592 16.0487 28.0399 16.2409 28.1834 16.3826C28.3269 16.5243 28.5216 16.6039 28.7245 16.6039H30.2347C30.4377 16.6039 30.6324 16.5243 30.7759 16.3826C30.9194 16.2409 31 16.0487 31 15.8483C31 15.648 30.9194 15.4558 30.7759 15.3141C30.6324 15.1724 30.4377 15.0928 30.2347 15.0928Z" fill="#000000"/>
<path d="M25.551 5.37188L24.5306 6.37923C24.4584 6.44869 24.401 6.53171 24.3619 6.6234C24.3227 6.7151 24.3025 6.81361 24.3025 6.91313C24.3025 7.01265 24.3227 7.11116 24.3619 7.20286C24.401 7.29455 24.4584 7.37757 24.5306 7.44703C24.6002 7.51908 24.6842 7.57601 24.7773 7.61418C24.8705 7.65234 24.9706 7.67089 25.0714 7.66864C25.172 7.66911 25.2716 7.64975 25.3645 7.61169C25.4574 7.57364 25.5416 7.51765 25.6123 7.44703L26.6327 6.43967C26.776 6.29801 26.8565 6.10599 26.8565 5.90578C26.8565 5.70557 26.776 5.51354 26.6327 5.37188C26.5623 5.3006 26.4782 5.24395 26.3853 5.20527C26.2924 5.16659 26.1927 5.14667 26.0918 5.14667C25.991 5.14667 25.8912 5.16659 25.7984 5.20527C25.7055 5.24395 25.6214 5.3006 25.551 5.37188Z" fill="#000000"/>
</svg>
