<svg width="78" height="78" viewBox="0 0 78 78" fill="none" xmlns="http://www.w3.org/2000/svg">
<path d="M35.4252 24.7562L41.1596 31.1537C41.9067 31.9897 42.6923 32.3933 43.4058 32.3933C44.4124 32.3933 45.2748 31.5885 45.6712 30.0582L53.4909 0H49.9114L42.7044 27.6919L38.0029 22.4427C36.9747 21.2968 36.3453 18.7095 36.7345 17.2176L41.2125 0H37.633L33.3808 16.336C32.7034 18.9594 33.6211 22.7454 35.4252 24.7562Z" fill="white"/>
<path d="M42.3272 53.0103L36.5929 46.6129C35.8457 45.7769 35.0601 45.3733 34.3466 45.3733C33.3377 45.3733 32.4776 46.1781 32.0812 47.7084L24.252 77.7666H27.8314L35.0385 50.0747L39.7423 55.3238C40.7705 56.4697 41.3975 59.0571 41.0108 60.5489L36.5328 77.7666H40.1123L44.3644 61.4306C45.0491 58.8168 44.129 55.0211 42.3272 53.0103Z" fill="white"/>
<path d="M4.76382 46.8819C5.85122 46.8806 6.90765 46.5196 7.76846 45.8552C8.62928 45.1908 9.24614 44.2603 9.52289 43.2087L20.7611 0H17.7654C17.5732 0 17.3786 -1.5249e-05 17.1864 0.0143989L6.17884 42.3366C6.09368 42.6454 5.91018 42.918 5.65614 43.1131C5.4021 43.3082 5.09133 43.4151 4.77104 43.4177C4.65112 43.4167 4.53177 43.4014 4.41549 43.372L0 42.2237V45.8032L3.54347 46.7257C3.94209 46.8288 4.35208 46.8813 4.76382 46.8819Z" fill="white"/>
<path d="M72.9885 30.8845C71.9008 30.8861 70.8442 31.2472 69.9831 31.9115C69.122 32.5758 68.5046 33.5061 68.227 34.5577L56.9888 77.7664H59.9917C60.1863 77.7664 60.3809 77.7664 60.5731 77.752L71.5806 35.4298C71.6658 35.121 71.8493 34.8484 72.1033 34.6533C72.3574 34.4582 72.6682 34.3513 72.9885 34.3487C73.1084 34.3497 73.2277 34.365 73.344 34.3944L77.7595 35.5427V31.9632L74.216 31.0431C73.8154 30.9375 73.4028 30.8842 72.9885 30.8845Z" fill="white"/>
<path d="M53.6664 55.3429C53.8233 55.3839 53.9847 55.4049 54.1469 55.4054C54.5608 55.4057 54.9632 55.2692 55.2917 55.0172C55.6201 54.7653 55.8561 54.4119 55.9631 54.012L63.8908 23.5214C63.364 23.4902 62.8412 23.4098 62.3293 23.2811C61.6171 23.0945 60.9329 22.8142 60.2945 22.4475L52.3283 53.0775C52.209 53.5552 52.2825 54.0606 52.5329 54.4845C52.7833 54.9085 53.1904 55.2168 53.6664 55.3429Z" fill="white"/>
<path d="M63.8907 23.5021C64.0612 23.5021 64.2318 23.5165 64.4 23.5165C66.2222 23.5147 67.9925 22.9093 69.4341 21.7949C70.8758 20.6805 71.9077 19.1198 72.3686 17.3569C72.916 15.2439 72.6027 13 71.4974 11.1178C70.3921 9.23557 68.5852 7.8688 66.4732 7.31746C65.4266 7.04088 64.3353 6.97512 63.2631 7.124C62.1908 7.27288 61.1588 7.63344 60.2271 8.1847C59.2931 8.72988 58.4763 9.45471 57.824 10.3173C57.1717 11.1799 56.6967 12.1632 56.4266 13.2104C56.1503 14.2572 56.085 15.3485 56.2343 16.4208C56.3836 17.4931 56.7446 18.525 57.2962 19.4565C58.0166 20.69 59.0479 21.713 60.2871 22.4234C60.9255 22.7901 61.6098 23.0705 62.3219 23.2571C62.836 23.3878 63.3612 23.4698 63.8907 23.5021ZM60.0686 14.1569C60.2148 13.5869 60.4727 13.0515 60.8274 12.5818C61.182 12.1121 61.6263 11.7174 62.1345 11.4207C62.8195 11.0169 63.6001 10.8037 64.3952 10.8033C64.7779 10.8033 65.159 10.8526 65.5291 10.9498C66.6778 11.2498 67.6606 11.9932 68.2618 13.0169C68.8631 14.0406 69.0337 15.261 68.7362 16.4104C68.4362 17.559 67.6929 18.5419 66.6692 19.1431C65.6454 19.7444 64.425 19.915 63.2757 19.6175C62.7054 19.4716 62.1699 19.2138 61.7002 18.8591C61.2304 18.5044 60.8359 18.06 60.5394 17.5515C60.2402 17.0463 60.0441 16.4868 59.9625 15.9054C59.8808 15.324 59.9152 14.7322 60.0637 14.1642L60.0686 14.1569Z" fill="white"/>
<path d="M17.4601 55.3429L25.4287 24.713C25.5536 24.231 25.4821 23.7191 25.2299 23.2898C24.9776 22.8606 24.5653 22.549 24.0834 22.4235C23.6018 22.2985 23.0902 22.3697 22.6609 22.6215C22.2317 22.8733 21.9199 23.285 21.794 23.7664L13.8662 54.2571C14.3932 54.2873 14.9161 54.3677 15.4277 54.4973C16.14 54.687 16.8235 54.9714 17.4601 55.3429Z" fill="white"/>
<path d="M21.3209 64.5487C21.7729 62.8032 21.64 60.9577 20.9427 59.2949C20.2454 57.6322 19.0221 56.2439 17.4603 55.3429C16.8224 54.9746 16.1381 54.6934 15.4255 54.5069C14.9138 54.3773 14.3909 54.2969 13.864 54.2667C12.2278 54.162 10.598 54.552 9.18661 55.3862C8.25233 55.931 7.43538 56.6558 6.78302 57.5184C6.13067 58.3811 5.65585 59.3645 5.38607 60.4119C5.10984 61.4587 5.04446 62.55 5.19375 63.6222C5.34305 64.6945 5.70408 65.7265 6.25575 66.658C6.80033 67.5922 7.525 68.4091 8.38772 69.0611C9.25044 69.713 10.234 70.1872 11.2815 70.4561C11.9576 70.6326 12.6534 70.7223 13.3522 70.7228C15.1763 70.7201 16.9481 70.1126 18.39 68.9954C19.832 67.8782 20.8627 66.3144 21.3209 64.5487ZM17.6885 63.6022C17.3885 64.7509 16.6452 65.7337 15.6215 66.3349C14.5978 66.9362 13.3773 67.1068 12.228 66.8093C11.6579 66.6629 11.1226 66.405 10.6529 66.0503C10.1833 65.6957 9.78859 65.2515 9.49171 64.7433C9.19073 64.2376 8.99325 63.677 8.91077 63.0943C8.82829 62.5116 8.86245 61.9182 9.01124 61.3488C9.15715 60.7786 9.41492 60.243 9.7696 59.7733C10.1243 59.3036 10.5687 58.909 11.0772 58.6125C11.7622 58.2087 12.5428 57.9955 13.3379 57.9951C13.7206 57.9952 14.1016 58.0444 14.4718 58.1416C15.0416 58.2889 15.5768 58.5469 16.0469 58.901C16.517 59.2552 16.9127 59.6984 17.2114 60.2055C17.5102 60.7126 17.706 61.2736 17.7879 61.8564C17.8697 62.4392 17.836 63.0325 17.6885 63.6022Z" fill="white"/>
<path d="M31.7831 33.6618C31.9458 33.8469 32.1461 33.9951 32.3707 34.0966C32.5952 34.1981 32.8388 34.2505 33.0852 34.2504C33.506 34.2507 33.9124 34.0978 34.2287 33.8204C34.3996 33.6701 34.5393 33.4876 34.6396 33.2833C34.74 33.0791 34.7991 32.8571 34.8136 32.6299C34.8281 32.4028 34.7977 32.175 34.7242 31.9597C34.6506 31.7443 34.5353 31.5456 34.3849 31.3748L32.1219 28.7995C31.8183 28.4545 31.3903 28.2441 30.9318 28.2143C30.4733 28.1846 30.0218 28.338 29.6763 28.6409C29.5054 28.7912 29.3657 28.9736 29.2654 29.1779C29.165 29.3822 29.1059 29.6042 29.0914 29.8313C29.0769 30.0585 29.1073 30.2862 29.1809 30.5016C29.2544 30.7169 29.3697 30.9157 29.5201 31.0865L31.7831 33.6618Z" fill="white"/>
<path d="M38.5121 41.3157C38.6748 41.5008 38.875 41.649 39.0996 41.7505C39.3241 41.852 39.5677 41.9044 39.8141 41.9043C40.2354 41.9048 40.6422 41.751 40.9577 41.4719C41.1285 41.3218 41.2681 41.1395 41.3684 40.9355C41.4687 40.7314 41.5278 40.5096 41.5423 40.2826C41.5568 40.0557 41.5264 39.8282 41.4529 39.613C41.3794 39.3978 41.2641 39.1993 41.1138 39.0287L38.8508 36.451C38.5469 36.1063 38.1188 35.8963 37.6603 35.8671C37.2018 35.8378 36.7504 35.9916 36.4052 36.2948C36.0602 36.5983 35.8498 37.0263 35.82 37.4848C35.7903 37.9433 35.9437 38.3949 36.2466 38.7404L38.5121 41.3157Z" fill="white"/>
<path d="M45.2411 48.9671C45.4038 49.1521 45.604 49.3004 45.8286 49.4019C46.0531 49.5034 46.2967 49.5558 46.5431 49.5556C46.9639 49.5559 47.3704 49.4031 47.6867 49.1256C47.8576 48.9753 47.9972 48.7928 48.0976 48.5886C48.1979 48.3843 48.257 48.1623 48.2715 47.9352C48.286 47.7081 48.2556 47.4803 48.1821 47.2649C48.1085 47.0496 47.9932 46.8508 47.8428 46.68L45.5774 44.1047C45.4275 43.9337 45.2453 43.7939 45.0414 43.6934C44.8374 43.5928 44.6156 43.5335 44.3886 43.5188C44.1617 43.504 43.9341 43.5342 43.7188 43.6075C43.5036 43.6809 43.305 43.7959 43.1342 43.9461C42.7892 44.2496 42.5788 44.6776 42.549 45.1361C42.5193 45.5946 42.6727 46.0462 42.9756 46.3917L45.2411 48.9671Z" fill="white"/>
</svg>
