<svg width="32" height="32" viewBox="0 0 32 32" fill="none" xmlns="http://www.w3.org/2000/svg">
<path d="M16 0.999992C13.1476 0.940951 10.3881 2.01508 8.32618 3.98699C6.2643 5.9589 5.0682 8.66777 5 11.52C5 16.8 7 19 9.44 22.7C11.452 25.6003 13.6429 28.3724 16 31C18.3571 28.3724 20.548 25.6003 22.56 22.7C25 19 27 16.53 27 11.52C26.9318 8.66777 25.7357 5.9589 23.6738 3.98699C21.6119 2.01508 18.8524 0.940951 16 0.999992ZM16 21.59C14.1171 21.59 12.2765 21.0317 10.711 19.9856C9.14542 18.9395 7.92521 17.4527 7.20467 15.7131C6.48412 13.9736 6.29559 12.0594 6.66292 10.2127C7.03026 8.36603 7.93695 6.66973 9.26834 5.33834C10.5997 4.00694 12.296 3.10025 14.1427 2.73292C15.9894 2.36558 17.9036 2.55411 19.6431 3.27466C21.3827 3.9952 22.8695 5.21541 23.9156 6.78096C24.9617 8.34652 25.52 10.1871 25.52 12.07C25.52 13.3202 25.2738 14.5581 24.7953 15.7131C24.3169 16.8682 23.6157 17.9176 22.7317 18.8016C21.8476 19.6857 20.7982 20.3869 19.6431 20.8653C18.4881 21.3438 17.2502 21.59 16 21.59Z" fill="#000000"/>
<path d="M16 15.05C17.6569 15.05 19 13.7068 19 12.05C19 10.3931 17.6569 9.04999 16 9.04999C14.3431 9.04999 13 10.3931 13 12.05C13 13.7068 14.3431 15.05 16 15.05Z" fill="#000000"/>
</svg>
