<svg width="33" height="32" viewBox="0 0 33 32" fill="none" xmlns="http://www.w3.org/2000/svg">
<path d="M28.4549 16.077L25.1893 14.5486C25.0985 14.5059 25.0001 14.4814 24.8998 14.4766C24.7994 14.4718 24.6991 14.4867 24.6046 14.5206C24.5101 14.5544 24.4232 14.6065 24.349 14.6739C24.2748 14.7412 24.2146 14.8225 24.172 14.913C24.1291 15.0033 24.1045 15.1012 24.0996 15.2011C24.0948 15.3009 24.1098 15.4007 24.1439 15.4948C24.1779 15.5888 24.2302 15.6752 24.2979 15.7491C24.3656 15.8229 24.4473 15.8828 24.5383 15.9251L27.8038 17.4535C27.9059 17.5001 28.017 17.5242 28.1293 17.5243C28.2745 17.5259 28.4171 17.4857 28.5398 17.4084C28.6626 17.3312 28.7602 17.2203 28.8211 17.0891C28.864 16.9988 28.8886 16.9009 28.8935 16.801C28.8983 16.7012 28.8833 16.6014 28.8493 16.5074C28.8152 16.4133 28.7629 16.3269 28.6952 16.253C28.6275 16.1792 28.5458 16.1193 28.4549 16.077Z" fill="#000000"/>
<path d="M9.58006 16.077L6.30437 14.5486C6.21381 14.5045 6.11525 14.4789 6.01456 14.4734C5.91386 14.4678 5.81308 14.4825 5.71819 14.5165C5.6233 14.5505 5.53624 14.6031 5.46219 14.6712C5.38813 14.7393 5.32858 14.8215 5.28708 14.913C5.19963 15.0942 5.188 15.3026 5.25475 15.4923C5.3215 15.6821 5.46118 15.8377 5.64313 15.9251L8.91882 17.4535C9.0203 17.502 9.13177 17.5263 9.24435 17.5243C9.38904 17.5234 9.53057 17.4822 9.65286 17.4053C9.77515 17.3283 9.87329 17.2188 9.93611 17.0891C10.0182 16.9071 10.0271 16.7007 9.96086 16.5124C9.89462 16.3241 9.75833 16.1683 9.58006 16.077Z" fill="#000000"/>
<path d="M16.9678 17.5243C17.8106 17.5243 18.4938 16.8446 18.4938 16.0061C18.4938 15.1676 17.8106 14.4879 16.9678 14.4879C16.1251 14.4879 15.4419 15.1676 15.4419 16.0061C15.4419 16.8446 16.1251 17.5243 16.9678 17.5243Z" fill="#000000"/>
<path d="M30.6841 5.19635L23.0019 1.26923C22.607 1.09178 22.1786 1 21.7453 1C21.312 1 20.8836 1.09178 20.4887 1.26923L12.8065 5.19635C12.4505 5.33773 12.0535 5.33773 11.6975 5.19635L4.01533 1.26923C3.80463 1.1494 3.56613 1.08636 3.32343 1.08636C3.08072 1.08636 2.84222 1.1494 2.63153 1.26923C2.42686 1.3996 2.26063 1.58166 2.1498 1.79681C2.03897 2.01197 1.98751 2.25252 2.00067 2.49393V24.6397C2.01595 25.0807 2.14463 25.5104 2.37442 25.8878C2.60422 26.2653 2.92745 26.5778 3.31325 26.7955L10.9954 30.7227C11.3859 30.9081 11.8142 31.0016 12.2469 30.996C12.6831 31.0036 13.1151 30.91 13.5086 30.7227L21.1908 26.7955C21.3659 26.7206 21.5546 26.682 21.7453 26.682C21.936 26.682 22.1247 26.7206 22.2998 26.7955L29.982 30.7227C30.1927 30.8425 30.4312 30.9055 30.6739 30.9055C30.9166 30.9055 31.1551 30.8425 31.3658 30.7227C31.5705 30.5923 31.7367 30.4102 31.8475 30.1951C31.9583 29.9799 32.0098 29.7394 31.9966 29.498V7.35222C31.9795 6.91168 31.85 6.4827 31.6204 6.10559C31.3908 5.72848 31.0686 5.4156 30.6841 5.19635ZM11.6975 29.3664L4.01533 25.4393C3.8785 25.3513 3.76348 25.2337 3.67889 25.0952C3.5943 24.9567 3.54235 24.801 3.52693 24.6397V2.72672L10.9954 6.55263C11.1571 6.62207 11.3238 6.67958 11.494 6.7247V28.8097C11.494 28.9261 11.5216 29.0409 11.5746 29.1447C11.6277 29.2485 11.7046 29.3383 11.7992 29.4069L11.6975 29.3664ZM16.9783 19.0425C16.1687 19.0425 15.3923 18.7226 14.8199 18.1532C14.2474 17.5837 13.9258 16.8114 13.9258 16.0061C13.9258 15.2008 14.2474 14.4284 14.8199 13.859C15.3923 13.2895 16.1687 12.9696 16.9783 12.9696C17.7879 12.9696 18.5643 13.2895 19.1368 13.859C19.7092 14.4284 20.0308 15.2008 20.0308 16.0061C20.0308 16.8114 19.7092 17.5837 19.1368 18.1532C18.5643 18.7226 17.7879 19.0425 16.9783 19.0425ZM30.4704 29.2652L23.0019 25.4393C22.8205 25.3526 22.6291 25.288 22.4321 25.247V3.22267C22.4307 3.07624 22.3867 2.93335 22.3054 2.81123C22.2242 2.68911 22.1092 2.59298 21.9742 2.53441C22.0865 2.54329 22.1966 2.57065 22.2998 2.61538L29.982 6.55263C30.1188 6.64057 30.2338 6.75819 30.3184 6.89668C30.403 7.03516 30.455 7.19091 30.4704 7.35222V29.2652Z" fill="#000000"/>
</svg>
