<svg width="32" height="32" viewBox="0 0 32 32" fill="none" xmlns="http://www.w3.org/2000/svg">
<circle cx="16" cy="16" r="15" fill="#C22604" stroke="white" stroke-width="2"/>
<path d="M22 11.0126V19.4501C22 20.1157 21.6493 20.7251 21.077 21.0626V22.4969C21.077 22.8813 20.7631 23.2001 20.3846 23.2001H19.9231C19.5446 23.2001 19.2308 22.8813 19.2308 22.4969V21.3251H12.7693V22.4969C12.7693 22.8813 12.4554 23.2001 12.077 23.2001H11.6154C11.237 23.2001 10.9231 22.8813 10.9231 22.4969V21.0626C10.36 20.7251 10 20.1157 10 19.4501V11.0126C10 8.20007 12.7693 8.20007 16 8.20007C19.2308 8.20007 22 8.20007 22 11.0126ZM13.6923 18.5126C13.6923 17.9969 13.277 17.5751 12.7693 17.5751C12.2616 17.5751 11.8462 17.9969 11.8462 18.5126C11.8462 19.0282 12.2616 19.4501 12.7693 19.4501C13.277 19.4501 13.6923 19.0282 13.6923 18.5126ZM20.1539 18.5126C20.1539 17.9969 19.7385 17.5751 19.2308 17.5751C18.7231 17.5751 18.3077 17.9969 18.3077 18.5126C18.3077 19.0282 18.7231 19.4501 19.2308 19.4501C19.7385 19.4501 20.1539 19.0282 20.1539 18.5126ZM20.1539 11.0126H11.8462V16.1839H20.1539V11.0126Z" fill="white"/>
</svg>
