<svg width="30" height="30" viewBox="0 0 30 30" fill="none" xmlns="http://www.w3.org/2000/svg">
<path d="M15 0C11.0218 0 7.20644 1.58035 4.3934 4.3934C1.58035 7.20644 0 11.0218 0 15C0 18.9782 1.58035 22.7936 4.3934 25.6066C7.20644 28.4196 11.0218 30 15 30C18.9782 30 22.7936 28.4196 25.6066 25.6066C28.4196 22.7936 30 18.9782 30 15C30 11.0218 28.4196 7.20644 25.6066 4.3934C22.7936 1.58035 18.9782 0 15 0ZM21 15.75H15.75V21C15.7474 21.1981 15.6676 21.3874 15.5275 21.5275C15.3874 21.6676 15.1981 21.7474 15 21.75C14.8019 21.7474 14.6126 21.6676 14.4725 21.5275C14.3324 21.3874 14.2526 21.1981 14.25 21V15.75H9C8.80189 15.7474 8.61263 15.6676 8.47253 15.5275C8.33244 15.3874 8.25259 15.1981 8.25 15C8.25 14.8011 8.32902 14.6103 8.46967 14.4697C8.61032 14.329 8.80109 14.25 9 14.25H14.25V9C14.25 8.80109 14.329 8.61033 14.4697 8.46967C14.6103 8.32902 14.8011 8.25 15 8.25C15.1989 8.25 15.3897 8.32902 15.5303 8.46967C15.671 8.61033 15.75 8.80109 15.75 9V14.25H21C21.1989 14.25 21.3897 14.329 21.5303 14.4697C21.671 14.6103 21.75 14.8011 21.75 15C21.7474 15.1981 21.6676 15.3874 21.5275 15.5275C21.3874 15.6676 21.1981 15.7474 21 15.75Z" fill="#FF5D52"/>
</svg>
