<svg width="33" height="32" viewBox="0 0 33 32" fill="none" xmlns="http://www.w3.org/2000/svg">
<path d="M16.9987 2.5C19.6687 2.5 22.2788 3.29176 24.4989 4.77516C26.7189 6.25856 28.4493 8.36697 29.471 10.8338C30.4928 13.3006 30.7602 16.015 30.2393 18.6337C29.7184 21.2525 28.4326 23.6579 26.5446 25.5459C24.6566 27.434 22.2511 28.7197 19.6324 29.2406C17.0136 29.7615 14.2992 29.4942 11.8324 28.4724C9.36563 27.4506 7.25722 25.7203 5.77382 23.5002C4.29043 21.2801 3.49866 18.67 3.49866 16C3.50395 12.4212 4.92797 8.9905 7.45857 6.4599C9.98916 3.92931 13.4199 2.50529 16.9987 2.5ZM16.9987 1C14.0319 1 11.1318 1.87973 8.66511 3.52796C6.19837 5.17618 4.27579 7.51886 3.14047 10.2597C2.00516 13.0006 1.70811 16.0166 2.28688 18.9264C2.86566 21.8361 4.29427 24.5088 6.39206 26.6066C8.48985 28.7044 11.1626 30.133 14.0723 30.7118C16.982 31.2906 19.998 30.9935 22.7389 29.8582C25.4798 28.7229 27.8225 26.8003 29.4707 24.3336C31.1189 21.8668 31.9987 18.9667 31.9987 16C31.9987 12.0218 30.4183 8.20644 27.6053 5.3934C24.7922 2.58035 20.9769 1 16.9987 1V1Z" fill="#000000"/>
<path d="M14.9987 17.07C14.9935 16.9057 15.0219 16.742 15.0821 16.589C15.1422 16.4359 15.233 16.2968 15.3487 16.18C15.4621 16.0653 15.5978 15.9751 15.7475 15.9149C15.8971 15.8547 16.0575 15.8258 16.2187 15.83C16.7337 15.836 17.2454 15.7479 17.7287 15.57C18.1665 15.4127 18.5441 15.1225 18.8087 14.74C19.089 14.2879 19.225 13.7612 19.1987 13.23C19.1946 12.7917 19.0625 12.3642 18.8187 12C18.591 11.6442 18.2737 11.3545 17.8987 11.16C17.4899 10.9523 17.0372 10.846 16.5787 10.85C16.2115 10.8471 15.8476 10.9185 15.5087 11.06C15.1792 11.1961 14.8724 11.3815 14.5987 11.61C14.3692 11.8059 14.0995 11.9493 13.8087 12.03C13.6491 12.0721 13.4816 12.074 13.3211 12.0357C13.1605 11.9973 13.012 11.9197 12.8887 11.81C12.7396 11.7143 12.6138 11.5866 12.5204 11.436C12.4269 11.2855 12.3683 11.1161 12.3487 10.94C12.3409 10.7643 12.3718 10.589 12.4391 10.4266C12.5065 10.2642 12.6088 10.1185 12.7387 10C13.2289 9.49277 13.8176 9.0912 14.4687 8.82C15.1377 8.54296 15.8547 8.40025 16.5787 8.4C17.4458 8.39094 18.3008 8.60398 19.0622 9.01883C19.8236 9.43369 20.4662 10.0365 20.9287 10.77C21.3811 11.5061 21.6136 12.3561 21.5987 13.22C21.6075 13.8266 21.5059 14.4298 21.2987 15C21.0999 15.5026 20.8043 15.9613 20.4287 16.35C20.0472 16.7233 19.604 17.0277 19.1187 17.25C18.6013 17.4782 18.0569 17.6395 17.4987 17.73H17.4287C17.4235 17.7391 17.4207 17.7495 17.4207 17.76C17.4207 17.7705 17.4235 17.7809 17.4287 17.79V18.54C17.4328 18.7042 17.4039 18.8675 17.3438 19.0204C17.2837 19.1733 17.1935 19.3125 17.0787 19.43C16.8463 19.6614 16.5317 19.7914 16.2037 19.7914C15.8757 19.7914 15.5611 19.6614 15.3287 19.43C15.212 19.3139 15.1206 19.1749 15.0604 19.0217C15.0001 18.8685 14.9723 18.7045 14.9787 18.54L14.9987 17.07ZM16.1187 23.52C15.9535 23.5412 15.7855 23.5243 15.6279 23.4705C15.4702 23.4167 15.3269 23.3274 15.2091 23.2096C15.0913 23.0918 15.002 22.9486 14.9482 22.7909C14.8944 22.6332 14.8775 22.4653 14.8987 22.3V22C14.8775 21.8347 14.8944 21.6668 14.9482 21.5091C15.002 21.3514 15.0913 21.2082 15.2091 21.0904C15.3269 20.9726 15.4702 20.8833 15.6279 20.8295C15.7855 20.7757 15.9535 20.7588 16.1187 20.78H16.3887C16.5496 20.7687 16.711 20.793 16.8615 20.851C17.012 20.9091 17.1479 20.9995 17.2595 21.1159C17.3711 21.2323 17.4558 21.3719 17.5075 21.5247C17.5592 21.6774 17.5767 21.8397 17.5587 22V22.35C17.578 22.5149 17.5596 22.6819 17.5051 22.8387C17.4506 22.9955 17.3613 23.1379 17.2439 23.2552C17.1266 23.3726 16.9842 23.4619 16.8274 23.5164C16.6707 23.5709 16.5036 23.5892 16.3387 23.57L16.1187 23.52Z" fill="#000000"/>
</svg>
