<svg width="33" height="32" viewBox="0 0 33 32" fill="none" xmlns="http://www.w3.org/2000/svg">
<path d="M31.7101 28.1511L24.446 20.887C26.3235 18.3627 27.1761 15.2214 26.8326 12.0943C26.4891 8.96717 24.9749 6.08589 22.5941 4.0294C20.2134 1.9729 17.1426 0.89358 13.9988 1.00829C10.8549 1.123 7.87094 2.42324 5.64642 4.64776C3.4219 6.87229 2.12166 9.85625 2.00695 13.0001C1.89224 16.144 2.97156 19.2148 5.02805 21.5955C7.08454 23.9762 9.96582 25.4905 13.093 25.834C16.2201 26.1775 19.3614 25.3248 21.8856 23.4473L29.1498 30.7114C29.3357 30.8963 29.5872 31 29.8494 31C30.1116 31 30.3631 30.8963 30.549 30.7114L31.7101 29.5504C31.8949 29.3644 31.9987 29.1129 31.9987 28.8507C31.9987 28.5886 31.8949 28.337 31.7101 28.1511ZM3.68562 13.5732C3.68091 11.8159 4.10326 10.0838 4.91631 8.52585C5.72936 6.96793 6.90877 5.63089 8.35305 4.62977C9.79733 3.62866 11.4632 2.99345 13.2074 2.77882C14.9516 2.56418 16.7218 2.77655 18.3657 3.39764C20.0096 4.01873 21.4779 5.02994 22.6444 6.34426C23.811 7.65858 24.6406 9.23665 25.0621 10.9427C25.4836 12.6487 25.4843 14.4316 25.0641 16.1379C24.6438 17.8443 23.8153 19.4229 22.6498 20.7381L21.707 21.7305C20.143 23.1215 18.2092 24.0292 16.1399 24.3439C14.0706 24.6586 11.9544 24.3667 10.0476 23.5036C8.14071 22.6405 6.52492 21.2431 5.39581 19.4807C4.26669 17.7183 3.67266 15.6663 3.68562 13.5732Z" fill="#000000"/>
<path d="M14.532 6.74567C14.3346 6.74567 14.1453 6.82408 14.0057 6.96366C13.8661 7.10324 13.7877 7.29255 13.7877 7.48994C13.7877 7.68734 13.8661 7.87665 14.0057 8.01623C14.1453 8.1558 14.3346 8.23422 14.532 8.23422C15.948 8.23422 17.306 8.79671 18.3072 9.79796C19.3084 10.7992 19.8709 12.1572 19.8709 13.5732C19.8709 13.7706 19.9493 13.9599 20.0889 14.0994C20.2285 14.239 20.4178 14.3174 20.6152 14.3174C20.8126 14.3174 21.0019 14.239 21.1415 14.0994C21.2811 13.9599 21.3595 13.7706 21.3595 13.5732C21.3595 11.7624 20.6402 10.0258 19.3598 8.74539C18.0794 7.46499 16.3428 6.74567 14.532 6.74567Z" fill="#000000"/>
</svg>
