<svg width="32" height="32" viewBox="0 0 32 32" fill="none" xmlns="http://www.w3.org/2000/svg">
<circle cx="16" cy="16" r="15" fill="#FFF215" stroke="white" stroke-width="2"/>
<path d="M15.1447 9.94421H16.614C16.614 9.63512 16.614 9.3346 16.614 9.03194C16.6203 8.41643 17.0006 8.00161 17.5504 8.00698C18.0838 8.01235 18.4631 8.43628 18.4678 9.02658C18.4678 9.32011 18.4678 9.61687 18.4678 9.92865H20.7588C20.7588 9.62707 20.7588 9.32655 20.7588 9.02604C20.763 8.42019 21.127 8.0102 21.6699 8.00644C22.2128 8.00269 22.6105 8.42501 22.6126 9.03141C22.6162 9.95978 22.6126 10.8887 22.6126 11.8171V12.1165C23.4953 12.2973 24.2901 12.6365 24.963 13.216C26.6752 14.6918 27.3491 16.5791 26.8278 18.797C26.3017 21.038 24.8498 22.4525 22.6273 22.8926C20.7293 23.2682 19.0885 22.6473 17.7587 21.2097C17.3515 20.7691 17.3594 20.1804 17.7587 19.8005C18.158 19.4206 18.6998 19.4635 19.1264 19.9175C20.0796 20.9274 21.2343 21.3159 22.5647 20.9494C23.8951 20.5829 24.7183 19.6658 25.0445 18.306C25.4574 16.5888 24.509 14.7937 22.8845 14.1782C22.804 14.1476 22.7209 14.1246 22.612 14.0881V14.6381C22.612 15.5128 22.612 16.3881 22.612 17.2628C22.612 17.8976 22.2354 18.3312 21.6867 18.336C21.1733 18.3419 20.7398 17.8998 20.7493 17.2762C20.7714 15.5982 20.7567 13.9196 20.7567 12.241V11.9024H18.4689V12.1889C18.4689 13.171 18.4741 14.1535 18.4646 15.135C18.4612 15.3604 18.3794 15.5772 18.2338 15.7467C18.0882 15.9163 17.8883 16.0276 17.6698 16.0607C17.4465 16.0921 17.2196 16.0392 17.0318 15.9121C16.844 15.7849 16.7082 15.5922 16.6498 15.3701C16.622 15.2395 16.6105 15.1059 16.6156 14.9724C16.613 14.0532 16.6156 13.1334 16.6156 12.2142V11.9024H11.2304V12.2244C11.2304 13.9298 11.2304 15.6346 11.2304 17.3401C11.2304 17.9947 10.7417 18.423 10.1357 18.3178C9.69381 18.2411 9.38028 17.8423 9.37818 17.3325C9.37345 16.3596 9.37818 15.3867 9.37818 14.4133V14.0875C8.63803 14.3022 8.04096 14.7031 7.5975 15.31C6.75582 16.4589 6.60379 17.7194 7.18928 19.0181C7.76794 20.3017 8.79952 20.9891 10.182 21.0755C11.959 21.1861 13.5945 19.7002 13.7444 17.889C13.8233 16.9392 13.5961 16.0902 13.0416 15.325C12.7039 14.8587 12.7828 14.2711 13.2094 13.9464C13.636 13.6217 14.1847 13.7232 14.5408 14.2024C16.9386 17.427 15.1721 22.1295 11.2741 22.906C8.3892 23.4807 5.48751 21.3498 5.06194 18.3897C4.6169 15.3132 6.62588 12.6606 9.29875 12.139C9.32501 12.1288 9.35035 12.1162 9.3745 12.1015V11.8283C9.3745 10.8731 9.36924 9.91792 9.37765 8.96272C9.38186 8.47975 9.7259 8.0805 10.1531 8.01986C10.6265 7.95278 11.0352 8.2007 11.1794 8.65523C11.2135 8.78374 11.2298 8.91652 11.2278 9.04965C11.2346 9.34158 11.2278 9.6335 11.2278 9.93992H13.2715C13.2715 9.61794 13.2631 9.30563 13.2715 8.99599C13.2967 8.23236 14.0022 7.77462 14.6292 8.11323C14.9927 8.30964 15.1337 8.64074 15.1395 9.04268C15.1479 9.33353 15.1447 9.6276 15.1447 9.94421Z" fill="#454545"/>
</svg>
