<svg width="33" height="32" viewBox="0 0 33 32" fill="none" xmlns="http://www.w3.org/2000/svg">
<path d="M31.9987 15.25H23.6487L31.3287 8.46L30.3387 7.34L21.3887 15.25H17.7487V11.61L25.6587 2.66L24.5387 1.67L17.7487 9.35V1H16.2487V9.35L9.45866 1.67L8.33866 2.66L16.2487 11.61V15.25H12.6087L3.65866 7.34L2.66866 8.46L10.3487 15.25H1.99866V16.75H10.3487L2.66866 23.53L3.65866 24.66L12.6087 16.75H16.2487V20.39L8.33866 29.34L9.45866 30.33L16.2487 22.65V31H17.7487V22.65L24.5387 30.33L25.6587 29.34L17.7487 20.39V16.75H21.3887L30.3387 24.66L31.3287 23.53L23.6487 16.75H31.9987V15.25Z" fill="#FF5D52"/>
</svg>
