<svg width="32" height="32" viewBox="0 0 32 32" fill="none" xmlns="http://www.w3.org/2000/svg">
<path d="M28.43 1.00031H3.57C3.16492 0.992205 2.77297 1.14406 2.47908 1.42297C2.1852 1.70188 2.01307 2.08536 2 2.49031V18.8203C2.01307 19.2253 2.1852 19.6087 2.47908 19.8876C2.77297 20.1666 3.16492 20.3184 3.57 20.3103H9.82V21.3103C9.86759 21.6767 10.0561 22.0101 10.3455 22.2397C10.6349 22.4694 11.0024 22.5772 11.37 22.5403H14.25V29.7103C14.2215 30.0089 14.3097 30.3069 14.4961 30.5418C14.6826 30.7767 14.9528 30.9303 15.25 30.9703H16.75C17.0472 30.9303 17.3174 30.7767 17.5039 30.5418C17.6903 30.3069 17.7785 30.0089 17.75 29.7103V22.5703H20.63C20.9976 22.6072 21.3651 22.4994 21.6545 22.2697C21.9439 22.0401 22.1324 21.7067 22.18 21.3403V20.3403H28.43C28.6331 20.3443 28.8349 20.308 29.0239 20.2337C29.2129 20.1593 29.3854 20.0483 29.5313 19.907C29.6772 19.7657 29.7938 19.597 29.8742 19.4105C29.9547 19.224 29.9974 19.0234 30 18.8203V2.49031C29.9869 2.08536 29.8148 1.70188 29.5209 1.42297C29.227 1.14406 28.8351 0.992205 28.43 1.00031ZM28.5 17.6003C28.503 17.7529 28.4744 17.9045 28.4162 18.0456C28.3579 18.1867 28.2711 18.3143 28.1613 18.4204C28.0515 18.5264 27.921 18.6087 27.778 18.662C27.6349 18.7153 27.4824 18.7386 27.33 18.7303H4.6C4.44612 18.745 4.29088 18.7263 4.14495 18.6752C3.99903 18.6242 3.86589 18.5422 3.7547 18.4348C3.64351 18.3274 3.55691 18.1972 3.50085 18.0532C3.4448 17.9091 3.42063 17.7546 3.43 17.6003V3.60031C3.42867 3.44629 3.45802 3.29355 3.51634 3.151C3.57467 3.00844 3.6608 2.87893 3.76971 2.77002C3.87862 2.66111 4.00813 2.57498 4.15069 2.51665C4.29324 2.45833 4.44598 2.42898 4.6 2.43031H27.33C27.6342 2.42758 27.9274 2.54451 28.1462 2.75588C28.3651 2.96725 28.4921 3.25615 28.5 3.56031V17.6003Z" fill="#000000"/>
<path d="M24.06 7.38031H13.9C13.7011 7.38031 13.5103 7.45933 13.3697 7.59998C13.229 7.74063 13.15 7.9314 13.15 8.13031C13.15 8.32922 13.229 8.51998 13.3697 8.66064C13.5103 8.80129 13.7011 8.88031 13.9 8.88031H24.06C24.2589 8.88031 24.4497 8.80129 24.5904 8.66064C24.731 8.51998 24.81 8.32922 24.81 8.13031C24.81 7.9314 24.731 7.74063 24.5904 7.59998C24.4497 7.45933 24.2589 7.38031 24.06 7.38031Z" fill="#000000"/>
<path d="M24.06 12.4103H13.9C13.7011 12.4103 13.5103 12.4893 13.3697 12.63C13.229 12.7706 13.15 12.9614 13.15 13.1603C13.15 13.3592 13.229 13.55 13.3697 13.6906C13.5103 13.8313 13.7011 13.9103 13.9 13.9103H24.06C24.2589 13.9103 24.4497 13.8313 24.5904 13.6906C24.731 13.55 24.81 13.3592 24.81 13.1603C24.81 12.9614 24.731 12.7706 24.5904 12.63C24.4497 12.4893 24.2589 12.4103 24.06 12.4103Z" fill="#000000"/>
<path d="M8.62 9.38031C9.31035 9.38031 9.87 8.82067 9.87 8.13031C9.87 7.43995 9.31035 6.88031 8.62 6.88031C7.92964 6.88031 7.37 7.43995 7.37 8.13031C7.37 8.82067 7.92964 9.38031 8.62 9.38031Z" fill="#000000"/>
<path d="M8.62 14.4203C9.31035 14.4203 9.87 13.8607 9.87 13.1703C9.87 12.48 9.31035 11.9203 8.62 11.9203C7.92964 11.9203 7.37 12.48 7.37 13.1703C7.37 13.8607 7.92964 14.4203 8.62 14.4203Z" fill="#000000"/>
</svg>
