<svg width="33" height="32" viewBox="0 0 33 32" fill="none" xmlns="http://www.w3.org/2000/svg">
<path d="M17.2581 9.38795C17.8068 9.38795 17.9664 9.03678 17.6172 8.61538L15.2128 5.73578L13.9457 4.20066L11.5512 1.32106C11.4759 1.22127 11.3785 1.14036 11.2669 1.08466C11.1553 1.02895 11.0323 0.999969 10.9077 0.999969C10.7831 0.999969 10.6602 1.02895 10.5485 1.08466C10.4369 1.14036 10.3396 1.22127 10.2642 1.32106L7.85975 4.20066L6.5827 5.73578L4.18823 8.65551C3.82906 9.07692 3.98869 9.42809 4.53742 9.42809H10.1545V21.9799C10.1545 22.1795 10.2333 22.3709 10.3736 22.512C10.514 22.6532 10.7043 22.7324 10.9027 22.7324C11.1012 22.7324 11.2915 22.6532 11.4318 22.512C11.5722 22.3709 11.651 22.1795 11.651 21.9799V9.38795H17.2581Z" fill="#000000"/>
<path d="M29.4499 22.612H23.8429V10.0201C23.8429 9.82048 23.764 9.62907 23.6237 9.48795C23.4834 9.34683 23.293 9.26755 23.0946 9.26755C22.8961 9.26755 22.7058 9.34683 22.5655 9.48795C22.4251 9.62907 22.3463 9.82048 22.3463 10.0201V22.612H16.7393C16.1905 22.612 16.0309 22.9532 16.3801 23.3846L18.7746 26.2642L20.0616 27.7993L22.4561 30.7291C22.5316 30.827 22.6284 30.9063 22.7391 30.9608C22.8497 31.0153 22.9713 31.0436 23.0946 31.0436C23.2178 31.0436 23.3394 31.0153 23.4501 30.9608C23.5608 30.9063 23.6576 30.827 23.7331 30.7291L26.1276 27.8495L27.4146 26.3144L29.8091 23.4348C30.1583 22.9532 29.9987 22.612 29.4499 22.612Z" fill="#000000"/>
</svg>
