<svg width="32" height="32" viewBox="0 0 32 32" fill="none" xmlns="http://www.w3.org/2000/svg">
<path d="M29.2506 10.8087H14.9953L18.1643 2.91347C18.2512 2.69206 18.2812 2.45235 18.2515 2.21632C18.2218 1.98029 18.1334 1.75551 17.9943 1.56257C17.8561 1.37733 17.6742 1.22921 17.4649 1.13143C17.2556 1.03365 17.0254 0.989255 16.7947 1.0022H13.7957C13.3682 1.0195 12.9506 1.13609 12.5758 1.34276C12.2011 1.54943 11.8795 1.8405 11.6365 2.19299L7.03799 9.49786V9.18765C7.03799 8.92226 6.93267 8.66774 6.74519 8.48007C6.55772 8.29241 6.30345 8.18699 6.03832 8.18699H1.99967C1.73454 8.18699 1.48027 8.29241 1.2928 8.48007C1.10532 8.66774 1 8.92226 1 9.18765L1 30.0015C1 30.2669 1.10532 30.5214 1.2928 30.7091C1.48027 30.8968 1.73454 31.0022 1.99967 31.0022H6.06831C6.33344 31.0022 6.58771 30.8968 6.77518 30.7091C6.96266 30.5214 7.06798 30.2669 7.06798 30.0015V29.6813L22.6028 29.7614C23.0326 29.7462 23.4521 29.6262 23.825 29.4116C24.1978 29.1971 24.5127 28.8947 24.7421 28.5305L30.3802 18.9041C30.7657 18.1901 30.9748 17.3941 30.99 16.5826V12.5799C30.9926 12.3491 30.9497 12.1201 30.8636 11.9059C30.7775 11.6918 30.6499 11.4968 30.4883 11.3322C30.3266 11.1676 30.134 11.0366 29.9216 10.9468C29.7092 10.857 29.4812 10.81 29.2506 10.8087ZM29.5005 16.5826C29.4743 17.1023 29.338 17.6106 29.1006 18.0736L23.4625 27.71C23.3624 27.8452 23.235 27.9578 23.0886 28.0406C22.9423 28.1233 22.7801 28.1743 22.6128 28.1903L7.06798 28.1103V12.2397L12.936 2.92348C13.0434 2.78572 13.1777 2.67123 13.3306 2.58695C13.4836 2.50266 13.652 2.45034 13.8257 2.43315H16.6848L13.5058 10.3284C13.3961 10.5456 13.3456 10.7881 13.3596 11.0311C13.3736 11.2741 13.4515 11.5092 13.5855 11.7123C13.7195 11.9155 13.9047 12.0796 14.1224 12.1881C14.3402 12.2965 14.5827 12.3454 14.8254 12.3297H29.2506C29.3169 12.3297 29.3804 12.3561 29.4273 12.403C29.4742 12.4499 29.5005 12.5136 29.5005 12.5799V16.5826Z" fill="#000000"/>
</svg>
