<svg width="32" height="32" viewBox="0 0 32 32" fill="none" xmlns="http://www.w3.org/2000/svg">
<path d="M2.74942 21.1913L17.0047 21.1913L13.8357 29.0865C13.7488 29.3079 13.7188 29.5477 13.7485 29.7837C13.7782 30.0197 13.8666 30.2445 14.0057 30.4374C14.1439 30.6227 14.3258 30.7708 14.5351 30.8686C14.7444 30.9663 14.9746 31.0107 15.2053 30.9978L18.2043 30.9978C18.6318 30.9805 19.0494 30.8639 19.4242 30.6572C19.7989 30.4506 20.1205 30.1595 20.3635 29.807L24.962 22.5021L24.962 22.8123C24.962 23.0777 25.0673 23.3323 25.2548 23.5199C25.4423 23.7076 25.6966 23.813 25.9617 23.813L30.0003 23.813C30.2655 23.813 30.5197 23.7076 30.7072 23.5199C30.8947 23.3323 31 23.0777 31 22.8123L31 1.99847C31 1.73308 30.8947 1.47856 30.7072 1.2909C30.5197 1.10324 30.2655 0.997801 30.0003 0.997801L25.9317 0.9978C25.6666 0.9978 25.4123 1.10323 25.2248 1.29089C25.0373 1.47856 24.932 1.73308 24.932 1.99847L24.932 2.31868L9.3972 2.23863C8.96742 2.25379 8.54786 2.37385 8.17501 2.58836C7.80216 2.80288 7.48733 3.10535 7.25792 3.46945L1.6198 13.0959C1.2343 13.8099 1.0252 14.6059 1.01 15.4174L1.01 19.4201C1.00736 19.6509 1.05033 19.8799 1.13644 20.0941C1.22255 20.3082 1.3501 20.5032 1.51175 20.6678C1.6734 20.8324 1.86597 20.9634 2.07837 21.0532C2.29078 21.143 2.51883 21.19 2.74942 21.1913ZM2.4995 15.4174C2.52575 14.8977 2.66205 14.3894 2.89937 13.9264L8.53749 4.29C8.6376 4.15481 8.76497 4.04219 8.91135 3.95944C9.05773 3.87669 9.21986 3.82567 9.38721 3.80968L24.932 3.88973L24.932 19.7603L19.064 29.0765C18.9566 29.2143 18.8223 29.3288 18.6694 29.4131C18.5164 29.4973 18.348 29.5497 18.1743 29.5668L15.3152 29.5668L18.4942 21.6716C18.6039 21.4544 18.6544 21.2119 18.6404 20.9689C18.6264 20.7259 18.5485 20.4908 18.4145 20.2877C18.2805 20.0845 18.0953 19.9204 17.8776 19.8119C17.6598 19.7035 17.4173 19.6546 17.1746 19.6703L2.74942 19.6703C2.68314 19.6703 2.61957 19.6439 2.5727 19.597C2.52583 19.5501 2.4995 19.4864 2.4995 19.4201L2.4995 15.4174Z" fill="#000000"/>
</svg>
