<svg width="32" height="32" viewBox="0 0 32 32" fill="none" xmlns="http://www.w3.org/2000/svg">
<path d="M13.1465 13.1383C13.4547 12.8439 13.6348 12.4399 13.6476 12.0138C13.6604 11.5878 13.5049 11.1738 13.2149 10.8614C13.0614 10.7154 12.8805 10.6013 12.6826 10.5256C12.4848 10.45 12.2739 10.4143 12.0622 10.4206C11.8504 10.427 11.6421 10.4753 11.4491 10.5627C11.2562 10.6501 11.0824 10.7748 10.938 10.9298C10.626 11.2216 10.4426 11.6252 10.428 12.0521C10.4133 12.4789 10.5686 12.8942 10.8598 13.2067C11.1727 13.4997 11.5888 13.657 12.0173 13.6442C12.4457 13.6314 12.8517 13.4495 13.1465 13.1383V13.1383Z" fill="#000000"/>
<path d="M30.6775 18.933L13.088 1.34344C12.854 1.12286 12.5447 1 12.2231 1C11.9016 1 11.5922 1.12286 11.3583 1.34344L1.36158 11.4184C1.24631 11.5319 1.15494 11.6673 1.09284 11.8166C1.03074 11.966 0.99918 12.1263 1.00002 12.2881C1.00069 12.4467 1.03301 12.6036 1.0951 12.7496C1.15718 12.8956 1.24778 13.0277 1.36158 13.1382L18.9512 30.7278C19.0506 30.8293 19.1692 30.91 19.3 30.9653C19.4308 31.0207 19.5713 31.0496 19.7134 31.0503C19.7814 31.0599 19.8505 31.0599 19.9186 31.0503C20.0904 31.0132 20.2499 30.9327 20.3816 30.8163C20.5134 30.7 20.613 30.5517 20.671 30.3858L22.8404 24.9623L23.0652 24.5128C23.3762 23.9642 23.8283 23.5088 24.3746 23.1936L24.8925 22.9298L30.316 20.6627C30.4794 20.5993 30.6247 20.4966 30.7389 20.3636C30.8531 20.2306 30.9327 20.0716 30.9707 19.9004C31.0067 19.7275 30.9987 19.5484 30.9475 19.3793C30.8963 19.2103 30.8034 19.0569 30.6775 18.933V18.933ZM13.3029 22.9884L7.71337 17.4281L9.66777 15.4737C9.80502 15.3363 9.88211 15.15 9.88211 14.9558C9.88211 14.7616 9.80502 14.5753 9.66777 14.4379C9.60039 14.3688 9.51986 14.3138 9.43091 14.2763C9.34196 14.2388 9.24639 14.2194 9.14985 14.2194C9.05331 14.2194 8.95775 14.2388 8.8688 14.2763C8.77985 14.3138 8.69931 14.3688 8.63194 14.4379L6.67754 16.3923L2.56353 12.2881L12.2671 2.59425L16.3713 6.69849L14.417 8.65288C14.2797 8.7903 14.2026 8.97658 14.2026 9.1708C14.2026 9.36502 14.2797 9.5513 14.417 9.68872C14.4846 9.75723 14.5653 9.81153 14.6542 9.84845C14.7432 9.88537 14.8386 9.90415 14.9349 9.9037C15.0314 9.90588 15.1273 9.88788 15.2165 9.85086C15.3057 9.81384 15.3862 9.75862 15.4528 9.68872L17.4072 7.73432L22.987 13.3141L13.3029 22.9884ZM22.899 20.2522L20.2313 22.9102C20.164 22.9792 20.0834 23.0338 19.9943 23.0707C19.9053 23.1077 19.8097 23.1262 19.7134 23.1252C19.6171 23.1257 19.5217 23.1069 19.4327 23.07C19.3438 23.033 19.2631 22.9787 19.1955 22.9102C19.0582 22.7728 18.9811 22.5865 18.9811 22.3923C18.9811 22.1981 19.0582 22.0118 19.1955 21.8744L21.8632 19.2066C22.0006 19.0694 22.1869 18.9923 22.3811 18.9923C22.5753 18.9923 22.7616 19.0694 22.899 19.2066C22.9685 19.2748 23.0236 19.3562 23.0613 19.446C23.0989 19.5357 23.1183 19.6321 23.1183 19.7294C23.1183 19.8268 23.0989 19.9231 23.0613 20.0129C23.0236 20.1027 22.9685 20.184 22.899 20.2522V20.2522Z" fill="#000000"/>
</svg>
