<svg width="26" height="26" viewBox="0 0 26 26" fill="none" xmlns="http://www.w3.org/2000/svg">
<path d="M24.6587 15.1029L10.9674 1.37139C10.8508 1.25455 10.7124 1.16184 10.5599 1.09859C10.4075 1.03533 10.2441 1.00278 10.0791 1.00278C9.91402 1.00278 9.7506 1.03533 9.59817 1.09859C9.44573 1.16184 9.30727 1.25455 9.19072 1.37139L1.36136 9.15057C1.12866 9.3896 0.998929 9.71032 1.00001 10.0439C0.999405 10.3745 1.12926 10.6919 1.36136 10.9272L15.1029 24.6587C15.1992 24.7684 15.3182 24.8557 15.4517 24.9146C15.5852 24.9736 15.7299 25.0027 15.8758 25C15.9457 25.0099 16.0167 25.0099 16.0866 25C16.2642 24.9617 16.4291 24.879 16.566 24.7597C16.703 24.6403 16.8074 24.4881 16.8695 24.3174L18.877 19.3789C19.0107 19.2252 19.1549 19.081 19.3087 18.9473L24.3275 16.9398C24.4983 16.8774 24.6502 16.7722 24.7688 16.6344C24.8874 16.4966 24.9687 16.3307 25.0049 16.1525C25.0412 15.9743 25.0311 15.7898 24.9758 15.6166C24.9205 15.4434 24.8217 15.2873 24.6888 15.1631L24.6587 15.1029ZM18.5759 16.478L16.468 18.5859C16.327 18.7272 16.1356 18.8066 15.936 18.8068C15.7373 18.8025 15.5474 18.7236 15.404 18.5859C15.263 18.4448 15.1839 18.2535 15.1839 18.054C15.1839 17.8545 15.263 17.6631 15.404 17.522L17.5119 15.404C17.5824 15.3342 17.666 15.2789 17.7579 15.2413C17.8498 15.2037 17.9482 15.1847 18.0475 15.1851C18.1467 15.1856 18.2449 15.2056 18.3365 15.244C18.428 15.2824 18.5111 15.3385 18.5809 15.409C18.6508 15.4796 18.7061 15.5631 18.7436 15.655C18.7812 15.7469 18.8003 15.8453 18.7998 15.9446C18.7994 16.0438 18.7793 16.142 18.7409 16.2336C18.7025 16.3251 18.6464 16.4082 18.5759 16.478ZM10.0339 2.60602L13.0452 5.61731L11.5897 7.06273C11.4839 7.16862 11.4121 7.30363 11.3834 7.45052C11.3548 7.59741 11.3705 7.74952 11.4287 7.88741C11.4869 8.02531 11.5848 8.14274 11.7101 8.2247C11.8353 8.30666 11.9821 8.34943 12.1318 8.34755C12.2307 8.34802 12.3287 8.32873 12.42 8.29081C12.5114 8.25289 12.5942 8.1971 12.6637 8.12673L14.1092 6.71142L18.4153 11.0176H18.3551L11.0276 18.345C11.0247 18.365 11.0247 18.3853 11.0276 18.4053L6.68131 14.1092L8.12673 12.6637C8.26771 12.5226 8.3469 12.3312 8.3469 12.1317C8.3469 11.9322 8.26771 11.7409 8.12673 11.5997C8.05753 11.5287 7.9748 11.4723 7.88343 11.4337C7.79206 11.3952 7.6939 11.3753 7.59474 11.3753C7.49557 11.3753 7.39741 11.3952 7.30604 11.4337C7.21467 11.4723 7.13195 11.5287 7.06274 11.5997L5.61732 13.0452L2.60603 10.0339L10.0339 2.60602Z" fill="#000000"/>
<path d="M10.7365 10.7265C10.8943 10.5451 10.9958 10.3216 11.0284 10.0835C11.0609 9.84528 11.0233 9.60277 10.92 9.38568C10.8168 9.16859 10.6524 8.98637 10.447 8.86139C10.2416 8.73641 10.0043 8.6741 9.76399 8.68211C9.52373 8.69012 9.29103 8.7681 9.09445 8.90648C8.89787 9.04486 8.74596 9.23762 8.65738 9.4611C8.56879 9.68458 8.54738 9.92907 8.59576 10.1646C8.64415 10.4 8.76023 10.6163 8.92976 10.7867C9.17812 11.0167 9.50722 11.1394 9.84553 11.1281C10.1838 11.1168 10.504 10.9725 10.7365 10.7265Z" fill="#000000"/>
</svg>
