<svg width="32" height="32" viewBox="0 0 32 32" fill="none" xmlns="http://www.w3.org/2000/svg">
<circle cx="16" cy="16" r="15" fill="#77E4D7" stroke="white" stroke-width="2"/>
<path d="M12.6385 17.791C12.7011 17.8532 12.7757 17.9025 12.8579 17.936C12.9401 17.9695 13.0284 17.9866 13.1174 17.9862C13.2067 17.9882 13.2954 17.9718 13.3778 17.9382C13.4603 17.9046 13.5347 17.8544 13.5963 17.791C13.6603 17.7298 13.7111 17.6566 13.7458 17.5759C13.7805 17.4951 13.7983 17.4083 13.7983 17.3206C13.7983 17.233 13.7805 17.1462 13.7458 17.0654C13.7111 16.9846 13.6603 16.9115 13.5963 16.8503C13.1766 16.4371 12.6781 16.1093 12.1292 15.8856C11.5803 15.6619 10.9918 15.5468 10.3975 15.5468C9.80325 15.5468 9.2148 15.6619 8.6659 15.8856C8.117 16.1093 7.61843 16.4371 7.19874 16.8503C7.07903 16.9765 7.01385 17.1433 7.01695 17.3158C7.02005 17.4882 7.09117 17.6527 7.21534 17.7746C7.33951 17.8966 7.50703 17.9664 7.6826 17.9695C7.85817 17.9725 8.0281 17.9085 8.15657 17.791C8.75123 17.2079 9.55721 16.8804 10.3975 16.8804C11.2379 16.8804 12.0438 17.2079 12.6385 17.791Z" fill="#454545"/>
<path d="M22.3614 17.6668L20.0572 7.55031C20.0243 7.40236 19.941 7.26985 19.8211 7.17466C19.7011 7.07947 19.5517 7.02729 19.3975 7.02673H16.8674C16.7229 7.06433 16.5951 7.14781 16.5039 7.26418C16.4127 7.38055 16.3632 7.52327 16.3632 7.67011C16.3632 7.81695 16.4127 7.95966 16.5039 8.07603C16.5951 8.1924 16.7229 8.27588 16.8674 8.31348H18.8554L21.0421 17.9153C21.0421 17.9153 21.0421 17.9153 21.0421 17.9774C20.6253 18.2102 20.2815 18.5509 20.0481 18.9624H12.6295C12.3105 18.4672 11.8341 18.0892 11.2741 17.887C10.7141 17.6848 10.1019 17.6696 9.53222 17.8439C8.96258 18.0182 8.4674 18.3722 8.12345 18.8509C7.77951 19.3297 7.60601 19.9066 7.62985 20.492C7.6537 21.0775 7.87356 21.6389 8.25535 22.0892C8.63714 22.5395 9.15952 22.8535 9.74152 22.9825C10.3235 23.1115 10.9326 23.0484 11.4743 22.8029C12.0161 22.5574 12.4602 22.1432 12.7379 21.6246H20.0481C20.2851 22.0187 20.6232 22.3449 21.0286 22.5707C21.434 22.7964 21.8926 22.9139 22.3586 22.9113C22.8247 22.9087 23.2819 22.7861 23.6846 22.5558C24.0874 22.3255 24.4217 21.9956 24.6541 21.5989C24.8864 21.2021 25.0089 20.7525 25.0091 20.2948C25.0094 19.8371 24.8874 19.3874 24.6554 18.9904C24.4234 18.5934 24.0896 18.2631 23.687 18.0324C23.2845 17.8018 22.8274 17.6787 22.3614 17.6757V17.6668ZM10.3975 21.669C10.1388 21.6672 9.88637 21.5903 9.67209 21.4478C9.45781 21.3054 9.29128 21.1038 9.1935 20.8685C9.09572 20.6333 9.07105 20.3748 9.12263 20.1258C9.1742 19.8768 9.29969 19.6484 9.48329 19.4693C9.66688 19.2902 9.90036 19.1686 10.1543 19.1196C10.4082 19.0707 10.6712 19.0967 10.9101 19.1943C11.1489 19.292 11.353 19.4569 11.4966 19.6683C11.6402 19.8797 11.7168 20.1281 11.7168 20.3823C11.7168 20.552 11.6826 20.72 11.6162 20.8767C11.5498 21.0334 11.4525 21.1757 11.3299 21.2953C11.2072 21.4149 11.0617 21.5095 10.9017 21.5736C10.7417 21.6377 10.5704 21.6702 10.3975 21.669ZM22.3343 21.5714C22.0751 21.5714 21.8218 21.4959 21.6064 21.3545C21.3909 21.2131 21.223 21.0122 21.1238 20.7771C21.0246 20.5419 20.9987 20.2832 21.0492 20.0336C21.0998 19.784 21.2246 19.5547 21.4078 19.3748C21.5911 19.1948 21.8245 19.0723 22.0787 19.0226C22.3328 18.973 22.5963 18.9985 22.8357 19.0958C23.0751 19.1932 23.2797 19.3582 23.4237 19.5698C23.5677 19.7814 23.6445 20.0301 23.6445 20.2846C23.6445 20.6259 23.5065 20.9532 23.2608 21.1945C23.0151 21.4358 22.6818 21.5714 22.3343 21.5714Z" fill="#454545"/>
</svg>
