<svg width="33" height="32" viewBox="0 0 33 32" fill="none" xmlns="http://www.w3.org/2000/svg">
<path d="M18.8267 8.0995C19.5266 8.08766 20.2073 7.86919 20.7834 7.47155C21.3594 7.07391 21.8051 6.51484 22.0643 5.86463C22.3235 5.21443 22.3847 4.5021 22.2402 3.8172C22.0957 3.1323 21.752 2.50541 21.2522 2.01532C20.7524 1.52524 20.1189 1.19383 19.4313 1.06278C18.7437 0.931722 18.0327 1.00687 17.3877 1.27876C16.7427 1.55066 16.1925 2.00716 15.8062 2.59089C15.4199 3.17462 15.2148 3.85953 15.2167 4.5595C15.2272 5.50724 15.6132 6.41213 16.2899 7.07573C16.9667 7.73934 17.8789 8.1075 18.8267 8.0995ZM18.8267 2.51949C19.2185 2.53518 19.597 2.66568 19.9152 2.89475C20.2334 3.12383 20.4773 3.44139 20.6164 3.80794C20.7556 4.17449 20.784 4.57387 20.698 4.95641C20.6121 5.33896 20.4155 5.68781 20.1329 5.95957C19.8503 6.23133 19.494 6.41401 19.1084 6.48492C18.7228 6.55583 18.3248 6.51182 17.964 6.35838C17.6032 6.20493 17.2954 5.94882 17.079 5.62187C16.8626 5.29493 16.747 4.91158 16.7467 4.51949C16.7649 3.98098 16.9924 3.4708 17.3808 3.09734C17.7692 2.72389 18.2879 2.51658 18.8267 2.51949Z" fill="#000000"/>
<path d="M27.4067 17.4195L23.0167 16.4195C22.6261 16.2966 22.2925 16.0375 22.0767 15.6895L19.6167 10.7895C19.5194 10.5736 19.3696 10.3855 19.1809 10.2422C18.9923 10.099 18.7708 10.0053 18.5367 9.96949L16.6367 9.75949C16.4526 9.74827 16.2682 9.77634 16.0958 9.84186C15.9234 9.90737 15.7669 10.0088 15.6367 10.1395C15.6367 10.1395 15.5667 10.1395 15.5467 10.1895L11.8467 12.8495C11.2117 13.3809 10.7286 14.0709 10.4467 14.8495L8.76672 19.7395C8.7355 19.8334 8.72316 19.9325 8.73041 20.0312C8.73767 20.1298 8.76437 20.2261 8.80899 20.3144C8.8536 20.4027 8.91525 20.4813 8.99038 20.5457C9.0655 20.61 9.15262 20.6589 9.24672 20.6895C9.32643 20.6991 9.40701 20.6991 9.48672 20.6895C9.6459 20.6891 9.80116 20.6401 9.93165 20.5489C10.0621 20.4577 10.1616 20.3288 10.2167 20.1795L11.9067 15.2895C12.0969 14.8204 12.399 14.4049 12.7867 14.0795L15.0367 12.3995L14.4367 19.0795L16.1267 21.2995L23.2767 30.6895C23.3481 30.7834 23.4404 30.8594 23.5463 30.9115C23.6522 30.9636 23.7687 30.9903 23.8867 30.9895C24.052 30.9888 24.2128 30.9364 24.3467 30.8395C24.4274 30.782 24.4957 30.7089 24.5476 30.6245C24.5995 30.5402 24.6339 30.4462 24.6488 30.3483C24.6637 30.2504 24.6588 30.1505 24.6344 30.0545C24.61 29.9585 24.5666 29.8684 24.5067 29.7895L18.3267 21.6795L19.4567 13.8495L20.7067 16.3395C20.9215 16.7147 21.2091 17.0433 21.5525 17.3061C21.8959 17.5688 22.2883 17.7603 22.7067 17.8695L27.0367 18.8495C27.0963 18.859 27.1571 18.859 27.2167 18.8495C27.3881 18.8486 27.5544 18.7914 27.69 18.6865C27.8255 18.5817 27.9228 18.4351 27.9667 18.2695C27.995 18.0836 27.9535 17.8939 27.85 17.7369C27.7466 17.5799 27.5887 17.4668 27.4067 17.4195Z" fill="#000000"/>
<path d="M13.9568 20.9895L11.6168 24.8495C11.2938 25.3416 10.9071 25.7889 10.4668 26.1795L6.2668 29.7195C6.19104 29.783 6.12858 29.8609 6.08303 29.9486C6.03747 30.0364 6.00971 30.1323 6.00135 30.2308C5.99298 30.3293 6.00418 30.4285 6.03429 30.5227C6.0644 30.6168 6.11283 30.7041 6.1768 30.7795C6.31316 30.9307 6.50265 31.0235 6.70574 31.0384C6.90883 31.0533 7.10983 30.9892 7.2668 30.8595L11.4668 27.3195C12.0237 26.8209 12.5144 26.253 12.9268 25.6295L14.9268 22.3195L13.9568 20.9895Z" fill="#000000"/>
</svg>
