<svg width="33" height="32" viewBox="0 0 33 32" fill="none" xmlns="http://www.w3.org/2000/svg">
<path d="M13.8391 1C13.0873 1.0052 12.3676 1.30537 11.8351 1.83586C11.3025 2.36635 10.9997 3.08472 10.9918 3.83623C10.9918 4.59294 11.2912 5.31895 11.8246 5.85589C12.358 6.39283 13.0821 6.69713 13.8391 6.7024C14.5842 6.67201 15.2897 6.35848 15.8114 5.82582C16.3331 5.29316 16.6318 4.58155 16.6464 3.83623C16.6491 3.08839 16.3551 2.36997 15.829 1.83836C15.3028 1.30675 14.5872 1.00528 13.8391 1ZM14.6184 7.35153C14.3171 7.34343 14.0173 7.39683 13.7373 7.50844C13.4573 7.62005 13.203 7.78754 12.9899 8.00067C12.7615 8.24128 12.5871 8.52793 12.4786 8.84141C12.37 9.15489 12.3298 9.48794 12.3605 9.81824L14.019 17.9075C14.1124 18.3534 14.3555 18.754 14.7081 19.0429C15.0606 19.3317 15.5013 19.4913 15.9571 19.4953C18.2749 19.4953 20.7825 19.4354 23.1502 19.4953L27.1464 26.486C27.2479 26.7052 27.4003 26.897 27.5908 27.0455C27.7814 27.194 28.0046 27.295 28.242 27.3399C28.4795 27.3848 28.7242 27.3725 28.9558 27.3038C29.1875 27.2352 29.3995 27.1124 29.5741 26.9454C29.7846 26.7267 29.9248 26.45 29.9764 26.151C30.028 25.8519 29.9888 25.5442 29.8638 25.2676L25.2382 17.1485C25.0734 16.8074 24.8149 16.5202 24.493 16.3203C24.171 16.1205 23.7989 16.0164 23.42 16.02H18.2849L17.6755 13.024H21.6716C21.8693 13.0479 22.0698 13.0227 22.2554 12.9505C22.4409 12.8783 22.6058 12.7614 22.7353 12.6103C22.8648 12.4591 22.9549 12.2783 22.9977 12.0839C23.0404 11.8895 23.0345 11.6876 22.9804 11.496C22.9025 11.253 22.7531 11.0391 22.5517 10.8823C22.3503 10.7256 22.1062 10.6331 21.8515 10.6172H17.136C16.8962 9.38882 16.9362 8.61985 15.9971 7.80094C15.6029 7.49598 15.1168 7.33398 14.6184 7.34155V7.35153ZM10.7521 12.1651C10.626 12.1505 10.4986 12.1505 10.3724 12.1651C8.52779 12.8985 6.92543 14.1335 5.74686 15.7304C4.6099 17.374 4.00012 19.3246 3.99854 21.3229C4.04902 23.8916 5.09485 26.3405 6.91574 28.1538C8.80837 29.944 11.3038 30.9596 13.9091 31C15.9435 30.9767 17.9279 30.3663 19.6236 29.2423C21.2774 28.093 22.545 26.4708 23.2601 24.5886C23.408 24.2117 23.5282 23.8245 23.6198 23.4301C23.6548 23.2739 23.6582 23.1123 23.6297 22.9547C23.6012 22.7972 23.5414 22.647 23.4538 22.5129C23.3663 22.3789 23.2528 22.2637 23.12 22.1743C22.9872 22.0848 22.8378 22.0228 22.6807 21.992C22.5252 21.9567 22.3642 21.9524 22.2071 21.9796C22.0499 22.0067 21.8997 22.0646 21.7651 22.15C21.6304 22.2354 21.514 22.3466 21.4225 22.4772C21.331 22.6077 21.2663 22.7551 21.2321 22.9108C21.1726 23.2122 21.0822 23.5067 20.9623 23.7896C20.4071 25.1921 19.4561 26.403 18.2249 27.275C16.948 28.1331 15.4476 28.5983 13.9091 28.6132C11.9462 28.5805 10.0658 27.8186 8.6341 26.476C7.2615 25.1086 6.47657 23.2598 6.44619 21.3229C6.47254 19.841 6.93465 18.3996 7.77492 17.1784C8.65859 15.9722 9.86314 15.0379 11.2516 14.482C11.4014 14.4317 11.5395 14.3518 11.6577 14.2471C11.776 14.1424 11.872 14.015 11.94 13.8725C12.008 13.7299 12.0467 13.5752 12.0537 13.4174C12.0608 13.2596 12.036 13.1021 11.9809 12.9541C11.8784 12.7177 11.7053 12.5189 11.4853 12.3848C11.2653 12.2507 11.0092 12.1879 10.7521 12.2051V12.1651Z" fill="#000000"/>
</svg>
