<svg width="15" height="15" viewBox="0 0 15 15" fill="none" xmlns="http://www.w3.org/2000/svg">
<rect x="0.5" y="0.5" width="14" height="14" rx="1.5" fill="white" stroke="#4F86D8"/>
<path d="M6.57394 2C5.95696 2.00443 5.46815 2.47828 5.44183 3.12006C5.44632 3.74456 5.92519 4.22859 6.57394 4.25245C7.15164 4.24463 7.6648 3.76834 7.694 3.12006C7.68961 2.4981 7.21355 2.02836 6.57394 2ZM6.88694 4.50521C6.63 4.50521 6.4132 4.5915 6.23654 4.76413C6.09301 4.90819 5.93232 5.22592 5.98379 5.48096H5.97174L6.63419 8.67272C6.70251 9.03831 7.0034 9.27405 7.40509 9.29903C8.32785 9.29649 9.32844 9.27554 10.2715 9.28698L11.8615 12.0573C12.0404 12.4349 12.4985 12.5144 12.8311 12.238C12.9906 12.0797 13.0552 11.8104 12.9454 11.5756L11.1027 8.37148C10.9699 8.09678 10.7079 7.94203 10.3799 7.92592H8.33234L8.09163 6.74562H9.6934C10.0397 6.77124 10.2891 6.50697 10.2174 6.14342C10.1647 5.96578 9.98067 5.80223 9.7657 5.79398H7.88679C7.7921 5.30998 7.80717 5.0174 7.43507 4.68597C7.27849 4.56551 7.09571 4.50521 6.88694 4.50521ZM5.1591 5.87126C5.10819 5.872 5.05752 5.8784 5.00803 5.89036C4.29849 6.16644 3.66016 6.64088 3.16526 7.29962C2.72917 7.91457 2.48536 8.65481 2.46667 9.46772C2.47394 10.4312 2.88764 11.4199 3.62905 12.1657C4.34766 12.8501 5.34511 13.2633 6.41729 13.2858C7.19932 13.2815 7.98107 13.0505 8.69385 12.5934C9.33404 12.1585 9.83573 11.5345 10.139 10.7565C10.1952 10.62 10.2434 10.4672 10.2836 10.2986C10.3423 10.0335 10.1936 9.81814 9.9103 9.73252C9.65266 9.67544 9.42226 9.8176 9.3322 10.094C9.30826 10.2139 9.27192 10.3309 9.22375 10.4432C9.0192 10.984 8.63848 11.4522 8.13367 11.8163C7.64288 12.15 7.05509 12.3318 6.41729 12.3462C5.6588 12.3408 4.92821 12.0517 4.31561 11.5033C3.78923 10.9929 3.45994 10.2627 3.44243 9.46772C3.44579 8.90103 3.62828 8.34182 3.97233 7.83569C4.30973 7.36727 4.78205 7.00551 5.35748 6.76971C5.59997 6.69019 5.7306 6.43913 5.64639 6.16751C5.56505 5.97226 5.37342 5.86836 5.1591 5.87126Z" fill="#4F86D8"/>
</svg>
