<svg width="32" height="32" viewBox="0 0 32 32" fill="none" xmlns="http://www.w3.org/2000/svg">
<path d="M29.24 5.91H20.42C20.4299 5.78353 20.4299 5.65647 20.42 5.53C20.42 4.32857 19.9427 3.17635 19.0932 2.32681C18.2437 1.47727 17.0914 1 15.89 1C14.6886 1 13.5363 1.47727 12.6868 2.32681C11.8373 3.17635 11.36 4.32857 11.36 5.53C11.36 5.66 11.36 5.78 11.36 5.91H2.76C2.52887 5.91 2.30001 5.95553 2.08648 6.04398C1.87294 6.13242 1.67892 6.26206 1.51549 6.42549C1.18543 6.75556 1 7.20322 1 7.67V29.24C1 29.7068 1.18543 30.1544 1.51549 30.4845C1.84556 30.8146 2.29322 31 2.76 31H29.24C29.7068 31 30.1544 30.8146 30.4845 30.4845C30.8146 30.1544 31 29.7068 31 29.24V7.67C31 7.20322 30.8146 6.75556 30.4845 6.42549C30.1544 6.09543 29.7068 5.91 29.24 5.91ZM12.89 5.53C12.89 4.72507 13.2098 3.9531 13.7789 3.38393C14.3481 2.81475 15.1201 2.49501 15.925 2.49501C16.7299 2.49501 17.5019 2.81475 18.0711 3.38393C18.6402 3.9531 18.96 4.72507 18.96 5.53C18.96 5.66 18.96 5.78 18.96 5.91H12.95C12.9201 5.78511 12.9 5.65804 12.89 5.53ZM2.76 7.40001H29.24C29.275 7.39998 29.3096 7.40701 29.3419 7.4207C29.3741 7.43439 29.4032 7.45445 29.4275 7.47966C29.4518 7.50487 29.4707 7.53472 29.4832 7.56743C29.4956 7.60014 29.5013 7.63502 29.5 7.67V14.51H2.5V7.67C2.49865 7.63502 2.50438 7.60014 2.51685 7.56743C2.52931 7.53472 2.54825 7.50487 2.57252 7.47966C2.5968 7.45445 2.62592 7.43439 2.65814 7.4207C2.69035 7.40701 2.725 7.39998 2.76 7.40001ZM29.24 29.5H2.76C2.69104 29.5 2.62491 29.4726 2.57615 29.4238C2.52739 29.3751 2.5 29.309 2.5 29.24V19.5H29.5V29.24C29.5 29.309 29.4726 29.3751 29.4238 29.4238C29.3751 29.4726 29.309 29.5 29.24 29.5Z" fill="#000000"/>
<path d="M18.02 22.51H13.79C13.5911 22.51 13.4004 22.589 13.2597 22.7297C13.1191 22.8703 13.04 23.0611 13.04 23.26C13.04 23.4589 13.1191 23.6497 13.2597 23.7903C13.4004 23.931 13.5911 24.01 13.79 24.01H18.02C18.219 24.01 18.4097 23.931 18.5504 23.7903C18.691 23.6497 18.77 23.4589 18.77 23.26C18.77 23.0611 18.691 22.8703 18.5504 22.7297C18.4097 22.589 18.219 22.51 18.02 22.51Z" fill="#000000"/>
</svg>
