<svg width="28" height="28" viewBox="0 0 28 28" fill="none" xmlns="http://www.w3.org/2000/svg">
<circle cx="14" cy="14" r="14" fill="white"/>
<path d="M23.9298 16.0517C23.7861 15.3477 23.4196 14.713 22.8879 14.2471C22.3562 13.7812 21.6895 13.5107 20.9925 13.478L18.9875 8H16.5113C16.3119 8 16.1206 8.08167 15.9796 8.22705C15.8386 8.37243 15.7594 8.5696 15.7594 8.77519C15.7594 8.98079 15.8386 9.17796 15.9796 9.32334C16.1206 9.46872 16.3119 9.55039 16.5113 9.55039H17.985L19.7293 14.2429L18.1153 16.7959H13.5238V14.2946C13.4923 13.6434 13.2322 13.0263 12.792 12.5581L12.2907 12.0413C11.7994 11.6237 11.1921 11.3776 10.5564 11.3385H5.00251C4.73663 11.3385 4.48163 11.4474 4.29363 11.6412C4.10562 11.8351 4 12.098 4 12.3721V13.8811C4.01541 14.1847 4.11936 14.4763 4.29823 14.7179C4.47711 14.9595 4.72258 15.1398 5.00251 15.2351L5.46366 15.4005C5.29578 15.8095 5.20723 16.2484 5.20301 16.6925C5.2079 17.4024 5.43767 18.0911 5.85735 18.6539C6.27702 19.2167 6.86359 19.6226 7.52772 19.8099C8.19186 19.9971 8.89716 19.9555 9.53621 19.6913C10.1753 19.4271 10.7131 18.9547 11.0677 18.3463H18.0852C18.3617 18.8442 18.7598 19.2589 19.24 19.549C19.7201 19.8391 20.2656 19.9946 20.8221 20C21.0443 19.9964 21.2657 19.9722 21.4837 19.9277C21.8914 19.8392 22.2782 19.6687 22.6218 19.4259C22.9655 19.1831 23.2594 18.8728 23.4866 18.5128C23.7138 18.1528 23.8699 17.7501 23.946 17.3278C24.022 16.9054 24.0165 16.4718 23.9298 16.0517ZM8.33083 18.4496C8.11097 18.4496 7.89327 18.405 7.69014 18.3182C7.48702 18.2315 7.30246 18.1043 7.147 17.9441C6.99154 17.7838 6.86822 17.5935 6.78408 17.3841C6.69995 17.1746 6.65664 16.9502 6.65664 16.7235C6.66148 16.4456 6.7302 16.1729 6.85714 15.9276L9.13283 16.7235C9.40911 16.8077 9.6904 16.8733 9.97494 16.9199C9.93067 17.3384 9.73868 17.7256 9.43551 18.0077C9.13235 18.2897 8.73918 18.447 8.33083 18.4496ZM22.2256 17.6641C22.1075 17.8546 21.9535 18.0187 21.7726 18.1465C21.5918 18.2744 21.3878 18.3634 21.1729 18.4083C21.0562 18.4188 20.9388 18.4188 20.8221 18.4083C20.5341 18.4051 20.2518 18.3255 20.0024 18.177C19.7531 18.0286 19.545 17.8163 19.3985 17.5607L20.9925 15.0181C21.3389 15.0604 21.6637 15.2138 21.921 15.4568C22.1782 15.6998 22.3549 16.02 22.4261 16.3721C22.4785 16.5903 22.4877 16.8171 22.4533 17.0391C22.4188 17.2611 22.3414 17.4736 22.2256 17.6641Z" fill="#0FE97B"/>
</svg>
