<svg width="28" height="28" viewBox="0 0 28 28" fill="none" xmlns="http://www.w3.org/2000/svg">
<circle cx="14" cy="14" r="14" fill="#454545"/>
<path d="M10.6241 15.7642C10.6867 15.8264 10.7613 15.8758 10.8436 15.9093C10.9258 15.9428 11.0141 15.9599 11.1032 15.9595C11.1925 15.9614 11.2812 15.9451 11.3637 15.9115C11.4462 15.8779 11.5207 15.8277 11.5823 15.7642C11.6463 15.703 11.6971 15.6299 11.7318 15.5491C11.7665 15.4683 11.7844 15.3816 11.7844 15.2939C11.7844 15.2062 11.7665 15.1194 11.7318 15.0387C11.6971 14.9579 11.6463 14.8848 11.5823 14.8236C11.1624 14.4104 10.6637 14.0825 10.1145 13.8588C9.56537 13.6352 8.97668 13.52 8.38214 13.52C7.7876 13.52 7.1989 13.6352 6.64977 13.8588C6.10063 14.0825 5.60184 14.4104 5.18197 14.8236C5.06221 14.9497 4.99701 15.1166 5.00011 15.289C5.0032 15.4615 5.07436 15.626 5.19858 15.7479C5.3228 15.8699 5.49039 15.9397 5.66604 15.9428C5.84169 15.9458 6.01168 15.8818 6.14021 15.7642C6.73513 15.1811 7.54145 14.8536 8.38214 14.8536C9.22282 14.8536 10.0291 15.1811 10.6241 15.7642Z" fill="#33D085"/>
<path d="M20.3511 15.626L18.0459 5.52288C18.013 5.37513 17.9297 5.24279 17.8097 5.14773C17.6897 5.05266 17.5403 5.00055 17.386 5H14.8548C14.7102 5.03755 14.5823 5.12092 14.4911 5.23713C14.3999 5.35335 14.3504 5.49588 14.3504 5.64252C14.3504 5.78917 14.3999 5.9317 14.4911 6.04791C14.5823 6.16413 14.7102 6.2475 14.8548 6.28505H16.8436L19.0313 15.8742C19.0313 15.8742 19.0313 15.8742 19.0313 15.9362C18.6142 16.1687 18.2703 16.509 18.0369 16.9199H10.615C10.2959 16.4254 9.8193 16.0479 9.25908 15.8459C8.69886 15.644 8.08632 15.6288 7.51644 15.8029C6.94655 15.9769 6.45116 16.3305 6.10707 16.8086C5.76297 17.2868 5.5894 17.8628 5.61325 18.4475C5.63711 19.0322 5.85706 19.5929 6.23902 20.0426C6.62097 20.4923 7.14358 20.8058 7.72582 20.9347C8.30807 21.0636 8.91742 21.0006 9.45939 20.7554C10.0014 20.5102 10.4457 20.0966 10.7235 19.5786H18.0369C18.274 19.9722 18.6122 20.298 19.0178 20.5234C19.4233 20.7489 19.8821 20.8662 20.3484 20.8636C20.8146 20.861 21.272 20.7386 21.6749 20.5086C22.0779 20.2786 22.4123 19.9491 22.6448 19.5529C22.8773 19.1567 22.9997 18.7077 23 18.2506C23.0002 17.7935 22.8782 17.3443 22.6461 16.9479C22.4141 16.5514 22.08 16.2216 21.6773 15.9912C21.2746 15.7608 20.8174 15.6379 20.3511 15.6349V15.626ZM8.38213 19.6229C8.12327 19.6212 7.87074 19.5443 7.65637 19.4021C7.442 19.2598 7.2754 19.0585 7.17757 18.8236C7.07974 18.5886 7.05507 18.3305 7.10667 18.0818C7.15826 17.8331 7.28381 17.605 7.46748 17.4261C7.65116 17.2473 7.88473 17.1258 8.13875 17.0769C8.39277 17.0281 8.65587 17.054 8.89486 17.1515C9.13385 17.2491 9.33804 17.4138 9.48168 17.6249C9.62532 17.836 9.70197 18.0841 9.70198 18.3379C9.70198 18.5074 9.66778 18.6752 9.60134 18.8317C9.5349 18.9882 9.43754 19.1303 9.31486 19.2497C9.19218 19.3692 9.04661 19.4636 8.88653 19.5277C8.72645 19.5917 8.55503 19.6241 8.38213 19.6229ZM20.324 19.5255C20.0648 19.5255 19.8113 19.4501 19.5958 19.3089C19.3802 19.1677 19.2122 18.967 19.113 18.7322C19.0138 18.4974 18.9878 18.239 19.0384 17.9897C19.089 17.7404 19.2138 17.5115 19.3971 17.3317C19.5805 17.152 19.814 17.0296 20.0683 16.9801C20.3226 16.9305 20.5861 16.9559 20.8256 17.0532C21.0652 17.1504 21.2699 17.3152 21.4139 17.5265C21.5579 17.7378 21.6348 17.9863 21.6348 18.2404C21.6348 18.5812 21.4967 18.9081 21.2509 19.1491C21.0051 19.3901 20.6717 19.5255 20.324 19.5255Z" fill="#33D085"/>
</svg>
