<svg width="28" height="28" viewBox="0 0 28 28" fill="none" xmlns="http://www.w3.org/2000/svg">
<circle cx="14" cy="14" r="14" fill="white"/>
<path d="M22.96 17.0469L22.5417 15.1621L19.8679 15.8961C19.8045 15.9042 19.7402 15.9042 19.6769 15.8961C19.5308 15.8953 19.3887 15.8521 19.2711 15.7727C19.1534 15.6933 19.0662 15.5817 19.022 15.454C18.971 15.2959 18.9902 15.1257 19.0753 14.9804C19.1605 14.8352 19.3048 14.7266 19.4768 14.6784L22.2689 13.9112C22.1803 13.5393 21.9596 13.2049 21.6413 12.9604L20.4226 8.71549C20.3056 8.36639 20.0915 8.05127 19.8012 7.8012C19.5109 7.55112 19.1546 7.37472 18.7674 7.28939C17.1907 7.06938 15.5962 6.97451 14.0018 7.00583C12.4103 6.97474 10.8189 7.06961 9.24524 7.28939C8.8529 7.36771 8.49033 7.54027 8.19468 7.7894C7.89902 8.03854 7.68092 8.35527 7.56272 8.70715L6.33493 12.9604C6.03318 13.212 5.82621 13.5449 5.74378 13.9112L8.47219 14.7201C8.64586 14.7666 8.79229 14.8744 8.87927 15.0199C8.96626 15.1653 8.98667 15.3365 8.93602 15.4957C8.89181 15.6234 8.80463 15.735 8.68698 15.8144C8.56934 15.8938 8.42728 15.937 8.2812 15.9377C8.21484 15.9464 8.14747 15.9464 8.08111 15.9377L5.44365 15.1621L5.03439 17.0469C4.98809 17.2375 4.98855 17.4351 5.03573 17.6255C5.08292 17.8159 5.17565 17.9943 5.30723 18.1478C5.49138 18.3446 5.73511 18.4868 6.00752 18.5564C6.00752 18.5564 6.00752 18.5981 6.00752 18.6232V20.166C6.00752 20.3872 6.10334 20.5993 6.2739 20.7557C6.44446 20.9121 6.67579 21 6.91699 21H8.24482C8.48603 21 8.71735 20.9121 8.88791 20.7557C9.05847 20.5993 9.15429 20.3872 9.15429 20.166V18.6398H18.8311V20.166C18.8311 20.3872 18.9269 20.5993 19.0974 20.7557C19.268 20.9121 19.4993 21 19.7405 21H21.0865C21.3277 21 21.5591 20.9121 21.7296 20.7557C21.9002 20.5993 21.996 20.3872 21.996 20.166V18.6398C21.996 18.6398 21.996 18.6398 21.996 18.5731C22.2668 18.5053 22.5081 18.3626 22.6872 18.1645C22.8232 18.0099 22.9186 17.8287 22.9659 17.6349C23.0133 17.4411 23.0112 17.2399 22.96 17.0469ZM7.89922 12.5018L8.89964 9.0324C8.94459 8.90435 9.02266 8.78817 9.12718 8.69378C9.23171 8.59939 9.35958 8.52958 9.49989 8.49032C10.9871 8.29038 12.4899 8.20391 13.9927 8.23178C15.4924 8.2052 16.992 8.29167 18.4764 8.49032C18.612 8.52826 18.7362 8.59478 18.8388 8.68456C18.9415 8.77434 19.0198 8.88489 19.0675 9.00738L20.0588 12.4767L14.9294 12.1265C14.2933 12.0931 13.6556 12.0931 13.0195 12.1265L7.89922 12.5018ZM16.6574 16.9135H11.3461C11.1659 16.9113 10.9938 16.8448 10.8664 16.7279C10.739 16.6111 10.6664 16.4532 10.664 16.288C10.6664 16.1228 10.739 15.965 10.8664 15.8481C10.9938 15.7313 11.1659 15.6647 11.3461 15.6625H16.6574C16.8376 15.6647 17.0097 15.7313 17.1371 15.8481C17.2645 15.965 17.3372 16.1228 17.3395 16.288C17.3372 16.4532 17.2645 16.6111 17.1371 16.7279C17.0097 16.8448 16.8376 16.9113 16.6574 16.9135Z" fill="#454545"/>
</svg>
