<svg width="28" height="28" viewBox="0 0 28 28" fill="none" xmlns="http://www.w3.org/2000/svg">
<circle cx="14" cy="14" r="14" fill="white"/>
<path d="M20.0146 6.0017H7.92961C7.68307 6.0017 7.44661 6.10096 7.27228 6.27766C7.09794 6.45435 7 6.694 7 6.94388V19.6351C7 19.885 7.09794 20.1246 7.27228 20.3013C7.44661 20.478 7.68307 20.5773 7.92961 20.5773H8.91501V21.0578C8.91501 21.3077 9.01295 21.5473 9.18728 21.724C9.36162 21.9007 9.59807 22 9.84462 22H10.7742C11.0208 22 11.2572 21.9007 11.4316 21.724C11.6059 21.5473 11.7039 21.3077 11.7039 21.0578V20.5773H16.3519V21.0578C16.3519 21.3077 16.4499 21.5473 16.6242 21.724C16.7985 21.9007 17.035 22 17.2815 22H18.2112C18.4577 22 18.6942 21.9007 18.8685 21.724C19.0428 21.5473 19.1408 21.3077 19.1408 21.0578V20.5773H20.0704C20.3169 20.5773 20.5534 20.478 20.7277 20.3013C20.9021 20.1246 21 19.885 21 19.6351V6.94388C21.0002 6.81525 20.9745 6.68793 20.9243 6.56977C20.8741 6.45162 20.8006 6.34512 20.7083 6.25685C20.616 6.16858 20.5068 6.1004 20.3875 6.05652C20.2682 6.01263 20.1413 5.99398 20.0146 6.0017ZM11.5923 18.5516C11.5379 18.678 11.4481 18.7855 11.3342 18.8608C11.2202 18.9362 11.0869 18.9761 10.9509 18.9756C10.862 18.9944 10.7702 18.9944 10.6813 18.9756L8.74768 18.137C8.66128 18.1011 8.58288 18.048 8.51714 17.9807C8.4514 17.9135 8.39966 17.8336 8.36497 17.7457C8.33029 17.6578 8.31338 17.5638 8.31525 17.4692C8.31711 17.3745 8.33771 17.2813 8.37583 17.1949C8.4123 17.1081 8.46531 17.0295 8.53182 16.9636C8.59833 16.8977 8.67703 16.8457 8.7634 16.8107C8.84977 16.7757 8.94212 16.7583 9.03514 16.7596C9.12816 16.7608 9.22002 16.7807 9.30544 16.818L11.1833 17.6188C11.271 17.6522 11.3513 17.703 11.4195 17.7681C11.4877 17.8333 11.5425 17.9116 11.5805 17.9984C11.6186 18.0852 11.6393 18.1788 11.6413 18.2738C11.6433 18.3688 11.6266 18.4632 11.5923 18.5516ZM19.1872 18.0899L17.2537 18.9285C17.0873 18.9782 16.9088 18.9642 16.752 18.8891C16.5952 18.8141 16.4712 18.6832 16.4034 18.5214C16.3357 18.3597 16.329 18.1783 16.3846 18.0119C16.4403 17.8454 16.5544 17.7055 16.7052 17.6188L18.6202 16.7897C18.7054 16.7511 18.7975 16.7302 18.8908 16.7283C18.9842 16.7264 19.077 16.7436 19.1637 16.7787C19.2504 16.8139 19.3293 16.8663 19.3956 16.9329C19.4619 16.9996 19.5144 17.079 19.5498 17.1666C19.5866 17.2512 19.6063 17.3425 19.608 17.4349C19.6096 17.5274 19.5931 17.6193 19.5593 17.7052C19.5256 17.7911 19.4753 17.8694 19.4114 17.9355C19.3475 18.0015 19.2713 18.054 19.1872 18.0899ZM19.6242 14.6698C19.6142 14.8596 19.5524 15.043 19.4458 15.1993C19.3391 15.3557 19.1917 15.479 19.0199 15.5555L16.2961 16.5542C15.8877 16.6909 15.4618 16.7671 15.0319 16.7803H13.0425C12.6126 16.7663 12.1869 16.6902 11.7782 16.5542L8.98938 15.546C8.81947 15.4707 8.67373 15.3487 8.5686 15.1939C8.46347 15.0391 8.40314 14.8575 8.39442 14.6698V8.0745C8.39442 7.89958 8.46298 7.73183 8.58502 7.60815C8.70705 7.48446 8.87257 7.41497 9.04515 7.41497H18.9734C19.0589 7.41497 19.1435 7.43203 19.2225 7.46518C19.3014 7.49832 19.3731 7.5469 19.4336 7.60815C19.494 7.66939 19.5419 7.7421 19.5746 7.82211C19.6073 7.90213 19.6242 7.98789 19.6242 8.0745V14.6698Z" fill="#FF5D52"/>
</svg>
