<svg width="29" height="28" viewBox="0 0 29 28" fill="none" xmlns="http://www.w3.org/2000/svg">
<circle cx="14.5" cy="14.0001" r="14" fill="white"/>
<path d="M8.5 14.3601C7.43913 14.3601 6.42172 14.7815 5.67157 15.5317C4.92143 16.2818 4.5 17.2992 4.5 18.3601C4.5 19.421 4.92143 20.4384 5.67157 21.1885C6.42172 21.9387 7.43913 22.3601 8.5 22.3601C9.56087 22.3601 10.5783 21.9387 11.3284 21.1885C12.0786 20.4384 12.5 19.421 12.5 18.3601C12.5 17.2992 12.0786 16.2818 11.3284 15.5317C10.5783 14.7815 9.56087 14.3601 8.5 14.3601ZM8.5 20.8601C7.83696 20.8601 7.20107 20.5967 6.73223 20.1279C6.26339 19.659 6 19.0231 6 18.3601C6 17.6971 6.26339 17.0612 6.73223 16.5923C7.20107 16.1235 7.83696 15.8601 8.5 15.8601C9.16304 15.8601 9.79893 16.1235 10.2678 16.5923C10.7366 17.0612 11 17.6971 11 18.3601C11 19.0231 10.7366 19.659 10.2678 20.1279C9.79893 20.5967 9.16304 20.8601 8.5 20.8601Z" fill="#8D8D8D"/>
<path d="M20.5 14.3601C19.4391 14.3601 18.4217 14.7815 17.6716 15.5317C16.9214 16.2818 16.5 17.2992 16.5 18.3601C16.5 19.421 16.9214 20.4384 17.6716 21.1885C18.4217 21.9387 19.4391 22.3601 20.5 22.3601C21.5609 22.3601 22.5783 21.9387 23.3284 21.1885C24.0786 20.4384 24.5 19.421 24.5 18.3601C24.5 17.2992 24.0786 16.2818 23.3284 15.5317C22.5783 14.7815 21.5609 14.3601 20.5 14.3601ZM20.5 20.8601C19.837 20.8601 19.2011 20.5967 18.7322 20.1279C18.2634 19.659 18 19.0231 18 18.3601C18 17.6971 18.2634 17.0612 18.7322 16.5923C19.2011 16.1235 19.837 15.8601 20.5 15.8601C21.163 15.8601 21.7989 16.1235 22.2678 16.5923C22.7366 17.0612 23 17.6971 23 18.3601C23 19.0231 22.7366 19.659 22.2678 20.1279C21.7989 20.5967 21.163 20.8601 20.5 20.8601Z" fill="#8D8D8D"/>
<path d="M12.75 12.7601L15.14 10.1801L18.5 13.3101C18.6382 13.4395 18.8207 13.5111 19.01 13.5101C19.1133 13.5101 19.2154 13.4888 19.3101 13.4475C19.4047 13.4062 19.4898 13.3458 19.56 13.2701C19.6981 13.1282 19.7753 12.938 19.7753 12.7401C19.7753 12.5421 19.6981 12.352 19.56 12.2101L15.5 8.42007L14.77 7.74007C14.5761 7.5603 14.3189 7.46465 14.0547 7.47402C13.7905 7.48339 13.5407 7.59702 13.36 7.79007L9.85001 11.6101C9.74689 11.7666 9.70613 11.9561 9.73574 12.1411C9.76535 12.3262 9.8632 12.4935 10.01 12.6101L13.93 15.4501V19.4501C13.93 19.649 14.009 19.8397 14.1497 19.9804C14.2903 20.121 14.4811 20.2001 14.68 20.2001C14.8781 20.1975 15.0674 20.1176 15.2075 19.9775C15.3476 19.8374 15.4274 19.6482 15.43 19.4501V14.6601L12.78 12.7301L12.75 12.7601Z" fill="#8D8D8D"/>
<path d="M17.3198 8.00012C18.4244 8.00012 19.3198 7.10469 19.3198 6.00012C19.3198 4.89555 18.4244 4.00012 17.3198 4.00012C16.2153 4.00012 15.3198 4.89555 15.3198 6.00012C15.3198 7.10469 16.2153 8.00012 17.3198 8.00012Z" fill="#8D8D8D"/>
</svg>
