<svg width="28" height="28" viewBox="0 0 28 28" fill="none" xmlns="http://www.w3.org/2000/svg">
<circle cx="14" cy="14.0001" r="14" fill="white"/>
<g clip-path="url(#clip0_3596_8925)">
<path d="M10.2401 16.1602C10.3093 16.2303 10.3919 16.2859 10.4829 16.3236C10.5739 16.3614 10.6716 16.3806 10.7701 16.3802C10.8689 16.3824 10.967 16.364 11.0583 16.3261C11.1496 16.2882 11.2319 16.2317 11.3001 16.1602C11.3708 16.0912 11.4271 16.0088 11.4655 15.9178C11.5039 15.8267 11.5237 15.729 11.5237 15.6302C11.5237 15.5314 11.5039 15.4336 11.4655 15.3426C11.4271 15.2515 11.3708 15.1691 11.3001 15.1002C10.8356 14.6345 10.2839 14.2651 9.67643 14.013C9.06898 13.761 8.41776 13.6312 7.76009 13.6312C7.10242 13.6312 6.45121 13.761 5.84375 14.013C5.2363 14.2651 4.68455 14.6345 4.22009 15.1002C4.08761 15.2423 4.01549 15.4304 4.01892 15.6247C4.02234 15.819 4.10106 16.0044 4.23847 16.1418C4.37588 16.2792 4.56127 16.3579 4.75557 16.3613C4.94987 16.3648 5.13792 16.2926 5.28009 16.1602C5.93818 15.5031 6.83013 15.1341 7.76009 15.1341C8.69005 15.1341 9.582 15.5031 10.2401 16.1602Z" fill="#8D8D8D"/>
<path d="M20.9999 16.0202L18.4499 4.62015C18.4135 4.45343 18.3213 4.30411 18.1886 4.19684C18.0559 4.08957 17.8905 4.03077 17.7199 4.03015H14.9199C14.7599 4.07252 14.6185 4.16659 14.5176 4.29773C14.4166 4.42886 14.3619 4.58968 14.3619 4.75515C14.3619 4.92062 14.4166 5.08145 14.5176 5.21258C14.6185 5.34371 14.7599 5.43779 14.9199 5.48015H17.1199L19.5399 16.3002C19.5399 16.3002 19.5399 16.3002 19.5399 16.3702C19.0786 16.6325 18.6981 17.0165 18.4399 17.4802H10.2299C9.8769 16.9221 9.34968 16.4962 8.72996 16.2683C8.11025 16.0404 7.43267 16.0233 6.80226 16.2197C6.17186 16.4161 5.62387 16.815 5.24323 17.3545C4.8626 17.8941 4.67059 18.5441 4.69698 19.2039C4.72337 19.8636 4.96668 20.4962 5.38919 21.0037C5.81171 21.5111 6.38981 21.8649 7.03389 22.0103C7.67796 22.1557 8.35202 22.0846 8.95155 21.8079C9.55108 21.5313 10.0426 21.0646 10.3499 20.4802H18.4399C18.7022 20.9243 19.0763 21.2918 19.5249 21.5462C19.9736 21.8006 20.4811 21.933 20.9968 21.93C21.5126 21.9271 22.0186 21.789 22.4643 21.5295C22.91 21.27 23.2799 20.8982 23.5371 20.4511C23.7943 20.0041 23.9298 19.4974 23.93 18.9816C23.9303 18.4659 23.7953 17.959 23.5386 17.5117C23.2819 17.0644 22.9124 16.6922 22.4669 16.4322C22.0215 16.1723 21.5156 16.0336 20.9999 16.0302V16.0202ZM7.75989 20.5302C7.47354 20.5282 7.19419 20.4415 6.95706 20.2809C6.71992 20.1204 6.53563 19.8933 6.42741 19.6281C6.3192 19.363 6.29191 19.0718 6.34898 18.7912C6.40605 18.5106 6.54494 18.2532 6.74811 18.0514C6.95129 17.8496 7.20967 17.7125 7.49067 17.6573C7.77166 17.6022 8.06269 17.6315 8.32707 17.7415C8.59144 17.8515 8.81731 18.0374 8.9762 18.2756C9.13509 18.5139 9.21988 18.7938 9.21989 19.0802C9.21989 19.2714 9.18206 19.4608 9.10857 19.6374C9.03507 19.8139 8.92737 19.9742 8.79166 20.109C8.65596 20.2438 8.49493 20.3504 8.31785 20.4227C8.14077 20.4949 7.95115 20.5315 7.75989 20.5302ZM20.9699 20.4202C20.6831 20.4202 20.4028 20.3351 20.1643 20.1758C19.9259 20.0165 19.74 19.79 19.6303 19.525C19.5205 19.2601 19.4918 18.9685 19.5478 18.6873C19.6037 18.406 19.7418 18.1476 19.9446 17.9448C20.1474 17.7421 20.4057 17.604 20.687 17.548C20.9683 17.4921 21.2598 17.5208 21.5248 17.6305C21.7897 17.7403 22.0162 17.9261 22.1755 18.1646C22.3348 18.403 22.4199 18.6834 22.4199 18.9702C22.4199 19.3547 22.2671 19.7235 21.9952 19.9955C21.7233 20.2674 21.3545 20.4202 20.9699 20.4202Z" fill="#8D8D8D"/>
</g>
<defs>
<clipPath id="clip0_3596_8925">
<rect width="19.92" height="18.03" fill="white" transform="translate(4 4.00012)"/>
</clipPath>
</defs>
</svg>
