<svg width="28" height="28" viewBox="0 0 28 28" fill="none" xmlns="http://www.w3.org/2000/svg">
<circle cx="14" cy="14" r="14" fill="white"/>
<path d="M23.2762 16.2241L22.4815 16.9275C22.025 18.3858 20.6615 19.4466 19.0552 19.4466C16.6454 19.4466 15.0184 16.4821 14.9284 16.3149L14.7452 15.9282L15.0244 15.3406C15.0656 15.261 15.6652 14.1233 16.6942 13.2676C17.5316 14.0414 18.2725 14.9784 18.9169 16.0788C18.9418 16.1213 18.975 16.1586 19.0146 16.1885C19.0541 16.2184 19.0992 16.2404 19.1474 16.2531C19.1955 16.2658 19.2458 16.2691 19.2952 16.2627C19.3446 16.2563 19.3923 16.2404 19.4355 16.2158C19.4786 16.1912 19.5165 16.1586 19.5469 16.1196C19.5772 16.0806 19.5995 16.0362 19.6124 15.9887C19.6253 15.9413 19.6286 15.8918 19.6221 15.8431C19.6156 15.7944 19.5994 15.7474 19.5745 15.7049C18.9632 14.6445 18.2018 13.6753 17.3133 12.8264C17.8223 12.524 18.4062 12.32 19.0546 12.32C19.993 12.3212 20.8937 12.684 21.5642 13.3309C22.2347 13.9778 22.6217 14.8575 22.6425 15.7818L23.2757 15.2231L24 15.8641V15.8587C23.9984 14.567 23.4769 13.3286 22.5498 12.4153C21.6226 11.5019 20.3657 10.9882 19.0546 10.9868C17.9454 10.9868 17.001 11.3879 16.2355 11.9285C15.9644 11.7282 15.6934 11.5492 15.4255 11.3895L17.696 7.06829H18.4962C18.64 7.06829 18.7779 7.01201 18.8796 6.91184C18.9812 6.81167 19.0384 6.67581 19.0384 6.53415C19.0384 6.39248 18.9812 6.25661 18.8796 6.15644C18.7779 6.05627 18.64 6 18.4962 6H16.0962C15.9524 6 15.8145 6.05627 15.7128 6.15644C15.6112 6.25661 15.554 6.39248 15.554 6.53415C15.554 6.67581 15.6112 6.81167 15.7128 6.91184C15.8145 7.01201 15.9524 7.06829 16.0962 7.06829H16.8394L15.9753 8.71292H11.0418L11.6734 6.04219H9.08796L9.04622 6.04487C8.70196 6.08226 8.05031 6.38351 8.05031 7.2531C8.05031 8.08049 8.77732 8.40098 9.26578 8.41434C9.31571 8.4159 9.36547 8.40774 9.41219 8.39031C9.45891 8.37289 9.50168 8.34655 9.53805 8.31281C9.57441 8.27906 9.60366 8.23858 9.62411 8.19367C9.64456 8.14876 9.6558 8.10031 9.6572 8.05111C9.65998 7.9523 9.62293 7.85642 9.55415 7.78445C9.48537 7.71248 9.39046 7.67028 9.29018 7.66707C9.14543 7.66012 8.8093 7.60671 8.8093 7.2531C8.8093 6.8995 9.01315 6.81136 9.1194 6.79H10.7155L9.70762 11.053C9.45362 11.0091 9.19621 10.9871 8.93833 10.9873C7.76262 10.9888 6.6258 11.4024 5.73112 12.1539C4.83644 12.9054 4.24224 13.946 4.05476 15.0896L4.71562 15.6728L5.45022 15.0244C5.64014 14.2533 6.08733 13.5673 6.72011 13.0765C7.35288 12.5856 8.1346 12.3183 8.93996 12.3173C9.09424 12.3172 9.24831 12.3288 9.40077 12.3521L8.5789 15.8272C8.56755 15.875 8.56589 15.9246 8.574 15.9731C8.58212 16.0216 8.59985 16.068 8.62618 16.1097C8.65251 16.1514 8.68693 16.1876 8.72747 16.2162C8.768 16.2448 8.81387 16.2653 8.86243 16.2764C8.8909 16.2828 8.91999 16.286 8.94917 16.286C9.03477 16.286 9.11783 16.2574 9.18485 16.2049C9.25187 16.1524 9.29893 16.0792 9.31837 15.9971L10.1316 12.5524C11.8713 13.2467 12.9198 15.2412 12.9697 15.3379L13.2489 15.9255L13.0656 16.3117C12.9713 16.4869 11.346 19.4439 8.93887 19.4439C7.04139 19.4439 5.48762 17.967 5.36076 16.1039L4.71833 16.6706L4 16.0371C4.04489 17.2711 4.55884 18.4434 5.43992 19.3216C5.89466 19.783 6.43873 20.1497 7.03993 20.4002C7.64112 20.6507 8.28722 20.7798 8.93996 20.7798C11.5677 20.7798 13.3421 18.4296 13.9986 17.3907C14.6546 18.4301 16.429 20.7798 19.0568 20.7798C19.7097 20.78 20.3559 20.6511 20.9573 20.4007C21.5587 20.1503 22.103 19.7835 22.5579 19.3221C23.2548 18.6271 23.7265 17.7439 23.9133 16.7844L23.2762 16.2241ZM10.8613 9.45592H15.5779L14.7571 11.0178C14.3854 10.8287 14.0021 10.6626 13.6094 10.5205C12.6904 10.1822 11.7232 9.98827 10.7431 9.94573L10.8613 9.45592ZM13.9948 14.409C13.5487 13.657 12.337 11.8986 10.4406 11.2378L10.5696 10.6909C11.0033 10.6946 12.0806 10.7582 13.386 11.2352C14.182 11.5262 14.9356 11.9193 15.6272 12.4044C14.9863 12.9897 14.4368 13.6653 13.9965 14.409H13.9948Z" fill="#ED3C8D"/>
</svg>
