<svg width="28" height="28" viewBox="0 0 28 28" fill="none" xmlns="http://www.w3.org/2000/svg">
<circle cx="14" cy="14" r="14" fill="#454545"/>
<path d="M13.2225 8.8146H14.5582C14.5582 8.52611 14.5582 8.24563 14.5582 7.96315C14.5639 7.38867 14.9097 7.00151 15.4094 7.00652C15.8944 7.01152 16.2392 7.4072 16.2435 7.95814C16.2435 8.23211 16.2435 8.50908 16.2435 8.80008H18.3261C18.3261 8.5186 18.3261 8.23812 18.3261 7.95764C18.33 7.39217 18.6609 7.00952 19.1544 7.00601C19.648 7.00251 20.0095 7.39668 20.0114 7.96265C20.0148 8.82912 20.0114 9.69611 20.0114 10.5626V10.8421C20.8139 11.0108 21.5365 11.3274 22.1481 11.8683C23.7048 13.2457 24.3174 15.0072 23.8435 17.0772C23.3652 19.1688 22.0453 20.489 20.0248 20.8997C18.2994 21.2503 16.8078 20.6708 15.5988 19.329C15.2287 18.9178 15.2358 18.3684 15.5988 18.0138C15.9618 17.6592 16.4544 17.6993 16.8422 18.123C17.7087 19.0656 18.7585 19.4282 19.9679 19.0861C21.1773 18.744 21.9258 17.8881 22.2223 16.6189C22.5977 15.0162 21.7354 13.3408 20.2587 12.7663C20.1855 12.7378 20.1099 12.7163 20.0109 12.6822V13.1956C20.0109 14.012 20.0109 14.8289 20.0109 15.6453C20.0109 16.2378 19.6685 16.6425 19.1697 16.647C18.703 16.6525 18.3089 16.2398 18.3175 15.6578C18.3376 14.0916 18.3242 12.5249 18.3242 10.9583V10.6422H16.2444V10.9097C16.2444 11.8262 16.2492 12.7433 16.2406 13.6594C16.2374 13.8697 16.1631 14.072 16.0307 14.2303C15.8984 14.3885 15.7167 14.4924 15.518 14.5233C15.315 14.5526 15.1087 14.5033 14.938 14.3846C14.7673 14.2659 14.6438 14.086 14.5907 13.8787C14.5654 13.7569 14.555 13.6322 14.5596 13.5076C14.5572 12.6496 14.5596 11.7912 14.5596 10.9332V10.6422H9.664V10.9427C9.664 12.5344 9.664 14.1257 9.664 15.7174C9.664 16.3284 9.21973 16.7281 8.66881 16.6299C8.2671 16.5583 7.98208 16.1862 7.98016 15.7104C7.97586 14.8023 7.98016 13.8943 7.98016 12.9857V12.6817C7.3073 12.882 6.76451 13.2562 6.36136 13.8226C5.5962 14.895 5.45799 16.0715 5.99026 17.2836C6.51631 18.4816 7.45411 19.1232 8.71089 19.2038C10.3263 19.307 11.8132 17.9201 11.9495 16.2298C12.0212 15.3432 11.8146 14.5509 11.3105 13.8367C11.0035 13.4014 11.0753 12.853 11.4631 12.55C11.8509 12.247 12.3497 12.3416 12.6735 12.7889C14.8533 15.7985 13.2474 20.1875 9.70369 20.9122C7.08109 21.4487 4.44319 19.4598 4.05631 16.6971C3.65173 13.8257 5.47808 11.3499 7.90795 10.8631C7.93182 10.8535 7.95486 10.8418 7.97682 10.828V10.5731C7.97682 9.68158 7.97203 8.79006 7.97968 7.89854C7.98351 7.44777 8.29627 7.07513 8.68459 7.01854C9.115 6.95593 9.48658 7.18732 9.61761 7.61155C9.64866 7.73149 9.66347 7.85541 9.66161 7.97968C9.66783 8.25214 9.66161 8.5246 9.66161 8.81059H11.5195C11.5195 8.51008 11.5119 8.21858 11.5195 7.92959C11.5425 7.21687 12.1838 6.78964 12.7538 7.10568C13.0843 7.289 13.2125 7.59802 13.2177 7.97316C13.2254 8.24463 13.2225 8.5191 13.2225 8.8146Z" fill="#FFF215"/>
</svg>
