<svg width="28" height="28" viewBox="0 0 28 28" fill="none" xmlns="http://www.w3.org/2000/svg">
<circle cx="14" cy="14" r="14" fill="#454545"/>
<path d="M11.6241 15.7642C11.6867 15.8264 11.7613 15.8758 11.8436 15.9093C11.9258 15.9428 12.0141 15.9599 12.1032 15.9595C12.1925 15.9614 12.2812 15.9451 12.3637 15.9115C12.4462 15.8779 12.5207 15.8277 12.5823 15.7642C12.6463 15.703 12.6971 15.6299 12.7318 15.5491C12.7665 15.4683 12.7844 15.3816 12.7844 15.2939C12.7844 15.2062 12.7665 15.1194 12.7318 15.0387C12.6971 14.9579 12.6463 14.8848 12.5823 14.8236C12.1624 14.4104 11.6637 14.0825 11.1145 13.8588C10.5654 13.6352 9.97668 13.52 9.38214 13.52C8.7876 13.52 8.1989 13.6352 7.64977 13.8588C7.10063 14.0825 6.60184 14.4104 6.18197 14.8236C6.06221 14.9497 5.99701 15.1166 6.00011 15.289C6.0032 15.4615 6.07436 15.626 6.19858 15.7479C6.3228 15.8699 6.49039 15.9397 6.66604 15.9428C6.84169 15.9458 7.01168 15.8818 7.14021 15.7642C7.73513 15.1811 8.54145 14.8536 9.38214 14.8536C10.2228 14.8536 11.0291 15.1811 11.6241 15.7642Z" fill="#77E4D7"/>
<path d="M21.3511 15.626L19.0459 5.52288C19.013 5.37513 18.9297 5.24279 18.8097 5.14773C18.6897 5.05266 18.5403 5.00055 18.386 5H15.8548C15.7102 5.03755 15.5823 5.12092 15.4911 5.23713C15.3999 5.35335 15.3504 5.49588 15.3504 5.64252C15.3504 5.78917 15.3999 5.9317 15.4911 6.04791C15.5823 6.16413 15.7102 6.2475 15.8548 6.28505H17.8436L20.0313 15.8742C20.0313 15.8742 20.0313 15.8742 20.0313 15.9362C19.6142 16.1687 19.2703 16.509 19.0369 16.9199H11.615C11.2959 16.4254 10.8193 16.0479 10.2591 15.8459C9.69886 15.644 9.08632 15.6288 8.51644 15.8029C7.94655 15.9769 7.45116 16.3305 7.10707 16.8086C6.76297 17.2868 6.5894 17.8628 6.61325 18.4475C6.63711 19.0322 6.85706 19.5929 7.23902 20.0426C7.62097 20.4923 8.14358 20.8058 8.72582 20.9347C9.30807 21.0636 9.91742 21.0006 10.4594 20.7554C11.0014 20.5102 11.4457 20.0966 11.7235 19.5786H19.0369C19.274 19.9722 19.6122 20.298 20.0178 20.5234C20.4233 20.7489 20.8821 20.8662 21.3484 20.8636C21.8146 20.861 22.272 20.7386 22.6749 20.5086C23.0779 20.2786 23.4123 19.9491 23.6448 19.5529C23.8773 19.1567 23.9997 18.7077 24 18.2506C24.0002 17.7935 23.8782 17.3443 23.6461 16.9479C23.4141 16.5514 23.08 16.2216 22.6773 15.9912C22.2746 15.7608 21.8174 15.6379 21.3511 15.6349V15.626ZM9.38213 19.6229C9.12327 19.6212 8.87074 19.5443 8.65637 19.4021C8.442 19.2598 8.2754 19.0585 8.17757 18.8236C8.07974 18.5886 8.05507 18.3305 8.10667 18.0818C8.15826 17.8331 8.28381 17.605 8.46748 17.4261C8.65116 17.2473 8.88473 17.1258 9.13875 17.0769C9.39277 17.0281 9.65587 17.054 9.89486 17.1515C10.1339 17.2491 10.338 17.4138 10.4817 17.6249C10.6253 17.836 10.702 18.0841 10.702 18.3379C10.702 18.5074 10.6678 18.6752 10.6013 18.8317C10.5349 18.9882 10.4375 19.1303 10.3149 19.2497C10.1922 19.3692 10.0466 19.4636 9.88653 19.5277C9.72645 19.5917 9.55503 19.6241 9.38213 19.6229ZM21.324 19.5255C21.0648 19.5255 20.8113 19.4501 20.5958 19.3089C20.3802 19.1677 20.2122 18.967 20.113 18.7322C20.0138 18.4974 19.9878 18.239 20.0384 17.9897C20.089 17.7404 20.2138 17.5115 20.3971 17.3317C20.5805 17.152 20.814 17.0296 21.0683 16.9801C21.3226 16.9305 21.5861 16.9559 21.8256 17.0532C22.0652 17.1504 22.2699 17.3152 22.4139 17.5265C22.5579 17.7378 22.6348 17.9863 22.6348 18.2404C22.6348 18.5812 22.4967 18.9081 22.2509 19.1491C22.0051 19.3901 21.6717 19.5255 21.324 19.5255Z" fill="#77E4D7"/>
</svg>
