<svg width="28" height="28" viewBox="0 0 28 28" fill="none" xmlns="http://www.w3.org/2000/svg">
<circle cx="14" cy="14.0001" r="14" fill="white"/>
<path d="M15.0324 8.1201C14.5252 8.12208 14.0289 7.97337 13.6064 7.69284C13.1839 7.4123 12.8542 7.01259 12.6592 6.5444C12.4642 6.07622 12.4126 5.56066 12.5111 5.06314C12.6096 4.56562 12.8536 4.10855 13.2122 3.74993C13.5708 3.39131 14.0279 3.14729 14.5254 3.04883C15.0229 2.95037 15.5385 3.00191 16.0067 3.19691C16.4749 3.3919 16.8746 3.72157 17.1551 4.14409C17.4356 4.56661 17.5844 5.06294 17.5824 5.5701C17.5798 6.24559 17.3102 6.89267 16.8326 7.37032C16.3549 7.84797 15.7079 8.11747 15.0324 8.1201ZM15.0324 4.5101C14.8206 4.4981 14.6101 4.54991 14.428 4.65885C14.246 4.76779 14.1009 4.92883 14.0114 5.12116C13.9219 5.31348 13.8921 5.52824 13.926 5.73765C13.9599 5.94706 14.0558 6.14149 14.2013 6.2958C14.3469 6.4501 14.5354 6.55718 14.7425 6.60318C14.9496 6.64918 15.1657 6.63199 15.3629 6.55383C15.5601 6.47567 15.7294 6.34014 15.8487 6.16476C15.9681 5.98939 16.032 5.78224 16.0324 5.5701C16.0353 5.29835 15.9327 5.03606 15.7462 4.83838C15.5597 4.6407 15.3038 4.52303 15.0324 4.5101Z" fill="#8D8D8D"/>
<path d="M19.5825 12.9801L17.7925 12.5501C17.4068 12.4221 17.0802 12.1594 16.8725 11.8101L15.8125 9.69011C15.7882 9.64612 15.7579 9.60573 15.7225 9.57011C15.6482 9.42386 15.5392 9.29811 15.4049 9.20394C15.2706 9.10978 15.1152 9.05008 14.9525 9.03011L13.5825 8.89011C13.4272 8.87825 13.2713 8.90281 13.1272 8.96184C12.9831 9.02087 12.8548 9.11273 12.7525 9.23011C12.7525 9.23011 12.7525 9.23011 12.6925 9.23011L10.9225 10.6101C10.313 11.122 9.8419 11.7787 9.55246 12.5201L8.72246 14.9801C8.68308 15.0762 8.66411 15.1795 8.66674 15.2834C8.66937 15.3872 8.69355 15.4894 8.73774 15.5834C8.78192 15.6774 8.84516 15.7612 8.92343 15.8295C9.00171 15.8978 9.09332 15.9491 9.19245 15.9801C9.2718 15.9946 9.35311 15.9946 9.43246 15.9801C9.5889 15.9785 9.74105 15.9287 9.86812 15.8374C9.99519 15.7461 10.091 15.6179 10.1425 15.4701L10.9725 12.9801C11.1617 12.5185 11.4562 12.1076 11.8325 11.7801L12.3225 11.4101L11.9625 15.0101L17.3425 22.2201L17.6025 22.5601C17.6713 22.6551 17.7614 22.7326 17.8656 22.7865C17.9698 22.8403 18.0852 22.869 18.2025 22.8701C18.3649 22.8708 18.523 22.8181 18.6525 22.7201C18.7312 22.661 18.7976 22.587 18.8478 22.5022C18.898 22.4175 18.931 22.3237 18.9449 22.2262C18.9588 22.1287 18.9534 22.0294 18.929 21.934C18.9045 21.8386 18.8616 21.7489 18.8025 21.6701L14.8025 16.3501L15.4425 12.3501V12.4501C15.8521 13.1923 16.5387 13.7423 17.3525 13.9801L19.1525 14.4101H19.3325C19.5004 14.4105 19.6636 14.3546 19.796 14.2513C19.9283 14.1479 20.0222 14.0031 20.0625 13.8401C20.0976 13.6631 20.0686 13.4794 19.9806 13.3218C19.8927 13.1643 19.7515 13.0431 19.5825 12.9801Z" fill="#8D8D8D"/>
<path d="M11.5426 16.9801C11.5426 16.9801 11.4826 17.0301 11.4626 17.0701L10.7826 18.1901C10.4645 18.6801 10.0847 19.1271 9.65256 19.5201L7.26256 21.5901C7.14588 21.6899 7.06262 21.8231 7.02405 21.9717C6.98548 22.1203 6.99345 22.2772 7.04688 22.4211C7.10031 22.5651 7.19663 22.6891 7.32283 22.7766C7.44903 22.864 7.59903 22.9106 7.75256 22.9101C7.93234 22.9116 8.10652 22.8476 8.24256 22.7301L10.6326 20.6701C11.1732 20.1724 11.6441 19.6039 12.0326 18.9801L12.4726 18.2701L11.5426 16.9801Z" fill="#8D8D8D"/>
</svg>
