<svg width="28" height="28" viewBox="0 0 28 28" fill="none" xmlns="http://www.w3.org/2000/svg">
<circle cx="14" cy="14" r="14" fill="white"/>
<path d="M6 20.9997C6.59867 18.918 7.19033 16.8584 7.78291 14.7979L10.0384 13.9974L11.8655 14.7982C11.4241 16.3241 10.9841 17.8444 10.5454 19.3591C10.5628 19.3945 10.5902 19.39 10.6136 19.39C11.649 19.3883 12.6822 19.3945 13.716 19.3806C14.1575 19.3747 14.579 19.2672 14.9371 19.0093C15.2885 18.754 15.4995 18.4077 15.6536 18.0276C15.8363 17.5774 15.9432 17.1066 16.0756 16.6431C16.5111 15.1193 16.9422 13.5944 17.3689 12.0683C17.5352 11.4766 17.7261 10.8909 17.8561 10.2906C17.9204 9.99395 17.9621 9.69498 17.8948 9.3926C17.8034 8.9813 17.5023 8.73169 17.0117 8.64886C16.8722 8.62464 16.7306 8.61211 16.5887 8.61142H13.7586C13.7178 8.60682 13.6764 8.61281 13.6389 8.62872C13.2065 10.1459 12.7719 11.6715 12.335 13.2055L10.4885 12.4059L8.25307 13.2055C8.8426 11.1286 9.42605 9.07377 10.0089 7.02182C10.0585 6.9892 10.1109 7.00282 10.1611 7.00282C12.9492 7.00282 15.7374 7.00339 18.5257 7.00452C19.125 7.00452 19.7173 7.07543 20.2846 7.27059C21.3574 7.63934 21.9402 8.39017 21.9953 9.45245C22.0258 10.0481 21.904 10.6237 21.7398 11.1944C21.1306 13.3131 20.5222 15.4325 19.9146 17.5528C19.7136 18.2517 19.4027 18.9018 18.9021 19.4632C18.3193 20.1156 17.5656 20.5178 16.6974 20.7458C16.1691 20.8846 15.6289 20.9521 15.0814 20.9813C14.8287 20.9949 14.5756 21 14.3226 21H6V20.9997Z" fill="#F21C0A"/>
</svg>
