<svg width="46" height="46" viewBox="0 0 46 46" fill="none" xmlns="http://www.w3.org/2000/svg">
<circle cx="23" cy="23" r="23" fill="#FFCA60"/>
<path d="M15.8 24.4131C14.8507 24.4131 13.9226 24.6942 13.1333 25.2209C12.3439 25.7477 11.7287 26.4963 11.3654 27.3722C11.0021 28.2481 10.907 29.2119 11.0922 30.1417C11.2774 31.0716 11.7346 31.9257 12.4059 32.5961C13.0772 33.2664 13.9325 33.723 14.8636 33.9079C15.7947 34.0929 16.7598 33.9979 17.6369 33.6351C18.514 33.2723 19.2636 32.6579 19.7911 31.8697C20.3185 31.0814 20.6 30.1546 20.6 29.2066C20.6013 28.5767 20.4781 27.9528 20.2373 27.3706C19.9966 26.7885 19.643 26.2595 19.1971 25.8141C18.7511 25.3688 18.2214 25.0157 17.6384 24.7753C17.0555 24.5349 16.4307 24.4118 15.8 24.4131V24.4131ZM15.8 32.5021C15.1473 32.5021 14.5093 32.3088 13.9666 31.9467C13.4239 31.5846 13.001 31.0699 12.7512 30.4677C12.5014 29.8655 12.4361 29.2029 12.5634 28.5636C12.6907 27.9244 13.005 27.3372 13.4665 26.8763C13.9281 26.4154 14.5161 26.1015 15.1562 25.9744C15.7963 25.8472 16.4599 25.9125 17.0629 26.1619C17.6659 26.4113 18.1812 26.8337 18.5439 27.3757C18.9065 27.9176 19.1 28.5548 19.1 29.2066C19.1 30.0806 18.7523 30.9188 18.1335 31.5368C17.5146 32.1549 16.6752 32.5021 15.8 32.5021V32.5021Z" fill="white"/>
<path d="M30.2 24.4131C29.2507 24.4131 28.3226 24.6942 27.5333 25.2209C26.7439 25.7477 26.1287 26.4963 25.7654 27.3722C25.4021 28.2481 25.307 29.2119 25.4923 30.1417C25.6775 31.0716 26.1346 31.9257 26.8059 32.5961C27.4772 33.2664 28.3325 33.723 29.2636 33.9079C30.1947 34.0929 31.1598 33.9979 32.0369 33.6351C32.914 33.2723 33.6636 32.6579 34.1911 31.8697C34.7185 31.0814 35 30.1546 35 29.2066C35.0013 28.5767 34.8781 27.9528 34.6373 27.3706C34.3966 26.7885 34.0431 26.2595 33.5971 25.8141C33.1511 25.3688 32.6214 25.0157 32.0385 24.7753C31.4555 24.5349 30.8307 24.4118 30.2 24.4131V24.4131ZM30.2 32.5021C29.5473 32.5021 28.9093 32.3088 28.3666 31.9467C27.824 31.5846 27.401 31.0699 27.1512 30.4677C26.9015 29.8655 26.8361 29.2029 26.9634 28.5636C27.0908 27.9244 27.4051 27.3372 27.8666 26.8763C28.3281 26.4154 28.9161 26.1015 29.5562 25.9744C30.1964 25.8472 30.8599 25.9125 31.4629 26.1619C32.0659 26.4113 32.5813 26.8337 32.9439 27.3757C33.3065 27.9176 33.5 28.5548 33.5 29.2066C33.5 30.0806 33.1523 30.9188 32.5335 31.5368C31.9146 32.1549 31.0752 32.5021 30.2 32.5021V32.5021Z" fill="white"/>
<path d="M20.76 22.6454L23.97 19.1902L27.97 22.945C28.1103 23.071 28.2915 23.142 28.48 23.1448C28.5836 23.1467 28.6863 23.1262 28.7812 23.0849C28.8762 23.0435 28.961 22.9822 29.03 22.9051C29.1008 22.8362 29.157 22.7539 29.1954 22.663C29.2338 22.5721 29.2536 22.4745 29.2536 22.3758C29.2536 22.2772 29.2338 22.1795 29.1954 22.0886C29.157 21.9977 29.1008 21.9154 29.03 21.8465L24.31 17.4625C24.31 17.4625 24.31 17.4625 24.31 17.4026L23.13 16.3141C22.9349 16.1358 22.6769 16.042 22.4127 16.0533C22.1484 16.0645 21.8994 16.1798 21.72 16.374L17.56 20.798C17.4779 20.8792 17.4153 20.9781 17.3772 21.0871C17.3391 21.1962 17.3264 21.3124 17.34 21.4271C17.2992 21.5729 17.3041 21.7277 17.3542 21.8706C17.4042 22.0134 17.4971 22.1375 17.62 22.226L22.38 25.6813V30.5846C22.38 30.7833 22.4591 30.9738 22.5997 31.1142C22.7404 31.2547 22.9311 31.3336 23.13 31.3336C23.329 31.3336 23.5197 31.2547 23.6604 31.1142C23.801 30.9738 23.88 30.7833 23.88 30.5846V24.9124L20.75 22.6454H20.76Z" fill="white"/>
<path d="M26.38 16.7935C26.8547 16.7935 27.3187 16.6529 27.7133 16.3895C28.108 16.1262 28.4156 15.7519 28.5973 15.3139C28.7789 14.876 28.8265 14.3941 28.7339 13.9292C28.6413 13.4642 28.4127 13.0372 28.077 12.702C27.7414 12.3668 27.3138 12.1385 26.8482 12.0461C26.3826 11.9536 25.9001 12.001 25.4615 12.1824C25.023 12.3638 24.6482 12.671 24.3845 13.0652C24.1207 13.4593 23.98 13.9227 23.98 14.3967C23.9826 15.0316 24.2363 15.6397 24.6858 16.0886C25.1353 16.5375 25.7443 16.7908 26.38 16.7935V16.7935Z" fill="white"/>
</svg>
