<svg width="50" height="51" viewBox="0 0 50 51" fill="none" xmlns="http://www.w3.org/2000/svg">
<circle opacity="0.3" cx="25" cy="23" r="23" fill="#454545"/>
<rect x="0.5" y="37.5" width="49" height="13" rx="4.5" fill="#FFACA6" stroke="white"/>
<path d="M9.05366 39.896H8.04566L7.50966 40.6L6.97366 39.896H5.96566L6.85366 41.232H8.16566L9.05366 39.896ZM9.90166 45.488L8.65366 45.136C8.52566 45.728 8.19766 46 7.60566 46C6.82966 46 6.40566 45.432 6.40566 44.36C6.40566 43.28 6.86166 42.72 7.62966 42.72C8.17366 42.72 8.47766 42.928 8.62966 43.584L9.83766 43.096C9.57366 42.096 8.68566 41.64 7.58166 41.64C5.98966 41.64 4.99766 42.656 4.99766 44.36C4.99766 46.064 5.98166 47.08 7.58966 47.08C8.70966 47.08 9.58966 46.592 9.90166 45.488ZM13.355 41.64C11.747 41.64 10.763 42.656 10.763 44.36C10.763 46.064 11.747 47.08 13.355 47.08C14.963 47.08 15.939 46.064 15.939 44.36C15.939 42.656 14.963 41.64 13.355 41.64ZM13.355 42.72C14.115 42.72 14.531 43.28 14.531 44.36C14.531 45.44 14.115 46 13.355 46C12.587 46 12.171 45.44 12.171 44.36C12.171 43.28 12.587 42.72 13.355 42.72ZM19.2225 41.64C17.7745 41.64 16.9505 42.368 16.9505 43.36C16.9505 44.264 17.5185 44.728 18.9985 45C19.7825 45.152 20.0305 45.288 20.0305 45.528C20.0305 45.832 19.7425 46.016 19.1505 46.016C18.4465 46.016 17.9345 45.824 17.5105 45.216L16.7985 46.184C17.3185 46.76 17.9745 47.08 19.2225 47.08C20.4945 47.08 21.4545 46.488 21.4545 45.456C21.4545 44.528 20.8865 44.064 19.4385 43.816C18.6305 43.672 18.3825 43.512 18.3825 43.24C18.3825 42.936 18.6785 42.712 19.2465 42.712C19.9185 42.712 20.3665 42.96 20.7185 43.488L21.4945 42.592C20.8865 41.912 20.2145 41.64 19.2225 41.64ZM25.955 47H27.515L25.627 43.864L27.419 41.72H25.891L24.003 44.064V41.72H22.627V47H24.003V45.512L24.643 44.736L25.955 47ZM30.4087 41.64C28.8007 41.64 27.8167 42.656 27.8167 44.36C27.8167 46.064 28.8007 47.08 30.4087 47.08C32.0167 47.08 32.9927 46.064 32.9927 44.36C32.9927 42.656 32.0167 41.64 30.4087 41.64ZM30.4087 42.72C31.1687 42.72 31.5847 43.28 31.5847 44.36C31.5847 45.44 31.1687 46 30.4087 46C29.6407 46 29.2247 45.44 29.2247 44.36C29.2247 43.28 29.6407 42.72 30.4087 42.72ZM37.5632 47H39.0832L37.7392 44.928C38.4112 44.688 38.7712 44.168 38.7712 43.4C38.7712 42.312 38.0512 41.72 36.7792 41.72H34.2592V47H35.6112V45.072H36.4352L37.5632 47ZM35.6112 42.76H36.5472C37.1312 42.76 37.3872 42.96 37.3872 43.424C37.3872 43.896 37.1312 44.096 36.5472 44.096H35.6112V42.76ZM42.4159 41.64C40.8079 41.64 39.8239 42.656 39.8239 44.36C39.8239 46.064 40.8079 47.08 42.4159 47.08C44.0239 47.08 44.9999 46.064 44.9999 44.36C44.9999 42.656 44.0239 41.64 42.4159 41.64ZM42.4159 42.72C43.1759 42.72 43.5919 43.28 43.5919 44.36C43.5919 45.44 43.1759 46 42.4159 46C41.6479 46 41.2319 45.44 41.2319 44.36C41.2319 43.28 41.6479 42.72 42.4159 42.72Z" fill="white"/>
<path d="M36.2583 24.2091L32.8683 25.1585C32.7991 25.1677 32.7288 25.1677 32.6596 25.1585C32.4995 25.1591 32.3435 25.1105 32.2146 25.0199C32.0857 24.9293 31.9907 24.8014 31.9438 24.6553C31.9147 24.5656 31.9045 24.4712 31.9137 24.3776C31.923 24.2841 31.9515 24.1932 31.9977 24.1103C32.0439 24.0273 32.1069 23.9539 32.1829 23.8943C32.259 23.8347 32.3466 23.79 32.4408 23.7629L35.97 22.7946L35.8904 22.3579C35.7848 21.8959 35.5098 21.4852 35.115 21.1997L33.4151 15.086C33.2902 14.688 33.0569 14.3289 32.739 14.0453C32.4211 13.7618 32.03 13.5639 31.6058 13.4721C29.4341 13.1321 27.2351 12.9764 25.0347 13.0069C22.8251 12.9653 20.6161 13.1114 18.4337 13.4436C18.0094 13.5355 17.6184 13.7333 17.3005 14.0169C16.9826 14.3004 16.7492 14.6595 16.6244 15.0575L14.8946 21.1997C14.4864 21.489 14.2035 21.9112 14.0993 22.3864L14.0198 22.8231L17.5688 23.8389C17.663 23.866 17.7507 23.9106 17.8267 23.9703C17.9028 24.0299 17.9657 24.1033 18.0119 24.1862C18.0581 24.2692 18.0867 24.3601 18.0959 24.4536C18.1052 24.5471 18.095 24.6415 18.0659 24.7313C18.0189 24.8774 17.924 25.0052 17.7951 25.0958C17.6662 25.1864 17.5102 25.235 17.3501 25.2344C17.2809 25.2436 17.2106 25.2436 17.1413 25.2344L13.7514 24.2851L13.0257 28.0824C12.9847 28.3001 12.9928 28.5236 13.0494 28.738C13.106 28.9524 13.2097 29.1529 13.3537 29.3261C13.579 29.5798 13.8872 29.7537 14.2286 29.8197V32.0507C14.2286 32.3024 14.3333 32.5439 14.5197 32.7219C14.7062 32.9 14.959 33 15.2227 33H17.4893C17.7529 33 18.0058 32.9 18.1922 32.7219C18.3787 32.5439 18.4834 32.3024 18.4834 32.0507V29.7438H31.5263V31.9367C31.5263 32.1885 31.631 32.43 31.8174 32.608C32.0039 32.7861 32.2567 32.8861 32.5204 32.8861H34.787C35.0506 32.8861 35.3035 32.7861 35.4899 32.608C35.6764 32.43 35.7811 32.1885 35.7811 31.9367V29.7438C36.1201 29.6718 36.4264 29.4989 36.6559 29.2501C36.8021 29.0709 36.9054 28.8633 36.9586 28.6419C37.0119 28.4205 37.0137 28.1907 36.9641 27.9685L36.2583 24.2091ZM28.5737 26.573H21.4359C21.239 26.5705 21.0508 26.4947 20.9116 26.3617C20.7723 26.2287 20.6929 26.049 20.6903 25.861C20.6903 25.6721 20.7689 25.491 20.9087 25.3575C21.0486 25.224 21.2382 25.149 21.4359 25.149H28.5737C28.7715 25.149 28.9611 25.224 29.1009 25.3575C29.2408 25.491 29.3193 25.6721 29.3193 25.861C29.3167 26.049 29.2374 26.2287 29.0981 26.3617C28.9588 26.4947 28.7707 26.5705 28.5737 26.573ZM26.0288 20.2504C25.3338 20.2029 24.6361 20.2029 23.9411 20.2504L16.5449 20.763L18.0758 15.4277C18.128 15.2883 18.2136 15.1625 18.3258 15.0603C18.438 14.9581 18.5737 14.8823 18.722 14.8391C20.8106 14.5354 22.9222 14.3989 25.0347 14.4309C27.1504 14.3984 29.2653 14.5349 31.3573 14.8391C31.5056 14.8823 31.6412 14.9581 31.7534 15.0603C31.8656 15.1625 31.9513 15.2883 32.0034 15.4277L33.4549 20.725L26.0288 20.2504Z" fill="white"/>
</svg>
