<svg width="46" height="46" viewBox="0 0 46 46" fill="none" xmlns="http://www.w3.org/2000/svg">
<circle cx="23" cy="23" r="23" fill="#454545"/>
<path d="M34.2583 24.2091L30.8683 25.1585C30.7991 25.1677 30.7288 25.1677 30.6596 25.1585C30.4995 25.1591 30.3435 25.1105 30.2146 25.0199C30.0857 24.9293 29.9907 24.8014 29.9438 24.6553C29.9147 24.5656 29.9045 24.4712 29.9137 24.3776C29.923 24.2841 29.9515 24.1932 29.9977 24.1103C30.0439 24.0273 30.1069 23.9539 30.1829 23.8943C30.259 23.8347 30.3466 23.79 30.4408 23.7629L33.97 22.7946L33.8904 22.3579C33.7848 21.8959 33.5098 21.4852 33.115 21.1997L31.4151 15.086C31.2902 14.688 31.0569 14.3289 30.739 14.0453C30.4211 13.7618 30.03 13.5639 29.6058 13.4721C27.4341 13.1321 25.2351 12.9764 23.0347 13.0069C20.8251 12.9653 18.6161 13.1114 16.4337 13.4436C16.0094 13.5355 15.6184 13.7333 15.3005 14.0169C14.9826 14.3004 14.7492 14.6595 14.6244 15.0575L12.8946 21.1997C12.4864 21.489 12.2035 21.9112 12.0993 22.3864L12.0198 22.8231L15.5688 23.8389C15.663 23.866 15.7507 23.9106 15.8267 23.9703C15.9028 24.0299 15.9657 24.1033 16.0119 24.1862C16.0581 24.2692 16.0867 24.3601 16.0959 24.4536C16.1052 24.5471 16.095 24.6415 16.0659 24.7313C16.0189 24.8774 15.924 25.0052 15.7951 25.0958C15.6662 25.1864 15.5102 25.235 15.3501 25.2344C15.2809 25.2436 15.2106 25.2436 15.1413 25.2344L11.7514 24.2851L11.0257 28.0824C10.9847 28.3001 10.9928 28.5236 11.0494 28.738C11.106 28.9524 11.2097 29.1529 11.3537 29.3261C11.579 29.5798 11.8872 29.7537 12.2286 29.8197V32.0507C12.2286 32.3024 12.3333 32.5439 12.5197 32.7219C12.7062 32.9 12.959 33 13.2227 33H15.4893C15.7529 33 16.0058 32.9 16.1922 32.7219C16.3787 32.5439 16.4834 32.3024 16.4834 32.0507V29.7438H29.5263V31.9367C29.5263 32.1885 29.631 32.43 29.8174 32.608C30.0039 32.7861 30.2567 32.8861 30.5204 32.8861H32.787C33.0506 32.8861 33.3035 32.7861 33.4899 32.608C33.6764 32.43 33.7811 32.1885 33.7811 31.9367V29.7438C34.1201 29.6718 34.4264 29.4989 34.6559 29.2501C34.8021 29.0709 34.9054 28.8633 34.9586 28.6419C35.0119 28.4205 35.0137 28.1907 34.9641 27.9685L34.2583 24.2091ZM26.5737 26.573H19.4359C19.239 26.5705 19.0508 26.4947 18.9116 26.3617C18.7723 26.2287 18.6929 26.049 18.6903 25.861C18.6903 25.6721 18.7689 25.491 18.9087 25.3575C19.0486 25.224 19.2382 25.149 19.4359 25.149H26.5737C26.7715 25.149 26.9611 25.224 27.1009 25.3575C27.2408 25.491 27.3193 25.6721 27.3193 25.861C27.3167 26.049 27.2374 26.2287 27.0981 26.3617C26.9588 26.4947 26.7707 26.5705 26.5737 26.573ZM24.0288 20.2504C23.3338 20.2029 22.6361 20.2029 21.9411 20.2504L14.5449 20.763L16.0758 15.4277C16.128 15.2883 16.2136 15.1625 16.3258 15.0603C16.438 14.9581 16.5737 14.8823 16.722 14.8391C18.8106 14.5354 20.9222 14.3989 23.0347 14.4309C25.1504 14.3984 27.2653 14.5349 29.3573 14.8391C29.5056 14.8823 29.6412 14.9581 29.7534 15.0603C29.8656 15.1625 29.9513 15.2883 30.0034 15.4277L31.4549 20.725L24.0288 20.2504Z" fill="white"/>
</svg>
