<svg width="46" height="46" viewBox="0 0 46 46" fill="none" xmlns="http://www.w3.org/2000/svg">
<circle cx="23" cy="23" r="22" stroke="#C4C4C4" stroke-width="2"/>
<path d="M17.339 31.384H28.6609C28.9286 31.384 29.1852 31.2784 29.3745 31.0906C29.5637 30.9027 29.67 30.648 29.67 30.3823V14.2254C29.67 13.9597 29.5637 13.7049 29.3745 13.5171C29.1852 13.3292 28.9286 13.2237 28.6609 13.2237H26.885V12.0017C26.885 11.736 26.7786 11.4812 26.5894 11.2934C26.4002 11.1055 26.1435 11 25.8759 11H20.1241C19.8565 11 19.5998 11.1055 19.4106 11.2934C19.2213 11.4812 19.115 11.736 19.115 12.0017V13.2237H17.339C17.0714 13.2237 16.8147 13.3292 16.6255 13.5171C16.4363 13.7049 16.33 13.9597 16.33 14.2254V30.3823C16.33 30.648 16.4363 30.9027 16.6255 31.0906C16.8147 31.2784 17.0714 31.384 17.339 31.384ZM17.8436 14.7262H28.1564V29.8815H17.8436V14.7262Z" fill="#C4C4C4"/>
<path d="M26.0675 20.8064H23.5751L24.453 18.0117C24.4696 17.9399 24.4686 17.8653 24.4502 17.7939C24.4317 17.7226 24.3963 17.6567 24.3469 17.6018C24.2974 17.5468 24.2355 17.5044 24.1662 17.4782C24.0968 17.4519 24.0222 17.4425 23.9485 17.4508H21.0221C20.9039 17.4446 20.7872 17.4792 20.6916 17.5485C20.596 17.6178 20.5274 17.7178 20.4974 17.8314L19.3975 23.0201C19.3927 23.0888 19.4031 23.1578 19.428 23.2221C19.453 23.2864 19.4919 23.3445 19.5419 23.3923C19.592 23.44 19.652 23.4763 19.7177 23.4985C19.7834 23.5208 19.8532 23.5284 19.9222 23.5209H22.5055L21.4964 27.0368C21.4856 27.1081 21.4911 27.181 21.5126 27.2499C21.534 27.3189 21.5708 27.3822 21.6202 27.4351C21.6697 27.488 21.7305 27.5292 21.7981 27.5556C21.8658 27.582 21.9385 27.593 22.011 27.5877C22.1001 27.5898 22.1882 27.5699 22.2675 27.5297C22.3468 27.4894 22.4147 27.4302 22.4651 27.3573L26.5015 21.4875C26.7436 21.177 26.4914 20.8064 26.0675 20.8064Z" fill="#C4C4C4"/>
<path d="M32.2432 33.4975H13.7568C13.5561 33.4975 13.3636 33.5767 13.2217 33.7175C13.0797 33.8584 13 34.0495 13 34.2488C13.0026 34.4472 13.0832 34.6368 13.2246 34.7771C13.3659 34.9174 13.5569 34.9974 13.7568 35H32.2432C32.4439 35 32.6364 34.9209 32.7783 34.78C32.9203 34.6391 33 34.448 33 34.2488C33.0014 34.1497 32.9827 34.0514 32.9452 33.9597C32.9076 33.8679 32.8519 33.7846 32.7814 33.7145C32.7108 33.6445 32.6268 33.5892 32.5344 33.5519C32.442 33.5147 32.343 33.4962 32.2432 33.4975Z" fill="#C4C4C4"/>
</svg>
