<svg width="46" height="46" viewBox="0 0 46 46" fill="none" xmlns="http://www.w3.org/2000/svg">
<circle cx="23" cy="23" r="22" stroke="#C4C4C4" stroke-width="2"/>
<path d="M32.8089 11.0007H13.2211C12.9095 10.9899 12.6062 11.1026 12.3775 11.3143C12.1487 11.526 12.013 11.8195 12 12.1307V31.4407C12.013 31.752 12.1487 32.0454 12.3775 32.2571C12.6062 32.4688 12.9095 32.5815 13.2211 32.5707H15.3831V33.9107C15.3857 34.2007 15.5029 34.4779 15.7091 34.6821C15.9153 34.8862 16.1938 35.0007 16.4841 35.0007H18.2257C18.3698 35.002 18.5127 34.9748 18.6462 34.9206C18.7798 34.8664 18.9012 34.7864 19.0036 34.685C19.106 34.5837 19.1872 34.4631 19.2427 34.3302C19.2981 34.1973 19.3267 34.0547 19.3267 33.9107V32.5707H26.7334V33.9107C26.7334 34.0547 26.7619 34.1973 26.8174 34.3302C26.8728 34.4631 26.9541 34.5837 27.0565 34.685C27.1588 34.7864 27.2803 34.8664 27.4138 34.9206C27.5473 34.9748 27.6903 35.002 27.8344 35.0007H29.596C29.7401 35.002 29.8831 34.9748 30.0166 34.9206C30.1501 34.8664 30.2716 34.7864 30.3739 34.685C30.4763 34.5837 30.5576 34.4631 30.613 34.3302C30.6685 34.1973 30.697 34.0547 30.697 33.9107V32.5707H32.7789C33.0905 32.5815 33.3938 32.4688 33.6225 32.2571C33.8513 32.0454 33.987 31.752 34 31.4407V12.1307C33.987 11.8248 33.8555 11.5358 33.6333 11.325C33.411 11.1141 33.1154 10.9978 32.8089 11.0007ZM19.0965 29.5007C19.0189 29.6564 18.8987 29.787 18.7499 29.8773C18.6011 29.9675 18.4298 30.0138 18.2557 30.0107C18.1289 30.011 18.0032 29.9873 17.8854 29.9407L14.8326 28.7107C14.7255 28.6714 14.6278 28.6104 14.5453 28.5317C14.4629 28.4529 14.3976 28.358 14.3535 28.253C14.3093 28.1479 14.2873 28.0349 14.2888 27.9209C14.2903 27.807 14.3153 27.6946 14.3621 27.5907C14.4798 27.3866 14.6658 27.2306 14.8874 27.1501C15.109 27.0696 15.3518 27.0698 15.5732 27.1507L18.576 28.3807C18.6874 28.4148 18.7905 28.472 18.8784 28.5485C18.9663 28.625 19.037 28.7191 19.0861 28.8248C19.1352 28.9304 19.1615 29.0452 19.1633 29.1617C19.1651 29.2781 19.1423 29.3936 19.0965 29.5007ZM31.2375 28.7107L28.1347 29.9407C28.0172 29.9888 27.8912 30.0126 27.7643 30.0107C27.5903 30.0138 27.4189 29.9675 27.2701 29.8773C27.1213 29.787 27.0011 29.6564 26.9236 29.5007C26.8769 29.3962 26.8524 29.2832 26.8516 29.1688C26.8508 29.0543 26.8736 28.941 26.9187 28.8358C26.9639 28.7306 27.0303 28.6359 27.1138 28.5576C27.1973 28.4793 27.2961 28.4191 27.404 28.3807L30.4067 27.1507C30.6256 27.0593 30.8709 27.0538 31.0936 27.1354C31.3164 27.217 31.5 27.3796 31.6078 27.5907C31.6577 27.6884 31.6876 27.7951 31.696 27.9044C31.7043 28.0138 31.6909 28.1237 31.6564 28.2279C31.622 28.332 31.5672 28.4283 31.4953 28.5112C31.4234 28.5941 31.3358 28.6619 31.2375 28.7107ZM32.3385 23.8607C32.3212 24.0968 32.2366 24.3231 32.0947 24.5127C31.9528 24.7023 31.7595 24.8473 31.5378 24.9307L26.5332 26.6707C25.9958 26.8439 25.4362 26.9382 24.8717 26.9507H21.3085C20.744 26.9382 20.1843 26.8439 19.647 26.6707L14.5023 24.8607C14.2805 24.7773 14.0872 24.6323 13.9453 24.4427C13.8035 24.2531 13.7189 24.0268 13.7015 23.7907V13.4007C13.7119 13.1823 13.8082 12.9768 13.9694 12.8289C14.1305 12.681 14.3436 12.6026 14.5623 12.6107H31.4777C31.6964 12.6026 31.9095 12.681 32.0707 12.8289C32.2319 12.9768 32.3281 13.1823 32.3385 13.4007V23.8607Z" fill="#C4C4C4"/>
</svg>
