<svg width="50" height="51" viewBox="0 0 50 51" fill="none" xmlns="http://www.w3.org/2000/svg">
<circle opacity="0.3" cx="25" cy="23" r="23" fill="#B961A7"/>
<rect x="0.5" y="37.5" width="49" height="13" rx="4.5" fill="#FFACA6" stroke="white"/>
<path d="M9.05366 39.896H8.04566L7.50966 40.6L6.97366 39.896H5.96566L6.85366 41.232H8.16566L9.05366 39.896ZM9.90166 45.488L8.65366 45.136C8.52566 45.728 8.19766 46 7.60566 46C6.82966 46 6.40566 45.432 6.40566 44.36C6.40566 43.28 6.86166 42.72 7.62966 42.72C8.17366 42.72 8.47766 42.928 8.62966 43.584L9.83766 43.096C9.57366 42.096 8.68566 41.64 7.58166 41.64C5.98966 41.64 4.99766 42.656 4.99766 44.36C4.99766 46.064 5.98166 47.08 7.58966 47.08C8.70966 47.08 9.58966 46.592 9.90166 45.488ZM13.355 41.64C11.747 41.64 10.763 42.656 10.763 44.36C10.763 46.064 11.747 47.08 13.355 47.08C14.963 47.08 15.939 46.064 15.939 44.36C15.939 42.656 14.963 41.64 13.355 41.64ZM13.355 42.72C14.115 42.72 14.531 43.28 14.531 44.36C14.531 45.44 14.115 46 13.355 46C12.587 46 12.171 45.44 12.171 44.36C12.171 43.28 12.587 42.72 13.355 42.72ZM19.2225 41.64C17.7745 41.64 16.9505 42.368 16.9505 43.36C16.9505 44.264 17.5185 44.728 18.9985 45C19.7825 45.152 20.0305 45.288 20.0305 45.528C20.0305 45.832 19.7425 46.016 19.1505 46.016C18.4465 46.016 17.9345 45.824 17.5105 45.216L16.7985 46.184C17.3185 46.76 17.9745 47.08 19.2225 47.08C20.4945 47.08 21.4545 46.488 21.4545 45.456C21.4545 44.528 20.8865 44.064 19.4385 43.816C18.6305 43.672 18.3825 43.512 18.3825 43.24C18.3825 42.936 18.6785 42.712 19.2465 42.712C19.9185 42.712 20.3665 42.96 20.7185 43.488L21.4945 42.592C20.8865 41.912 20.2145 41.64 19.2225 41.64ZM25.955 47H27.515L25.627 43.864L27.419 41.72H25.891L24.003 44.064V41.72H22.627V47H24.003V45.512L24.643 44.736L25.955 47ZM30.4087 41.64C28.8007 41.64 27.8167 42.656 27.8167 44.36C27.8167 46.064 28.8007 47.08 30.4087 47.08C32.0167 47.08 32.9927 46.064 32.9927 44.36C32.9927 42.656 32.0167 41.64 30.4087 41.64ZM30.4087 42.72C31.1687 42.72 31.5847 43.28 31.5847 44.36C31.5847 45.44 31.1687 46 30.4087 46C29.6407 46 29.2247 45.44 29.2247 44.36C29.2247 43.28 29.6407 42.72 30.4087 42.72ZM37.5632 47H39.0832L37.7392 44.928C38.4112 44.688 38.7712 44.168 38.7712 43.4C38.7712 42.312 38.0512 41.72 36.7792 41.72H34.2592V47H35.6112V45.072H36.4352L37.5632 47ZM35.6112 42.76H36.5472C37.1312 42.76 37.3872 42.96 37.3872 43.424C37.3872 43.896 37.1312 44.096 36.5472 44.096H35.6112V42.76ZM42.4159 41.64C40.8079 41.64 39.8239 42.656 39.8239 44.36C39.8239 46.064 40.8079 47.08 42.4159 47.08C44.0239 47.08 44.9999 46.064 44.9999 44.36C44.9999 42.656 44.0239 41.64 42.4159 41.64ZM42.4159 42.72C43.1759 42.72 43.5919 43.28 43.5919 44.36C43.5919 45.44 43.1759 46 42.4159 46C41.6479 46 41.2319 45.44 41.2319 44.36C41.2319 43.28 41.6479 42.72 42.4159 42.72Z" fill="white"/>
<path d="M36.9183 25.3401C36.7353 24.4862 36.2728 23.7203 35.6062 23.1673C34.9395 22.6142 34.108 22.3066 33.247 22.2944L30.8762 16H28.0152C27.8162 16 27.6254 16.0802 27.4847 16.223C27.344 16.3658 27.2649 16.5595 27.2649 16.7614C27.2649 16.9634 27.344 17.157 27.4847 17.2998C27.6254 17.4426 27.8162 17.5228 28.0152 17.5228H29.8458L31.9466 23.1066L29.8358 26.3756H24.434V23.066C24.3978 22.4245 24.1391 21.8167 23.7037 21.3502L22.8034 20.5482C22.3177 20.1286 21.7097 19.8825 21.0728 19.8477H14.0003C13.869 19.8477 13.7389 19.874 13.6175 19.925C13.4962 19.976 13.3859 20.0508 13.293 20.1451C13.1054 20.3354 13 20.5937 13 20.8629V23.0558C13.0126 23.3475 13.1081 23.6292 13.275 23.8669C13.4418 24.1047 13.6729 24.2884 13.9403 24.3959L14.7006 24.6091C14.484 25.0907 14.3682 25.6127 14.3605 26.1421C14.3605 27.1653 14.761 28.1465 15.4739 28.87C16.1867 29.5935 17.1536 30 18.1618 30C18.8647 30.0031 19.5548 29.8083 20.1552 29.4373C20.7556 29.0663 21.2429 28.5336 21.563 27.8984H29.8258C30.1435 28.529 30.6262 29.0587 31.2208 29.4294C31.8154 29.8001 32.4992 29.9975 33.197 30C33.4623 29.9976 33.7269 29.9704 33.9873 29.9187C34.9733 29.7043 35.8354 29.102 36.3847 28.2439C36.9341 27.3857 37.126 26.3415 36.9183 25.3401ZM18.1918 28.4771C17.5816 28.4771 16.9964 28.2311 16.5649 27.7932C16.1334 27.3553 15.891 26.7614 15.891 26.1421C15.8955 25.7886 15.9811 25.441 16.1411 25.1269L19.3622 26.1929C19.7273 26.3097 20.1024 26.3913 20.4826 26.4365C20.4098 27.0008 20.1372 27.519 19.7157 27.8945C19.2942 28.2699 18.7526 28.477 18.1918 28.4771ZM35.1277 27.4111C34.9647 27.6699 34.7525 27.893 34.5034 28.0674C34.2543 28.2417 33.9734 28.3638 33.6772 28.4264C33.519 28.4583 33.3583 28.4753 33.197 28.4771C32.7648 28.4757 32.3416 28.3513 31.9755 28.118C31.6095 27.8847 31.3153 27.5519 31.1263 27.1573L33.277 23.7969C33.7881 23.8151 34.279 24.0041 34.6734 24.3346C35.0677 24.665 35.3435 25.1185 35.4578 25.6243C35.5239 25.9294 35.5287 26.2448 35.472 26.5518C35.4152 26.8588 35.2982 27.1511 35.1277 27.4111Z" fill="white"/>
</svg>
