<svg width="46" height="46" viewBox="0 0 46 46" fill="none" xmlns="http://www.w3.org/2000/svg">
<circle cx="23" cy="23" r="22" stroke="#C4C4C4" stroke-width="2"/>
<path d="M34.9183 25.3401C34.7353 24.4862 34.2728 23.7203 33.6062 23.1673C32.9395 22.6142 32.108 22.3066 31.247 22.2944L28.8762 16H26.0152C25.8162 16 25.6254 16.0802 25.4847 16.223C25.344 16.3658 25.2649 16.5595 25.2649 16.7614C25.2649 16.9634 25.344 17.157 25.4847 17.2998C25.6254 17.4426 25.8162 17.5228 26.0152 17.5228H27.8458L29.9466 23.1066L27.8358 26.3756H22.434V23.066C22.3978 22.4245 22.1391 21.8167 21.7037 21.3502L20.8034 20.5482C20.3177 20.1286 19.7097 19.8825 19.0728 19.8477H12.0003C11.869 19.8477 11.7389 19.874 11.6175 19.925C11.4962 19.976 11.3859 20.0508 11.293 20.1451C11.1054 20.3354 11 20.5937 11 20.8629V23.0558C11.0126 23.3475 11.1081 23.6292 11.275 23.8669C11.4418 24.1047 11.6729 24.2884 11.9403 24.3959L12.7006 24.6091C12.484 25.0907 12.3682 25.6127 12.3605 26.1421C12.3605 27.1653 12.761 28.1465 13.4739 28.87C14.1867 29.5935 15.1536 30 16.1618 30C16.8647 30.0031 17.5548 29.8083 18.1552 29.4373C18.7556 29.0663 19.2429 28.5336 19.563 27.8984H27.8258C28.1435 28.529 28.6262 29.0587 29.2208 29.4294C29.8154 29.8001 30.4992 29.9975 31.197 30C31.4623 29.9976 31.7269 29.9704 31.9873 29.9187C32.9733 29.7043 33.8354 29.102 34.3847 28.2439C34.9341 27.3857 35.126 26.3415 34.9183 25.3401ZM16.1918 28.4771C15.5816 28.4771 14.9964 28.2311 14.5649 27.7932C14.1334 27.3553 13.891 26.7614 13.891 26.1421C13.8955 25.7886 13.9811 25.441 14.1411 25.1269L17.3622 26.1929C17.7273 26.3097 18.1024 26.3913 18.4826 26.4365C18.4098 27.0008 18.1372 27.519 17.7157 27.8945C17.2942 28.2699 16.7526 28.477 16.1918 28.4771ZM33.1277 27.4111C32.9647 27.6699 32.7525 27.893 32.5034 28.0674C32.2543 28.2417 31.9734 28.3638 31.6772 28.4264C31.519 28.4583 31.3583 28.4753 31.197 28.4771C30.7648 28.4757 30.3416 28.3513 29.9755 28.118C29.6095 27.8847 29.3153 27.5519 29.1263 27.1573L31.277 23.7969C31.7881 23.8151 32.279 24.0041 32.6734 24.3346C33.0677 24.665 33.3435 25.1185 33.4578 25.6243C33.5239 25.9294 33.5287 26.2448 33.472 26.5518C33.4152 26.8588 33.2982 27.1511 33.1277 27.4111Z" fill="#C4C4C4"/>
</svg>
