<svg width="46" height="46" viewBox="0 0 46 46" fill="none" xmlns="http://www.w3.org/2000/svg">
<circle cx="23" cy="23" r="23" fill="#80D19D"/>
<path d="M15.4034 25.4112C16.5737 25.4099 17.6968 25.8808 18.5263 26.7209C18.5943 26.7935 18.6764 26.8509 18.7675 26.8893C18.8585 26.9278 18.9565 26.9465 19.055 26.9442C19.1534 26.9447 19.2508 26.9252 19.3416 26.8868C19.4324 26.8485 19.5147 26.792 19.5838 26.7209C19.724 26.5781 19.8027 26.3846 19.8027 26.1828C19.8027 25.981 19.724 25.7875 19.5838 25.6447C19.0359 25.0851 18.3843 24.6416 17.6667 24.3401C16.9491 24.0387 16.1798 23.8851 15.4034 23.8884C14.627 23.8845 13.8576 24.0378 13.1399 24.3394C12.4222 24.6409 11.7707 25.0846 11.2231 25.6447C11.1525 25.7147 11.0964 25.7984 11.058 25.8908C11.0197 25.9832 11 26.0825 11 26.1828C11 26.2831 11.0197 26.3824 11.058 26.4748C11.0964 26.5672 11.1525 26.6509 11.2231 26.7209C11.3634 26.8635 11.5535 26.9435 11.7518 26.9435C11.9501 26.9435 12.1403 26.8635 12.2806 26.7209C12.6907 26.304 13.1777 25.9737 13.7136 25.749C14.2495 25.5242 14.8238 25.4094 15.4034 25.4112Z" fill="white"/>
<path d="M31.4067 26.6599H31.2969L28.2041 12.599C28.1661 12.4306 28.0737 12.28 27.9416 12.1714C27.8096 12.0628 27.6455 12.0024 27.4757 12H24.1234C23.925 12 23.7347 12.0802 23.5943 12.223C23.454 12.3658 23.3752 12.5595 23.3752 12.7614C23.3752 12.9634 23.454 13.157 23.5943 13.2998C23.7347 13.4426 23.925 13.5228 24.1234 13.5228H26.8771L29.8702 26.9949C29.1305 27.3665 28.5362 27.982 28.1841 28.7411H18.5662C18.2777 28.1361 17.8286 27.6254 17.2697 27.2665C16.7108 26.9077 16.0643 26.7152 15.4035 26.7107C14.7569 26.7122 14.1228 26.8919 13.5684 27.2305C13.014 27.5692 12.5601 28.0542 12.2548 28.6342C11.9494 29.2141 11.804 29.8674 11.8341 30.5246C11.8641 31.1819 12.0684 31.8186 12.4253 32.3672C12.7823 32.9158 13.2785 33.3559 13.8613 33.6407C14.4442 33.9256 15.092 34.0446 15.7359 33.9851C16.3799 33.9256 16.996 33.6898 17.5189 33.3028C18.0418 32.9157 18.4519 32.3919 18.7059 31.7868H28.1642C28.4329 32.3815 28.8542 32.8916 29.3836 33.2634C29.913 33.6353 30.531 33.8552 31.1728 33.9C31.8145 33.9449 32.4563 33.8131 33.0307 33.5184C33.6051 33.2237 34.0909 32.7771 34.4371 32.2254C34.7833 31.6737 34.9771 31.0373 34.9981 30.383C35.0191 29.7288 34.8666 29.0809 34.5566 28.5074C34.2466 27.9338 33.7905 27.4558 33.2362 27.1236C32.6819 26.7914 32.05 26.6172 31.4067 26.6193V26.6599ZM15.4434 32.5584C15.0306 32.5604 14.6264 32.4377 14.2822 32.2057C13.938 31.9738 13.6692 31.6431 13.5098 31.2556C13.3505 30.8681 13.3078 30.4411 13.3871 30.0289C13.4664 29.6166 13.6642 29.2376 13.9554 28.9398C14.2467 28.6421 14.6182 28.439 15.0229 28.3563C15.4277 28.2736 15.8475 28.315 16.2291 28.4753C16.6107 28.6356 16.9369 28.9075 17.1665 29.2567C17.3961 29.6058 17.5186 30.0165 17.5186 30.4366C17.5173 30.7174 17.4615 30.9952 17.3544 31.254C17.2473 31.5128 17.0909 31.7476 16.8944 31.9447C16.6979 32.1419 16.465 32.2976 16.2091 32.4029C15.9533 32.5082 15.6795 32.5611 15.4035 32.5584H15.4434ZM31.4067 32.4264C30.9943 32.4264 30.5911 32.302 30.2482 32.0688C29.9053 31.8357 29.638 31.5043 29.4802 31.1166C29.3224 30.7288 29.2811 30.3022 29.3616 29.8906C29.442 29.479 29.6406 29.101 29.9322 28.8042C30.2239 28.5075 30.5954 28.3054 30.9999 28.2235C31.4044 28.1416 31.8237 28.1837 32.2047 28.3443C32.5857 28.5049 32.9114 28.7768 33.1405 29.1257C33.3696 29.4747 33.4919 29.8849 33.4919 30.3046C33.4919 30.8673 33.2722 31.407 32.8812 31.8049C32.4901 32.2029 31.9597 32.4264 31.4067 32.4264Z" fill="white"/>
</svg>
