<svg width="16" height="20" viewBox="0 0 16 20" fill="none" xmlns="http://www.w3.org/2000/svg">
<path d="M14.8738 1.96913H12.1434C12.1434 1.96913 12.1434 1.89462 12.1434 1.86269C12.1434 1.36868 11.9475 0.894891 11.5989 0.545569C11.2502 0.196246 10.7773 0 10.2842 0H5.64143C5.14834 0 4.67543 0.196246 4.32676 0.545569C3.97809 0.894891 3.7822 1.36868 3.7822 1.86269C3.7822 1.86269 3.7822 1.92655 3.7822 1.96913H1.06242C0.780646 1.96913 0.510416 2.08127 0.311175 2.28088C0.111933 2.4805 0 2.75123 0 3.03353V17.3177C0 17.6 0.111933 17.8707 0.311175 18.0704C0.510416 18.27 0.780646 18.3821 1.06242 18.3821H2.18858V18.9356C2.18858 19.2179 2.30051 19.4886 2.49975 19.6882C2.699 19.8879 2.96923 20 3.251 20H4.31341C4.59518 20 4.86541 19.8879 5.06466 19.6882C5.2639 19.4886 5.37583 19.2179 5.37583 18.9356V18.3821H10.6879V18.9356C10.6879 19.2179 10.7998 19.4886 10.9991 19.6882C11.1983 19.8879 11.4686 20 11.7503 20H12.8127C13.0945 20 13.3647 19.8879 13.564 19.6882C13.7632 19.4886 13.8752 19.2179 13.8752 18.9356V18.3821H14.9376C15.2194 18.3821 15.4896 18.27 15.6888 18.0704C15.8881 17.8707 16 17.6 16 17.3177V3.03353C16.0003 2.88821 15.9708 2.74437 15.9135 2.61089C15.8562 2.4774 15.7721 2.3571 15.6666 2.25738C15.5611 2.15765 15.4364 2.08063 15.3 2.03106C15.1637 1.98149 15.0186 1.96041 14.8738 1.96913ZM5.24834 16.0937C5.18775 16.2384 5.08588 16.3621 4.95549 16.4492C4.82511 16.5363 4.67198 16.5829 4.51527 16.5833C4.40926 16.5836 4.30434 16.5619 4.20717 16.5194L1.99734 15.5828C1.89954 15.541 1.81092 15.4803 1.73659 15.4042C1.66226 15.328 1.60366 15.2379 1.56418 15.139C1.5247 15.0401 1.50509 14.9344 1.5065 14.8279C1.50791 14.7214 1.53029 14.6162 1.57238 14.5184C1.6139 14.4204 1.67457 14.3317 1.75081 14.2575C1.82704 14.1834 1.91731 14.1253 2.01631 14.0866C2.1153 14.0479 2.22101 14.0295 2.32723 14.0323C2.43345 14.0352 2.53802 14.0593 2.63479 14.1032L4.78088 15.0506C4.88168 15.0859 4.97425 15.1414 5.05292 15.2138C5.1316 15.2861 5.19473 15.3738 5.23848 15.4714C5.28222 15.569 5.30566 15.6745 5.30735 15.7815C5.30905 15.8885 5.28897 15.9947 5.24834 16.0937ZM13.9283 15.5828L11.7185 16.5194C11.6207 16.56 11.5162 16.5816 11.4104 16.5833C11.2521 16.5836 11.0973 16.5374 10.9651 16.4504C10.8329 16.3633 10.7291 16.2393 10.6667 16.0937C10.6231 15.996 10.5996 15.8907 10.5974 15.7838C10.5953 15.6769 10.6146 15.5706 10.6543 15.4713C10.6939 15.3721 10.753 15.2818 10.8282 15.2058C10.9033 15.1299 10.9929 15.0699 11.0916 15.0293L13.2802 14.1139C13.3768 14.0684 13.4815 14.0431 13.5881 14.0395C13.6948 14.0359 13.801 14.054 13.9004 14.0929C13.9998 14.1317 14.0903 14.1904 14.1663 14.2654C14.2423 14.3403 14.3023 14.43 14.3426 14.529C14.3863 14.6252 14.4102 14.7292 14.413 14.8348C14.4157 14.9405 14.3972 15.0456 14.3585 15.1439C14.3199 15.2422 14.2618 15.3318 14.1879 15.4071C14.114 15.4825 14.0257 15.5423 13.9283 15.5828ZM14.4276 11.7084C14.42 11.9238 14.3508 12.1325 14.2285 12.3098C14.1061 12.4872 13.9355 12.6256 13.7371 12.7089L10.6242 13.8478C10.1573 14.0023 9.67068 14.0883 9.17928 14.1032H6.90571C6.4144 14.0874 5.92786 14.0014 5.46082 13.8478L2.27357 12.7089C2.07783 12.623 1.91021 12.4836 1.78995 12.3066C1.66968 12.1296 1.60164 11.9223 1.59363 11.7084V4.25758C1.59363 4.05998 1.67198 3.87046 1.81145 3.73073C1.95092 3.591 2.14008 3.51251 2.33732 3.51251H13.6839C13.7816 3.51251 13.8783 3.53178 13.9685 3.56922C14.0588 3.60666 14.1407 3.66155 14.2098 3.73073C14.2789 3.79992 14.3336 3.88206 14.371 3.97245C14.4084 4.06285 14.4276 4.15974 14.4276 4.25758V11.7084Z" fill="#000000"/>
</svg>
