<svg width="20" height="16" viewBox="0 0 20 16" fill="none" xmlns="http://www.w3.org/2000/svg">
<path d="M19.9556 11.4822L19.4908 9.32817L16.5198 10.1669C16.4494 10.1762 16.378 10.1762 16.3076 10.1669C16.1453 10.166 15.9875 10.1167 15.8568 10.0259C15.726 9.93516 15.6292 9.80767 15.58 9.66176C15.5234 9.48103 15.5447 9.28649 15.6393 9.12049C15.7339 8.95448 15.8942 8.83044 16.0853 8.77536L19.1876 7.89849C19.0892 7.47345 18.844 7.09126 18.4904 6.81194L17.1363 1.96056C17.0063 1.56159 16.7683 1.20146 16.4458 0.915655C16.1233 0.629855 15.7274 0.428255 15.2971 0.330729C13.5452 0.0792876 11.7736 -0.0291346 10.002 0.00666812C8.23368 -0.0288703 6.46545 0.079552 4.71693 0.330729C4.281 0.420238 3.87814 0.617456 3.54964 0.902177C3.22114 1.1869 2.9788 1.54888 2.84746 1.95103L1.48326 6.81194C1.14798 7.09948 0.918014 7.4799 0.826418 7.89849L3.85799 8.82302C4.05095 8.8761 4.21365 8.99931 4.3103 9.16554C4.40695 9.33178 4.42963 9.52741 4.37335 9.70942C4.32423 9.85533 4.22736 9.98282 4.09665 10.0736C3.96593 10.1643 3.80809 10.2137 3.64578 10.2146C3.57204 10.2245 3.49719 10.2245 3.42346 10.2146L0.492945 9.32817L0.03821 11.4822C-0.0132358 11.7 -0.0127257 11.9259 0.0397035 12.1434C0.0921327 12.361 0.195171 12.5649 0.341367 12.7403C0.545978 12.9653 0.816791 13.1278 1.11947 13.2074C1.11947 13.2074 1.11947 13.255 1.11947 13.2836V15.0469C1.11947 15.2997 1.22593 15.5421 1.41544 15.7208C1.60495 15.8996 1.86198 16 2.12999 16H3.60535C3.87336 16 4.13039 15.8996 4.3199 15.7208C4.50941 15.5421 4.61588 15.2997 4.61588 15.0469V13.3027H15.3678V15.0469C15.3678 15.2997 15.4743 15.5421 15.6638 15.7208C15.8533 15.8996 16.1104 16 16.3784 16H17.8739C18.1419 16 18.399 15.8996 18.5885 15.7208C18.778 15.5421 18.8845 15.2997 18.8845 15.0469V13.3027C18.8845 13.3027 18.8845 13.3027 18.8845 13.2264C19.1853 13.149 19.4535 12.9859 19.6525 12.7594C19.8036 12.5828 19.9096 12.3757 19.9622 12.1542C20.0147 11.9327 20.0125 11.7028 19.9556 11.4822ZM3.22136 6.28772L4.33293 2.32275C4.38288 2.1764 4.46963 2.04363 4.58576 1.93575C4.7019 1.82787 4.84397 1.74809 4.99988 1.70322C6.65235 1.47473 8.32206 1.3759 9.99186 1.40775C11.6583 1.37738 13.3245 1.4762 14.9737 1.70322C15.1245 1.74658 15.2624 1.8226 15.3765 1.92521C15.4905 2.02782 15.5775 2.15416 15.6306 2.29415L16.732 6.25913L11.0327 5.85882C10.3259 5.82069 9.61739 5.82069 8.9106 5.85882L3.22136 6.28772ZM12.9527 11.3297H7.05124C6.85105 11.3273 6.65979 11.2511 6.51822 11.1176C6.37665 10.9841 6.29596 10.8037 6.29334 10.6149C6.29596 10.4261 6.37665 10.2457 6.51822 10.1121C6.65979 9.97861 6.85105 9.90251 7.05124 9.90004H12.9527C13.1529 9.90251 13.3441 9.97861 13.4857 10.1121C13.6273 10.2457 13.708 10.4261 13.7106 10.6149C13.708 10.8037 13.6273 10.9841 13.4857 11.1176C13.3441 11.2511 13.1529 11.3273 12.9527 11.3297Z" fill="#000000"/>
</svg>
