<svg width="18" height="20" viewBox="0 0 18 20" fill="none" xmlns="http://www.w3.org/2000/svg">
<path d="M13.3037 3.33827V15.3861H4.70673V3.33827H13.3037ZM13.8411 1.84351H4.16941C3.88441 1.84351 3.61107 1.9485 3.40954 2.13538C3.20801 2.32226 3.09479 2.57573 3.09479 2.84002V15.8844C3.09479 16.1487 3.20801 16.4021 3.40954 16.589C3.61107 16.7759 3.88441 16.8809 4.16941 16.8809H13.8411C14.1261 16.8809 14.3994 16.7759 14.6009 16.589C14.8025 16.4021 14.9157 16.1487 14.9157 15.8844V2.84002C14.9157 2.57573 14.8025 2.32226 14.6009 2.13538C14.3994 1.9485 14.1261 1.84351 13.8411 1.84351Z" fill="#000000"/>
<path d="M12.1433 8.6796L8.52182 13.5426C8.47753 13.6021 8.41804 13.6505 8.34867 13.6836C8.27929 13.7166 8.20219 13.7332 8.12421 13.7319C8.0596 13.7376 7.99446 13.7292 7.93391 13.7076C7.87337 13.6859 7.81908 13.6515 7.77532 13.607C7.73156 13.5626 7.69953 13.5093 7.68175 13.4515C7.66398 13.3936 7.66093 13.3327 7.67287 13.2735L8.56481 10.3637H6.26511C6.2037 10.3745 6.14043 10.3721 6.08018 10.3567C6.01993 10.3413 5.9643 10.3132 5.91758 10.2747C5.87086 10.2362 5.8343 10.1883 5.81071 10.1346C5.78712 10.0809 5.77714 10.0229 5.78153 9.9651L6.7272 5.6502C6.75209 5.55545 6.81189 5.47174 6.89625 5.41352C6.98062 5.3553 7.08427 5.32622 7.18929 5.33132H9.81138C9.87652 5.32342 9.94277 5.33023 10.0045 5.35114C10.0662 5.37206 10.1215 5.40648 10.1658 5.45147C10.2101 5.49646 10.2421 5.55071 10.2589 5.60959C10.2758 5.66847 10.2771 5.73026 10.2627 5.78971L9.47824 8.14148H11.7135C12.1003 8.12155 12.326 8.43047 12.1433 8.6796Z" fill="#000000"/>
<path d="M11.3695 0H6.63035C6.03685 0 5.55573 0.446154 5.55573 0.996512V1.9133C5.55573 2.46366 6.03685 2.90982 6.63035 2.90982H11.3695C11.963 2.90982 12.4441 2.46366 12.4441 1.9133V0.996512C12.4441 0.446154 11.963 0 11.3695 0Z" fill="#000000"/>
<path fill-rule="evenodd" clip-rule="evenodd" d="M0 19.2525C0 18.8397 0.360845 18.5051 0.80597 18.5051H17.194C17.6392 18.5051 18 18.8397 18 19.2525C18 19.6653 17.6392 19.9999 17.194 19.9999H0.80597C0.360845 19.9999 0 19.6653 0 19.2525Z" fill="#000000"/>
</svg>
