<svg width="20" height="19" viewBox="0 0 20 19" fill="none" xmlns="http://www.w3.org/2000/svg">
<path d="M4 10.36C2.93913 10.36 1.92172 10.7814 1.17157 11.5316C0.421428 12.2817 0 13.2991 0 14.36C0 15.4209 0.421428 16.4383 1.17157 17.1884C1.92172 17.9386 2.93913 18.36 4 18.36C5.06087 18.36 6.07828 17.9386 6.82843 17.1884C7.57857 16.4383 8 15.4209 8 14.36C8 13.2991 7.57857 12.2817 6.82843 11.5316C6.07828 10.7814 5.06087 10.36 4 10.36ZM4 16.86C3.33696 16.86 2.70107 16.5966 2.23223 16.1278C1.76339 15.6589 1.5 15.023 1.5 14.36C1.5 13.6969 1.76339 13.0611 2.23223 12.5922C2.70107 12.1234 3.33696 11.86 4 11.86C4.66304 11.86 5.29893 12.1234 5.76777 12.5922C6.23661 13.0611 6.5 13.6969 6.5 14.36C6.5 15.023 6.23661 15.6589 5.76777 16.1278C5.29893 16.5966 4.66304 16.86 4 16.86Z" fill="#000000"/>
<path d="M16 10.36C14.9391 10.36 13.9217 10.7814 13.1716 11.5316C12.4214 12.2817 12 13.2991 12 14.36C12 15.4209 12.4214 16.4383 13.1716 17.1884C13.9217 17.9386 14.9391 18.36 16 18.36C17.0609 18.36 18.0783 17.9386 18.8284 17.1884C19.5786 16.4383 20 15.4209 20 14.36C20 13.2991 19.5786 12.2817 18.8284 11.5316C18.0783 10.7814 17.0609 10.36 16 10.36ZM16 16.86C15.337 16.86 14.7011 16.5966 14.2322 16.1278C13.7634 15.6589 13.5 15.023 13.5 14.36C13.5 13.6969 13.7634 13.0611 14.2322 12.5922C14.7011 12.1234 15.337 11.86 16 11.86C16.663 11.86 17.2989 12.1234 17.7678 12.5922C18.2366 13.0611 18.5 13.6969 18.5 14.36C18.5 15.023 18.2366 15.6589 17.7678 16.1278C17.2989 16.5966 16.663 16.86 16 16.86Z" fill="#000000"/>
<path d="M8.25001 8.76007L10.64 6.18006L14 9.31007C14.1382 9.43952 14.3207 9.5111 14.51 9.51007C14.6133 9.51008 14.7154 9.48877 14.8101 9.44747C14.9047 9.40617 14.9898 9.34578 15.06 9.27006C15.1981 9.12818 15.2753 8.93803 15.2753 8.74007C15.2753 8.5421 15.1981 8.35195 15.06 8.21007L11 4.42007L10.27 3.74007C10.0761 3.5603 9.81892 3.46465 9.55469 3.47402C9.29045 3.48339 9.04068 3.59702 8.86001 3.79007L5.35001 7.61006C5.24689 7.76659 5.20613 7.95606 5.23574 8.14115C5.26535 8.32623 5.3632 8.49352 5.51001 8.61006L9.43001 11.4501V15.4501C9.43001 15.649 9.50902 15.8397 9.64968 15.9804C9.79033 16.121 9.9811 16.2001 10.18 16.2001C10.3781 16.1975 10.5674 16.1176 10.7075 15.9775C10.8476 15.8374 10.9274 15.6482 10.93 15.4501V10.6601L8.28001 8.73007L8.25001 8.76007Z" fill="#000000"/>
<path d="M12.8199 4C13.9245 4 14.8199 3.10457 14.8199 2C14.8199 0.89543 13.9245 0 12.8199 0C11.7154 0 10.8199 0.89543 10.8199 2C10.8199 3.10457 11.7154 4 12.8199 4Z" fill="#000000"/>
</svg>
