<svg width="18" height="20" viewBox="0 0 18 20" fill="none" xmlns="http://www.w3.org/2000/svg">
<path d="M16.6209 -7.49289e-05H1.18721C0.872341 -7.49289e-05 0.57037 0.124019 0.347725 0.34491C0.12508 0.565801 0 0.865395 0 1.17778V17.0435C0 17.3559 0.12508 17.6555 0.347725 17.8764C0.57037 18.0973 0.872341 18.2214 1.18721 18.2214H2.44565V18.8221C2.44565 19.1345 2.57073 19.434 2.79338 19.6549C3.01602 19.8758 3.31799 19.9999 3.63286 19.9999H4.82007C5.13493 19.9999 5.43691 19.8758 5.65955 19.6549C5.88219 19.434 6.00728 19.1345 6.00728 18.8221V18.2214H11.9433V18.8221C11.9433 19.1345 12.0684 19.434 12.291 19.6549C12.5137 19.8758 12.8157 19.9999 13.1305 19.9999H14.3177C14.6326 19.9999 14.9346 19.8758 15.1572 19.6549C15.3799 19.434 15.5049 19.1345 15.5049 18.8221V18.2214H16.6922C17.007 18.2214 17.309 18.0973 17.5316 17.8764C17.7543 17.6555 17.8794 17.3559 17.8794 17.0435V1.17778C17.8797 1.01697 17.8468 0.857811 17.7827 0.710097C17.7186 0.562383 17.6247 0.429246 17.5068 0.318895C17.3889 0.208544 17.2495 0.123312 17.0971 0.0684548C16.9448 0.0135975 16.7827 -0.00972375 16.6209 -7.49289e-05ZM5.86481 15.689C5.7953 15.847 5.6807 15.9814 5.53514 16.0756C5.38958 16.1697 5.21942 16.2196 5.04564 16.219C4.9321 16.2425 4.81489 16.2425 4.70135 16.219L2.23195 15.1707C2.12162 15.1258 2.0215 15.0594 1.93754 14.9753C1.85358 14.8913 1.7875 14.7914 1.7432 14.6815C1.69891 14.5717 1.67731 14.4541 1.6797 14.3358C1.68208 14.2175 1.70839 14.1009 1.75707 13.9929C1.80364 13.8844 1.87134 13.7862 1.95628 13.7038C2.04122 13.6214 2.14173 13.5564 2.25203 13.5126C2.36234 13.4689 2.48027 13.4471 2.59907 13.4487C2.71786 13.4502 2.83518 13.4751 2.94428 13.5217L5.34244 14.5229C5.4545 14.5646 5.55708 14.6281 5.64419 14.7096C5.73129 14.791 5.80119 14.8889 5.84981 14.9974C5.89842 15.1059 5.92479 15.2229 5.92736 15.3417C5.92994 15.4604 5.90868 15.5785 5.86481 15.689ZM15.5643 15.1118L13.0949 16.1601C12.8825 16.2223 12.6545 16.2048 12.4543 16.1109C12.2541 16.0171 12.0956 15.8535 12.0091 15.6513C11.9226 15.449 11.914 15.2223 11.9851 15.0142C12.0561 14.8062 12.2019 14.6313 12.3945 14.5229L14.8401 13.4864C14.949 13.4381 15.0665 13.412 15.1858 13.4096C15.305 13.4073 15.4235 13.4287 15.5342 13.4726C15.645 13.5166 15.7457 13.5821 15.8304 13.6654C15.9151 13.7487 15.982 13.8481 16.0273 13.9575C16.0743 14.0633 16.0995 14.1774 16.1016 14.293C16.1037 14.4086 16.0826 14.5234 16.0395 14.6309C15.9964 14.7383 15.9322 14.8361 15.8506 14.9187C15.769 15.0013 15.6717 15.0669 15.5643 15.1118ZM16.1223 10.8362C16.1096 11.0735 16.0307 11.3027 15.8944 11.4982C15.7582 11.6937 15.5699 11.8478 15.3506 11.9434L11.8721 13.1919C11.3504 13.3629 10.8066 13.4581 10.2575 13.4746H7.71686C7.16784 13.4571 6.62415 13.3619 6.10225 13.1919L2.54063 11.9316C2.32365 11.8374 2.13752 11.685 2.00326 11.4914C1.869 11.2979 1.79195 11.0709 1.78081 10.8362V2.59121C1.78081 2.37253 1.86837 2.16282 2.02422 2.0082C2.18007 1.85358 2.39145 1.76671 2.61186 1.76671H15.2912C15.4004 1.76671 15.5084 1.78804 15.6093 1.82947C15.7101 1.87091 15.8017 1.93164 15.8789 2.0082C15.9561 2.08476 16.0173 2.17565 16.059 2.27569C16.1008 2.37572 16.1223 2.48293 16.1223 2.59121V10.8362Z" fill="#000000"/>
</svg>
