<svg width="20" height="12" viewBox="0 0 20 12" fill="none" xmlns="http://www.w3.org/2000/svg">
<path d="M19.9298 8.05168C19.7861 7.34773 19.4196 6.71295 18.8879 6.2471C18.3562 5.78125 17.6895 5.51072 16.9925 5.47804L14.9875 0H12.5113C12.3119 0 12.1206 0.0816714 11.9796 0.227048C11.8386 0.372425 11.7594 0.5696 11.7594 0.775194C11.7594 0.980788 11.8386 1.17796 11.9796 1.32334C12.1206 1.46872 12.3119 1.55039 12.5113 1.55039H13.985L15.7293 6.2429L14.1153 8.79587H9.52381V6.29457C9.49225 5.6434 9.23215 5.02626 8.79198 4.55814L8.29073 4.04134C7.79937 3.62366 7.1921 3.37756 6.55639 3.3385H1.00251C0.736625 3.3385 0.481634 3.4474 0.293627 3.64123C0.105621 3.83507 0 4.09797 0 4.37209V5.88114C0.0154068 6.18467 0.119355 6.47632 0.298234 6.71792C0.477113 6.95952 0.722584 7.1398 1.00251 7.23514L1.46366 7.40052C1.29578 7.8095 1.20723 8.24843 1.20301 8.69251C1.2079 9.40236 1.43767 10.0911 1.85735 10.6539C2.27702 11.2167 2.86359 11.6226 3.52772 11.8099C4.19186 11.9971 4.89716 11.9555 5.53621 11.6913C6.17527 11.4271 6.71305 10.9547 7.06767 10.3463H14.0852C14.3617 10.8442 14.7598 11.2589 15.24 11.549C15.7201 11.8391 16.2656 11.9946 16.8221 12C17.0443 11.9964 17.2657 11.9722 17.4837 11.9277C17.8914 11.8392 18.2782 11.6687 18.6218 11.4259C18.9655 11.1831 19.2594 10.8728 19.4866 10.5128C19.7138 10.1528 19.8699 9.75008 19.946 9.32776C20.022 8.90545 20.0165 8.47181 19.9298 8.05168ZM4.33083 10.4496C4.11097 10.4496 3.89327 10.405 3.69014 10.3182C3.48702 10.2315 3.30246 10.1043 3.147 9.94405C2.99154 9.78377 2.86822 9.59349 2.78408 9.38407C2.69995 9.17465 2.65664 8.95019 2.65664 8.72351C2.66148 8.44561 2.7302 8.17285 2.85714 7.92765L5.13283 8.72351C5.40911 8.80772 5.6904 8.87332 5.97494 8.9199C5.93067 9.33844 5.73868 9.72558 5.43551 10.0077C5.13235 10.2897 4.73918 10.447 4.33083 10.4496ZM18.2256 9.66408C18.1075 9.8546 17.9535 10.0187 17.7726 10.1465C17.5918 10.2744 17.3878 10.3634 17.1729 10.4083C17.0562 10.4188 16.9388 10.4188 16.8221 10.4083C16.5341 10.4051 16.2518 10.3255 16.0024 10.177C15.7531 10.0286 15.545 9.81629 15.3985 9.56073L16.9925 7.01809C17.3389 7.06037 17.6637 7.21384 17.921 7.45681C18.1782 7.69978 18.3549 8.01996 18.4261 8.37209C18.4785 8.5903 18.4877 8.81714 18.4533 9.03911C18.4188 9.26108 18.3414 9.47363 18.2256 9.66408Z" fill="#000000"/>
</svg>
