<svg width="20" height="19" viewBox="0 0 20 19" fill="none" xmlns="http://www.w3.org/2000/svg">
<path d="M6.24 12.16C6.30924 12.2302 6.39179 12.2857 6.48281 12.3235C6.57382 12.3613 6.67146 12.3805 6.77 12.38C6.86879 12.3823 6.96695 12.3639 7.05822 12.326C7.14948 12.2881 7.23183 12.2316 7.3 12.16C7.37076 12.0911 7.42699 12.0087 7.46539 11.9177C7.50379 11.8266 7.52357 11.7288 7.52357 11.63C7.52357 11.5312 7.50379 11.4335 7.46539 11.3424C7.42699 11.2514 7.37076 11.169 7.3 11.1C6.83554 10.6344 6.28379 10.265 5.67634 10.0129C5.06888 9.76085 4.41767 9.6311 3.76 9.6311C3.10233 9.6311 2.45111 9.76085 1.84366 10.0129C1.23621 10.265 0.684456 10.6344 0.219999 11.1C0.0875191 11.2422 0.0153959 11.4303 0.0188241 11.6246C0.0222523 11.8189 0.100964 12.0042 0.238377 12.1417C0.37579 12.2791 0.561175 12.3578 0.755477 12.3612C0.949778 12.3646 1.13782 12.2925 1.28 12.16C1.93809 11.503 2.83004 11.1339 3.76 11.1339C4.68996 11.1339 5.58191 11.503 6.24 12.16V12.16Z" fill="#000000"/>
<path d="M16.9999 12.02L14.4499 0.620029C14.4135 0.453308 14.3213 0.303988 14.1886 0.19672C14.0559 0.0894525 13.8905 0.0306518 13.7199 0.0300293H10.9199C10.7599 0.072396 10.6185 0.166472 10.5176 0.297604C10.4166 0.428735 10.3619 0.589559 10.3619 0.75503C10.3619 0.9205 10.4166 1.08133 10.5176 1.21246C10.6185 1.34359 10.7599 1.43766 10.9199 1.48003H13.1199L15.5399 12.3C15.5399 12.3 15.5399 12.3 15.5399 12.37C15.0786 12.6324 14.6981 13.0163 14.4399 13.48H6.22989C5.8769 12.922 5.34968 12.4961 4.72996 12.2682C4.11025 12.0403 3.43267 12.0232 2.80226 12.2196C2.17186 12.416 1.62387 12.8149 1.24323 13.3544C0.862595 13.894 0.670588 14.544 0.696978 15.2037C0.723369 15.8635 0.966682 16.4961 1.38919 17.0035C1.81171 17.5109 2.38981 17.8648 3.03389 18.0102C3.67796 18.1556 4.35202 18.0845 4.95155 17.8078C5.55108 17.5312 6.0426 17.0644 6.34989 16.48H14.4399C14.7022 16.9241 15.0763 17.2917 15.5249 17.5461C15.9736 17.8005 16.4811 17.9329 16.9968 17.9299C17.5126 17.927 18.0186 17.7889 18.4643 17.5294C18.91 17.2699 19.2799 16.8981 19.5371 16.451C19.7943 16.0039 19.9298 15.4973 19.93 14.9815C19.9303 14.4657 19.7953 13.9589 19.5386 13.5116C19.2819 13.0643 18.9124 12.6921 18.4669 12.4321C18.0215 12.1721 17.5156 12.0335 16.9999 12.03V12.02ZM3.75989 16.53C3.47354 16.5281 3.19419 16.4413 2.95706 16.2808C2.71992 16.1203 2.53563 15.8931 2.42741 15.628C2.3192 15.3629 2.29191 15.0717 2.34898 14.7911C2.40605 14.5105 2.54494 14.253 2.74811 14.0512C2.95129 13.8495 3.20967 13.7123 3.49067 13.6572C3.77166 13.6021 4.06269 13.6314 4.32707 13.7414C4.59144 13.8514 4.81731 14.0373 4.9762 14.2755C5.13509 14.5137 5.21988 14.7937 5.21989 15.08C5.21989 15.2713 5.18206 15.4607 5.10857 15.6372C5.03507 15.8138 4.92737 15.9741 4.79166 16.1089C4.65596 16.2437 4.49493 16.3503 4.31785 16.4225C4.14077 16.4948 3.95115 16.5313 3.75989 16.53V16.53ZM16.9699 16.42C16.6831 16.42 16.4028 16.335 16.1643 16.1757C15.9259 16.0163 15.74 15.7899 15.6303 15.5249C15.5205 15.26 15.4918 14.9684 15.5478 14.6871C15.6037 14.4059 15.7418 14.1475 15.9446 13.9447C16.1474 13.7419 16.4057 13.6038 16.687 13.5479C16.9683 13.4919 17.2598 13.5207 17.5248 13.6304C17.7897 13.7402 18.0162 13.926 18.1755 14.1645C18.3348 14.4029 18.4199 14.6832 18.4199 14.97C18.4199 15.3546 18.2671 15.7234 17.9952 15.9953C17.7233 16.2673 17.3545 16.42 16.9699 16.42V16.42Z" fill="#000000"/>
</svg>
