<svg width="16" height="21" viewBox="0 0 16 21" fill="none" xmlns="http://www.w3.org/2000/svg">
<path d="M14.8731 4.0045C14.8638 3.86116 14.8243 3.72101 14.7567 3.59223C14.6892 3.46345 14.595 3.34863 14.4797 3.2545C14.2304 3.07553 13.921 2.9868 13.608 3.0045H10.7269L12.6086 1.4645C12.7608 1.34346 12.8656 1.17802 12.9063 0.994496C12.9479 0.816944 12.9293 0.631599 12.8532 0.464497C12.7747 0.315766 12.653 0.190959 12.5023 0.104496C12.3552 0.0219805 12.1835 -0.0131305 12.0133 0.00449576H3.96545C3.78841 -0.0132316 3.60993 0.0217453 3.45515 0.104496C3.3042 0.193992 3.18847 0.327428 3.12558 0.484495C3.04126 0.652834 3.01953 0.842943 3.06387 1.0243C3.10822 1.20565 3.21606 1.36772 3.3701 1.4845L5.2412 3.0045H2.39203C2.07118 3.00545 1.76154 3.11556 1.52027 3.3145C1.30738 3.49414 1.16819 3.7383 1.12691 4.0045L0 14.3445V14.5045L0.584718 17.0245C0.662353 17.2778 0.817669 17.5039 1.03123 17.6745C1.26683 17.8425 1.55418 17.9338 1.84983 17.9345H2.39203V19.2545C2.39221 19.4533 2.47634 19.644 2.62591 19.7845C2.78045 19.924 2.98581 20.0027 3.2 20.0045C3.41094 20.0022 3.61279 19.9234 3.76345 19.7845C3.91303 19.644 3.99716 19.4533 3.99734 19.2545V17.9345H12.0877V19.2545C12.0853 19.3533 12.1049 19.4515 12.1452 19.5427C12.1855 19.634 12.2455 19.7163 12.3216 19.7845C12.4331 19.8893 12.5751 19.9606 12.7297 19.9895C12.8843 20.0183 13.0445 20.0035 13.1901 19.9468C13.3357 19.8901 13.4602 19.794 13.5478 19.6708C13.6354 19.5476 13.6823 19.4027 13.6824 19.2545V17.9345H14.2777C14.5703 17.9253 14.8526 17.831 15.0857 17.6645C15.294 17.5007 15.4365 17.2749 15.4897 17.0245L16 14.5545L14.8731 4.0045ZM4.91163 1.2445L11.0565 1.2945L8.77076 3.0045H7.2186L4.91163 1.2445ZM1.77542 11.4645L2.53023 5.1045C2.5601 4.91399 2.66202 4.74001 2.81728 4.6145C2.96741 4.48353 3.16536 4.41192 3.3701 4.4145H12.6405C12.8408 4.4182 13.0331 4.48913 13.1827 4.6145C13.3312 4.74368 13.4286 4.91643 13.4591 5.1045L14.1395 11.4445C14.1608 11.53 14.1608 11.619 14.1395 11.7045C14.1103 11.7891 14.0632 11.8672 14.0011 11.9342C13.939 12.0012 13.8631 12.0557 13.7781 12.0945C13.6895 12.1255 13.5961 12.1424 13.5017 12.1445H2.43455C2.34417 12.1456 2.25426 12.1321 2.16877 12.1045C2.08029 12.0663 2.00079 12.0119 1.93488 11.9445C1.87586 11.877 1.83241 11.7987 1.80731 11.7145C1.777 11.6344 1.7661 11.549 1.77542 11.4645V11.4645ZM5.56013 15.2045C5.51979 15.2975 5.45975 15.3817 5.38367 15.4522C5.3076 15.5226 5.21707 15.5778 5.11762 15.6143C5.01816 15.6507 4.91184 15.6678 4.80515 15.6644C4.69846 15.661 4.59362 15.6372 4.49701 15.5945L2.29635 14.7145C2.19754 14.6764 2.10789 14.62 2.03271 14.5486C1.95752 14.4773 1.89834 14.3924 1.85868 14.2992C1.81902 14.2059 1.79968 14.1061 1.80181 14.0056C1.80394 13.9052 1.82751 13.8062 1.8711 13.7145C1.9128 13.6224 1.97342 13.539 2.04949 13.4691C2.12555 13.3991 2.21555 13.3439 2.31433 13.3068C2.4131 13.2696 2.51871 13.2512 2.62509 13.2525C2.73147 13.2538 2.83652 13.2749 2.93422 13.3145L5.13488 14.1945C5.23407 14.2337 5.32393 14.2911 5.39922 14.3633C5.4745 14.4356 5.53368 14.5213 5.57329 14.6154C5.6129 14.7095 5.63214 14.81 5.62988 14.9112C5.62762 15.0124 5.60391 15.1121 5.56013 15.2045V15.2045ZM13.7355 14.7145L11.5243 15.5945C11.4274 15.6358 11.3228 15.6584 11.2165 15.6611C11.1102 15.6638 11.0044 15.6465 10.9054 15.6101C10.8063 15.5738 10.716 15.5192 10.6397 15.4495C10.5634 15.3799 10.5027 15.2966 10.4611 15.2045C10.419 15.1126 10.3966 15.0138 10.3952 14.9137C10.3938 14.8137 10.4134 14.7143 10.4529 14.6214C10.4924 14.5285 10.5511 14.4438 10.6255 14.3723C10.6998 14.3007 10.7885 14.2437 10.8864 14.2045L13.0977 13.3245C13.1954 13.2849 13.3004 13.2638 13.4068 13.2625C13.5132 13.2612 13.6188 13.2796 13.7176 13.3168C13.8163 13.3539 13.9063 13.4091 13.9824 13.4791C14.0585 13.549 14.1191 13.6324 14.1608 13.7245C14.2027 13.8157 14.225 13.9138 14.2262 14.0131C14.2275 14.1124 14.2078 14.211 14.1682 14.3031C14.1287 14.3952 14.07 14.479 13.9958 14.5496C13.9215 14.6203 13.833 14.6763 13.7355 14.7145V14.7145Z" fill="#000000"/>
</svg>
