<svg width="16" height="20" viewBox="0 0 16 20" fill="none" xmlns="http://www.w3.org/2000/svg">
<path d="M14.8738 3.0189H10.7623L12.5896 1.29879C12.6679 1.23013 12.7307 1.14732 12.7743 1.05531C12.8178 0.96331 12.8412 0.86399 12.8431 0.763281C12.845 0.662572 12.8253 0.562535 12.7853 0.469141C12.7452 0.375747 12.6855 0.290907 12.6099 0.219684C12.5342 0.148461 12.4441 0.0923138 12.3449 0.0545903C12.2456 0.0168668 12.1394 -0.00166018 12.0324 0.000116722C11.9254 0.00189362 11.8199 0.023938 11.7221 0.0649326C11.6244 0.105927 11.5364 0.165033 11.4635 0.238724L8.50996 3.0189H5.67331L7.50066 1.29879C7.57584 1.22984 7.63558 1.14742 7.67638 1.05639C7.71717 0.965357 7.73819 0.867559 7.73819 0.768759C7.73819 0.66996 7.71717 0.57216 7.67638 0.481128C7.63558 0.390096 7.57584 0.307674 7.50066 0.238724C7.35126 0.0982648 7.14874 0.0193707 6.93758 0.0193707C6.72643 0.0193707 6.5239 0.0982648 6.3745 0.238724L3.42098 3.0189H1.06242C0.780646 3.0189 0.510416 3.12427 0.311175 3.31182C0.111933 3.49936 0 3.75374 0 4.01897V17.4898C0 17.7551 0.111933 18.0094 0.311175 18.197C0.510416 18.3845 0.780646 18.4899 1.06242 18.4899H2.18858V18.9999C2.18858 19.2652 2.30051 19.5195 2.49975 19.7071C2.699 19.8946 2.96923 20 3.251 20H4.31341C4.59518 20 4.86541 19.8946 5.06466 19.7071C5.2639 19.5195 5.37583 19.2652 5.37583 18.9999V18.4899H10.6879V18.9999C10.6879 19.2652 10.7998 19.5195 10.9991 19.7071C11.1983 19.8946 11.4686 20 11.7503 20H12.8127C13.0945 20 13.3647 19.8946 13.564 19.7071C13.7632 19.5195 13.8752 19.2652 13.8752 18.9999V18.4899H14.9376C15.2194 18.4899 15.4896 18.3845 15.6888 18.197C15.8881 18.0094 16 17.7551 16 17.4898V4.01897C16.0003 3.88243 15.9708 3.74729 15.9135 3.62188C15.8562 3.49646 15.7721 3.38342 15.6666 3.28973C15.5611 3.19603 15.4364 3.12367 15.3 3.07709C15.1637 3.03051 15.0186 3.01071 14.8738 3.0189ZM4.04781 15.9397H2.43293C2.22161 15.9397 2.01893 15.8607 1.8695 15.7201C1.72007 15.5794 1.63612 15.3886 1.63612 15.1897C1.63612 14.9908 1.72007 14.8 1.8695 14.6593C2.01893 14.5187 2.22161 14.4396 2.43293 14.4396H4.04781C4.25914 14.4396 4.46181 14.5187 4.61124 14.6593C4.76067 14.8 4.84462 14.9908 4.84462 15.1897C4.84462 15.3886 4.76067 15.5794 4.61124 15.7201C4.46181 15.8607 4.25914 15.9397 4.04781 15.9397ZM13.6096 15.9397H11.9734C11.7621 15.9397 11.5594 15.8607 11.41 15.7201C11.2606 15.5794 11.1766 15.3886 11.1766 15.1897C11.1766 14.9908 11.2606 14.8 11.41 14.6593C11.5594 14.5187 11.7621 14.4396 11.9734 14.4396H13.5883C13.7996 14.4396 14.0023 14.5187 14.1517 14.6593C14.3012 14.8 14.3851 14.9908 14.3851 15.1897C14.3851 15.3886 14.3012 15.5794 14.1517 15.7201C14.0023 15.8607 13.7996 15.9397 13.5883 15.9397H13.6096ZM14.417 12.4395C14.417 12.6252 14.3386 12.8032 14.1992 12.9345C14.0597 13.0658 13.8705 13.1396 13.6733 13.1396H10.4861V13.8096C10.4861 13.9953 10.4077 14.1733 10.2682 14.3046C10.1288 14.4359 9.9396 14.5096 9.74236 14.5096H6.23639C6.03915 14.5096 5.84999 14.4359 5.71052 14.3046C5.57105 14.1733 5.4927 13.9953 5.4927 13.8096V13.1496H2.35857C2.2609 13.1496 2.1642 13.1315 2.07397 13.0963C1.98374 13.0611 1.90175 13.0095 1.8327 12.9445C1.76364 12.8795 1.70886 12.8023 1.67148 12.7174C1.63411 12.6325 1.61487 12.5414 1.61487 12.4495V5.21905C1.61487 5.12711 1.63411 5.03608 1.67148 4.95115C1.70886 4.86622 1.76364 4.78904 1.8327 4.72404C1.90175 4.65903 1.98374 4.60747 2.07397 4.57229C2.1642 4.53711 2.2609 4.519 2.35857 4.519H13.6521C13.7497 4.519 13.8464 4.53711 13.9367 4.57229C14.0269 4.60747 14.1089 4.65903 14.1779 4.72404C14.247 4.78904 14.3018 4.86622 14.3391 4.95115C14.3765 5.03608 14.3957 5.12711 14.3957 5.21905L14.417 12.4395Z" fill="#000000"/>
</svg>
