<svg width="22" height="22" viewBox="0 0 22 22" fill="none" xmlns="http://www.w3.org/2000/svg">
<path d="M11 1C9.14348 1 7.36301 1.73749 6.05025 3.05025C4.7375 4.363 4 6.14348 4 8C4 11.52 5.28 13 6.83 15.45C8.10462 17.3839 9.49726 19.2375 11 21C12.5024 19.2407 13.895 17.3905 15.17 15.46C16.72 12.98 18 11.35 18 8.00999C18.0013 7.0899 17.8212 6.17857 17.47 5.32814C17.1188 4.47771 16.6034 3.70486 15.9533 3.05379C15.3031 2.40272 14.531 1.88621 13.6811 1.5338C12.8312 1.18139 11.9201 0.999999 11 1ZM11 13.54C9.54131 13.54 8.14236 12.9605 7.11091 11.9291C6.07946 10.8976 5.5 9.49868 5.5 8.03999C5.5 6.5813 6.07946 5.18236 7.11091 4.15091C8.14236 3.11946 9.54131 2.53999 11 2.53999C12.4587 2.53999 13.8576 3.11946 14.8891 4.15091C15.9205 5.18236 16.5 6.5813 16.5 8.03999C16.5 9.49868 15.9205 10.8976 14.8891 11.9291C13.8576 12.9605 12.4587 13.54 11 13.54Z" fill="#454545"/>
<path d="M11 10.0098C12.1046 10.0098 13 9.11434 13 8.00977C13 6.9052 12.1046 6.00977 11 6.00977C9.89543 6.00977 9 6.9052 9 8.00977C9 9.11434 9.89543 10.0098 11 10.0098Z" fill="#454545"/>
</svg>
